<mxfile host="Electron" modified="2024-01-15T20:05:16.475Z" agent="Mozilla/5.0 (Windows NT 10.0; Win64; x64) AppleWebKit/537.36 (KHTML, like Gecko) draw.io/22.1.16 Chrome/120.0.6099.109 Electron/28.1.0 Safari/537.36" etag="93-9QhwqiQHxBqQrReML" version="22.1.16" type="device">
  <diagram name="Page-1" id="ZG5izTUC3Xav97qei4uZ">
    <mxGraphModel dx="1434" dy="844" grid="1" gridSize="2" guides="1" tooltips="1" connect="1" arrows="1" fold="1" page="1" pageScale="1" pageWidth="827" pageHeight="1169" math="0" shadow="0">
      <root>
        <mxCell id="0" />
        <mxCell id="1" parent="0" />
        <mxCell id="Yx1Y_kQ19_9zyjQyw0cI-1" value="" style="shape=image;verticalLabelPosition=bottom;labelBackgroundColor=default;verticalAlign=top;aspect=fixed;imageAspect=0;image=data:image/png,iVBORw0KGgoAAAANSUhEUgAAA/wAAAOOCAYAAAC9SxkxAAAgAElEQVR4Aezde3QUZaLvfdc6691rnz/OOn8d37X/2Oess9fe72bxvnlRlspkhlFRBxl1MzozOqMene1sZLicvMg1IiB4A4kBNEq4GZB7QEBQIjflJiAoV4EoyD1cAiSBBEJCJ/B711PV1V3d6U466e50deebtaC7q6ueeurzVDr1q+ep6juuXquV+Xel5rr1r6r6mtz/Kq/WiH8YsA+wD7APsA+wD7APsA+wD7APsA+wD7APsA94bx9w53fz3Mn2Juff4bwwb1y/UafGW7fEDwIIIIAAAggggAACCCCQKQI/HjudKZvCdiDQrIDJ8ybXO8HfCvzmxbXaumYX5E0EEEAAAQQQQAABBBBAIB0FCPzp2GrUOR4Bk+9Nzr/D/FdxpZqe/Xg0WRYBBBBAAAEEEEAAAQQ8K0Dg92zTULEkCZiefpPz7zDXYFyqvJKk1VAsAggggAACCCCAAAIIIJBaAQJ/av1Ze2oETM6/w6T+8suVqakBa0UAAQQQQAABBBBAAAEEkixA4E8yMMV7UsDk/DsuV11V+aUKT1aQSiGAAAIIIIAAAggggAAC8QoQ+OMVZPl0FDA53wr8Fy5eTsf6U2cEEEAAAQQQQAABBBBAoEUBAn+LRMyQgQIm599hxvUT+DOwddkkBBBAAAEEEEAAAQQQsAQI/OwIHVGAwN8RW51tRgABBBBAAAEEEECggwkQ+DtYg7O5lgCBnx0BAQQQQAABBBBAAAEEMl6AwJ/xTcwGRhAg8EdAYRICCCCAAAIIIIAAAghklgCBP7Pak62JTYDAH5sTcyGAAAIIIIAAAggggEAaCxD407jxqHqbBQj8baZjQQQQQAABBBBAAAEEEEgXAQJ/urQU9UykAIE/kZqUhQACCCCAAAIIIIAAAp4UIPB7slmoVJIFCPxJBqZ4BBBAAAEEEEAAAQQQSL0AgT/1bUAN2l+AwN/+5qwRAQQQQAABBBBAAAEE2lmAwN/O4KzOEwIEfk80A5VAAAEEEEAAAQQQQACBZAoQ+JOpS9leFSDwe7VlqBcCCCCAAAIIIIAAAggkTIDAnzBKCkojAQJ/GjUWVUUAAQQQQAABBBBAAIG2CRD42+bGUuktQOBP7/aj9ggggAACCCCAAAIIIBCDAIE/BiRmyTgBAn/GNSkbhAACCCCAAAIIIIAAAuECBP5wEV53BAECf0doZbYRAQQQQAABBBBAAIEOLkDg7+A7QAfdfAJ/B214NhsBBBBAAAEEEEAAgY4kQODvSK3NtjoC7Rf4fRe1ZdJ/6BdduqlTVjf1/dypgqTNo3V3lj3dvOf+FzKfaxH7qU8X9izUiGce113+cjt1fUg9nhmn4qN1/rlrNO/F0DLd5VvPB5Q0KTmeCXVHVyinZ3d7O3oVqDRSYXVntePTAo148Rn98v7f2PWPoR6+8u3Ke76nOltOg7UyrOy6o2uV1+8Z3dPVv81dHlC33oP04daL8oXNy0sEEEAAAQQQQAABBDqKAIG/o7Q02+kWaIfA79OFrQX606+zowZ53/KckPeCgby3xh9yV9f93KeDM/9d94adIAgs2+UJDdlQJemI8nq1U+CvO6biwb9TlrtOTQK/TyeW5+ohJ5C7520u8IedMLG3MzTwV2wYrQecEx/ucq3nD+uPM0vbFPq/KRiq3KVlbvwEPK/Umsmj9NH2BBTVmiKu71bBkFy9t6W2NUu1PO/plcrtP0PftDxnms5Rqx1TR6nflO26nqZbQLURQAABBBBAoGMLEPg7dvt31K1vh8Bfor5NwmdoD3/ppKf8gT80wDbbKKfn6MlAuH1Qf11qerDrtPcdp6xu6pQ9WhujdGvvefuxwEmGJwoTE2aD2+E6wRAS+H06OOlpf++8PU/nXz+nEYVbtf9clZwxCRG3+/PBgfoGTmpkubx832hIdnC9j7xzQHXy6cLSnODoiS4vaPrpiKU3O7Htgb9RtRd+0pdFkzQkZ6imhIT7Mi0eHT4tWjUu65uiSRo2aLj69B+qPjmjNLpon65Gm7256V4M/PU1+nnHSk16/VX1Hb1Sp5qpv2mLPgW7ms6xfYb6tLBs04VaM4XA3xot5kUAAQQQQAAB7wkQ+L3XJtQo+QLtEPjXa9Tvx6l49Xt6xBX83UP1S3L8vf+/Hq8IUSaiwrEPng4G4PtGa6Mz1/k5ejKwngc1ZLPzhuuxukR97/OH4y79tKja9V4cT0unDtLLhds1s28weHdyB/6QkxTd1PmJKdrbbMp3VWbNO+r92gp97j6h4Q78a4a5TiS8oOnnnWW/0RBnW7O66cmZF5w3Yn5se+Dfq0UfrNTGw2uU1z883Lcm8Jfp+x0nVVnbaNW5/udPldt/pKbti3kTkj9jHD38Zes/0cxVB7R13lsthvb2Cvz1u4o0MNKJheRLsgYEEEAAAQQQQCApAgT+pLBSqMcF2iHw+wV+LIgS+F3X2LvDsRvOV6rJf3xAnbO666Gx38jk85UDooRqhY4o6PXBCXdJ1vPThc8GThbcPWRTm4a5NynUNSFa3c7PfCGw3k5ZD2rQhijDDyT5DhXqyXuz1anr7zRqc02g9NBRBMEe/mjTwy9p6JyzPlBWrE/aHvidNezSlGiBf22pFr83Tv36D1XfYR+oJKYRCKa84SrY6S//hyUa9tZK7dw6WyPNKICBY1Sw/bLObPK/7p+rMctPqUF2PcwoAWe0weX1hcqZ9rV+WPqhNQrBLPvOmjaM+Igj8DtKp5a+k5jAH7OH1HBinSbk5lojJ/oOekPvb6mUVQ8zksL/z1zOYZ1oMK8DJwFq9N0Ce+RGn/65GvLeOh1v8G9J9T7NNKMVAmXkKmf4/JhP5jkePCKAAAIIIIAAAokUIPAnUpOy0kXAA4HfdY19l2x/L3W27ur+jHKWn7LD+N6J6h7otbdDbrRQrbDA/8ikI6FtETL0vfnQHbpg7K+i1S0wksHalpf01ifj9PuHzImMburU5QHd/5cCbau017P7reAlB51c1/ZHC/bRpocHfndZsW5RMgN/zviV2n3pptRwQZ++OVSvzA1rL3clG26o8th3mjtxnIZMdAVMM5x94Jsq2HRatQ2Nqix53/Vaurr2ffUZNFd7rLJCTz5Y4TZnoubuvax6Nersijz1GV6sw+71xvLcS4G/FR47pg7X2yVXZLJ6ffVJ/XjSvreB5RII9zaAe3RB+ep89R0yQ5srG6WGK/oyb7hyioxarb7KH66B73+jygbJHo0xQUvPxoLIPAgggAACCCCAQPIECPzJs6Vk7wp4IPCH9sgHr083PfiP6Y29pru77T384YG/urhfcOh7jzx/CGzaQKEB2jWawArrTynvx6bLOFOiBf6Q6YETGKFld35puTWCIVk9/F4L/E5Pu7FzB0rH0v0Y6GXun6ucUR9q1Ql7iL/Cr183r9030At5HSHwu4NtyLzutbfw3GuB3309f/g2uV7vLxqlnPyvdcJ/uYSzlc0H/lqtyws9OXN5db76vLZCx2VfqpG36aa/KOPtGo3hrIBHBBBAAAEEEECgnQUI/O0Mzuo8IeCBwF+nyqrghex1ZWv1So9gCA4P7I5aSHgOuRQg9ARC6JD+A3rDVXZzN+tLfuAfoPk1Zkh/nb78/x50DfUPDtN3ttX9GFqv4LzRpof38HtuSL/rRn4tBf762htWT7TToxwYXm4CbIwBV/5h/c6JhibB1hWG3e4tPk/TwK/6c/p62ngNGJirIe8s1Xf++1k0cQk5IWOHemfIf/DRfEtBWA//wYUa2j9fqypaFGQGBBBAAAEEEEAgqQIE/qTyUrhHBTwQ+MNlXEP8m7nJXFtu2lf9+WDXHesTd7O+8C2IdjIipM5ZOVrmv4Q/elgPL1mKOq8nb9rn1D+0V92e2vSmfS0Ffqc0qVHfFAxX36m77UkdKPCXLZ8QenLDj2L1sI/9QtbdB1rl4S+g/py+zB+lvvlbra/daz7w2z38I4ojf59Aw5ElGpGTa1/DnzNOE1ab+yfwgwACCCCAAAIIpFaAwJ9af9aeGgFPBP66qgs6d+w7rS6cqOd7dg/2djtfIxdhSL9C7ngfy9fylenDJ4MjB5Jxsz6nCaMFfu3Nc92LwF9n30XNftH/LQVmmL//MoPWDulXyL0JuskbX8vniCQm8NdXV+jM4W1aPOVN9Rv2sb5xvl2hVQE3tC5Ngq3He/h1cZ3GDRyld9eeVHW98W1U7cmv9e6Q4Rq3+pINHrNHrU4cccq5qSML31Gft9fpsiT7xMIK60Z8DfU3rcDuPiFjXcOfO0fbzP0XJDXUXtHPZWbJSq16e7Rm7PdfbmHXiP8RQAABBBBAAIGUCxD4U94EVCAFAu0Q+EOH2Ideoz9Yr7vvtu+6rr3zr/9DedurbJJt43Rv4D1nGLtPBz/4s7IC04Nh3lpHlyc0ZIN/eXMbgM2jXWU8qjHfJV47tPc9tD72pQk+HZz0dPAeAuF179JTOWvsO/Jvfe3h4IkPc9O+zwcHX4cv57+pX8Xnw/SLLqHrDXo/rD/OLG3TNxKYoGfu1N7aHytMB+7UHnrXd/mv9XaG1puy3YEyZF1WCB+uAcPGanTefC3eYW7O55oj5oBrlvFa4LfrExwW7ziZ4fGRf+p//lqTxo2yvtnALNdv8LuatKpUV53ZY/ao1I4Z7yonx15nv1zXfRFcd9rv99Zaa+RAaPvUWN9sMMx8K4JVh7f0xspjVg2Or5ig/q52N3f/n7zRnAzgBwEEEEAAAQQQSJ0AgT919qw5dQKeCfxZ2Y/ql/c/o+dHFmjJztOqdn9jXaQefsvMpwt7FmrEM4/rLifodn1Ij/Ur0OdHg/cFkKo0L0IveqLZWw78Zo0+Xdg6Sy/3/k1InXs8M07Frjo36eGPIfCb0uuOrlVev2d0T1d/8Dd3/39mnGbvudimsG/KbGvgT7Svp8tLwDX8nt6+WCtnRiAMmaPvXCdk6vfP1yuBb0mItSDmQwABBBBAAAEEEitA4E+sJ6Wlh0A7BP70gKCW0QUI/NFtAu8Q+G2KnR+r76BpWu8f6q+GGzpRUqCBuUvVzBcuBhh5ggACCCCAAAIIJEuAwB+/7O3bt1VzrVanz5br6IkyGdP2/GfWadZt6mDqwk/LAgT+lo2YAwEEYhVouKJvi97VIP9Q/z7mKxTHTVfJz87X9MVaEPMhgAACCCCAAAKJFSDwx+9pgvbJsguqvWHdTCr+AttQglm3qYOpCz8tCxD4WzZiDgQQQAABBBBAAAEEEEhzAQJ//A1oetdTGfadLTB1MHXhp2UBAn/LRsyBAAIIIIAAAggggAACaS5A4I+/Ac2Qeq/8eKkuXjGJVA8CfyQVpiGAAAIIIIAAAggggEBGCRD4429OLxl6qS7xyyavBAJ/8mwpGQEEEEAAAQQQQAABBDwiQECMvyG8ZOilusQvm7wSCPzJs6VkBBBAAAEEEEAAAQQQ8IgAATH+hvCSoZfqEr9s8kog8CfPlpIRQAABBBBAAAEEEEDAIwIExPgbwkuGXqpL/LLJK4HAnzxbSkYAAQQQQAABBBBAAAGPCBAQ428ILxl6qS7xyyavBAJ/8mwpGQEEEEAAAQQQQAABBDwiQECMvyG8ZOilusQvm7wSCPzJs6VkBBBAAAEEEEAAAQQQ8IgAATH+hvCSoZfqEr9s8kpot8Dvq/9R67b/b/1pzj16evtPEbbosAoWdVX3We5//6apFyPM6kzy7VfRqkf1SJFZppt6r5qiXdedN6U1Je6y3M9ztCY4G88QQAABBBBAAAEEEEAgwwUIiPE3sJcMvVSX+GWTV0L7BP7L0/TXhc/pte2FGrmoa5TA/4WGz3pJn9bFurFnNG/ZPXq0ZJnO+SQ1lmvH1/+m+5dM0Y+N0cuo2v+SeqxcrKros/AOAggggAACCCCAAAIIZJgAATH+BvWSoZfqEr9s8kpon8AfqP9Pmro4SuC/OEVPzxmpbYF5W3hydoJ6z3pMBRdc89UtVv9Zv9LYY65p7qeNWzT2k99o4hlzhoAfBBBAAAEEEEAAAQQQ6CgCBMT4W9pLhl6qS/yyySvBO4H/2Eg9suRDnYy2rSff1GNF3fS3vf6EX5qj7rPCh+abUQJRTihIKvv+WXr3o/kyHQEEEEAAAQQQQACBDBYgIMbfuF4y9FJd4pdNXgmeCfw1+19S96JfBq7Hf3TpMH1R6eqJDwv8J3c81brAX/eFhs+hdz95uxIlI4AAAggggAACCCDgXQECYvxt4yVDL9UlftnkleCZwO+rr5Fz+b65wd/iVfer+4IJ+iHKtrc28B/d/m+6f1mRyqKUx2QEEEAAAQQQQAABBBDIXAECYvxt6zY8dbZS+38s06qvDmjohGWBf8dOX4q4olu3b2vK8q+1ouwH69/0Dd/o7//vHH1+7GBg2upTh/TckCJr+sQZ6wLlmDJffm1B4LV54q5LyBu8CBHwTOAPqZV5EXHIvmuuiO9HGdJ/fbH6F92vscdcIwZcRfEUAQQQQAABBBBAAAEEMluAgBh/+7oNTeDfsuuoFfhN6C+Yu0l9Xpuv27dvWys6f+mqtn73s9wnAFZ/Gwz3JvCPnbs6EPbNiYDl+/ZZZf7zw2MC5dyou6l/eeR16ySAWYfz466LM43HpgIeDfw+7d30m2Z7+BXzTfvssujdb9r4TEEAAQQQQAABBBBAoKMIEBDjb2m3oenddwL/Wx+VyPxbvfFgYCUm6Jv3TfA3P1eu1er99ZtkevFNuJ+7fZdWnzkUeG2mfbZ5f8gy5uSBE/bNaID/8xcjZE40mB93XawJ/BdRwFOB31d/URfOb9bstY+rR1Evjf3Zbkyr5mHX8Ev+r+VbNV/HQ76W70MddW/qlSK9RO++W4TnCCCAAAIIIIAAAgh0OAECYvxN7hheqb5hBXMT6E3Qn/fZTmtI/+lzrvwWtroN+360gn7+Z19Zj5+XHdQXZw5pRekB6/WqsoPWaICGhuB3rDvD+03Yd/6ZUQTmx6lL2Gp4GSbQLoF/TUlXdZ8V4d/iKf5wbg/Fv3/Og3pi0XN6bfuXOlIfNvy+SeCX5NuvolWPBm7013vVFO267t5Cnzav+xXX7rtJeI4AAggggAACCCCAQAcUICDG3+iOoelld4bxm7BvQrj554T1fYfLrIBuru13fuat3WUF+25/nmg9mh79V97/VCbom+dL9u0NDOM3y8z+dHsg5Dth3zz+X4+8bhXp1MUpn8fIAu0S+COvmqkIIIAAAggggAACCCCAQPsIEBDjd3YMTcg3vftOz74J9pOKNgRW4PTMu2+8V/TVDmv4vgntJuCbm/X9+dWiQPhf+NV3geXN5QDukO88N2HfrNP8OHUJLMSTiAIE/ogsTEQAAQQQQAABBBBAAIFMEiAgxt+aXjL0Ul3il01eCQT+5NlSMgIIIIAAAggggAACCHhEgIAYf0N4ydBLdYlfNnklEPiTZ0vJCCCAAAIIIIAAAggg4BEBAmL8DeElQy/VJX7Z5JVA4E+eLSUjgAACCCCAAAIIIICARwQIiPE3hJcMvVSX+GWTVwKBP3m2lIwAAggggAACCCCAAAIeESAgxt8QXjL0Ul3il01eCQT+5NlSMgIIIIAAAggggAACCHhEgIAYf0N4ydBLdYlfNnklEPiTZ0vJCCCAAAIIIIAAAggg4BEBAmL8DeElQy/VJX7Z5JXQLoH/UOkRFc1dogn5hfzDgH2AfaDZfcB8VpjPjPAfPkf4/ORvCPsA+wD7APtAZu8D0Y4Bwo8J2vqagNhWueByXjL0Ul2CQt57lvTAbw7S+XDO7A9n2pf2TcY+4A79fI6wjyVjH6NM9iv2AfYB9gFv7gPuY4BExicCYvyaXjL0Ul3il01eCUkP/PTse/ODlD9wtIvX9wHz2eH88DnC/ur1/ZX6sY+yD7APsA8kbh9wHwM4xwKJeCQgxq/oJUMv1SV+2eSVkPTAz4df4j78sMSyo+0DzkdfR9tutpffdfYB9gH2AfaBjr4POMcAiXwkIMavefREWfyFJKgEL9UlQZuUlGII/FxPzSUX7AOe3QecT72OftDD9nPgzz7APsA+wD7Q0fYB5xggkY8E/vg1T58tV+2N+vgLirMEUwdTF35aFiDwE/Y8G/Y62h82trfpwZzzEYZNUxtMMGEfYB9gH2AfyOR9wDkGSOQjgT9+zZprtTpZdiGlod+EfVMHUxd+WhYg8BP4CfzsA57dB5yPsEw+oGHbOGBnH2AfYB9gH2AfaLoPOMcAiXwk8Mevefv2bStom951M6TemLbnP7NOs24T9k1d+GlZgMBP2PNs2OOPX9M/fh3NxPkI62jbzfay77MPsA+wD7APdPR9wDkGSOQjgT+RmpSVLgIEfgI/gZ99wLP7gPNB2tEPeth+DvzZB9gH2AfYBzraPuAcAyTykcCfSE3KShcBAj9hL/6w9/2l0P39dqNuVPykL2eYP85f68j10LetV+X7Iq939gbtPlGl6nqfbumSdlrts0hrSyt1o8EetnPLd02ndqyMvDztmVEuzp7T0Q5y2F4O7DNzH5in4p1nVe27Zf9q3/Kp9uS3Lf+dmPGpSvaW65r5G3D9hFaHf84XH1B5g+Q7v0efhL/H64z6m5CZvxd83kVrV+cYIJGPBP5EalJWuggQ+DkYiP9gwAn8/hC/YPdlNUiqO7HVdSBXqyNrWvijVrxPF3zS7Rvl2r9preZYJwwKNeGr06qTVH96h6bO2KGT5sag9Wf0FW0Xf9t53ND5II12MMD0Fn6nPN6+tF8Ha7/lP6rKnLet+knFMwo187PvdOSgO/BH/jux47zrGs0mgX+Zdpw3fziqtK+4g3ny+53xfwM7+mekcwyQyEcCfyI1KStdBAj8/MGM/w9mWOCfsOaErE596wSA08Mf+UAu+MdsmfZcNgd1NTq8MuygbWe5zDtW4M/fpKPmhpzVR7Wctou/7Txu6HyQBveTsH3D4/Wn3rQX+4BrH3D+Nlw/rbWzXdMDI8Ei/51YtmG7lm3w/10JC/xTt52TT7d15fCajP88ZF9y7zM87wj7g3MMkMhHAn8iNSkrXQQI/ASG+A+SQgL/PBX/UGUF9NAefvevhDNU3/0He5fOmGEBqtf1a43W8rfqyrXT9NjM2KQj10zkv636azfka7yiA6vmxV9v2t7zhs5e0xEObNhG9+cBzzNyf5ixTcdu+Hvrb9/U1TM/6HMr+Dsnhp3fePMY9ncicLLANaR/xjadqJNuXzumHYevqM53Sxe+Z9/JyH2Hv9ee/3udjP3O/YmQqOcE/kRJUk46CRD4+SMS/x8RJ/AH9vxbqjn5nTVkM3gNf+Sem+AfiH26YC1fod2zCzVzZ7l1WUBD2S5NKN6hI5X1qj66zbqO0xwv3r5xWl85Q/5pw/jb0KOGzi4V3E84mMeCfSCt94HZG/TtiUrV+S/jN2F9dQs9/Nb2Ngn88/TlMTPcq1ZH183Tamvolwj8Hv0sT+t9FtOUHWM4xwCJfCTwJ1KTstJFgMDPB3n8H+RO4C/fp6nrTqjGdOD4zmlLyE37Wgr823TCXJvv9Oo4B3fl+7TKuutfcPmvTt60DvJavCcAbRt/26bY0Pkg5WCRkMs+kGH7wOwdOmluziLz2e708Ac/55u0t/M3ITCkf4/O+QcLOJ8T9mMzZaT486zJNlGftP8bRZsm93Mp9Hc7Ma8I/IlxpJT0EiDw8wc3/j+4rsBv/vitPnLdGpLvK9ulqbH03FhtME9bynzWkP4Tm+ZpwQFzWYB9XeaSw9WSGlW+9wtNnfGFfqgyo/srtWdBcv/Q8Ic89b7Oxyltkfq2oA1og7j3gZ2ndG7vRvuGrE7gv31JO2e0JfCHtgc9/KEecbcVx0bxHxthGLehcwyQyEcCfyI1KStdBAj8fCDH/YE8ISzwm2vuj1p37fPpzLbtkb+W73a5doTbz9ikgxX1skZ63m7UtTN77MsCZqzTd+euKfBNTnXVOs7X8sXfbuH+HnztfJBy8MrBPPtABuwDX/+sK7XmK1fNz2013KjUkS3mK1adwO/8xvsfrb8TzuVeoe+FX6tP4M+A/cODf4P43EntfhX6W5+YVwT+xDhSSnoJEPj5A9MhgiN/tFP7R7ut/s7HaVuXZ7n0bHfajXZjH2AfYB9gH3COARL5SOBPpCZlpYsAgZ/AT+BnH/DsPuB8kHLgx4Ef+wD7APsA+wD7QMfaB5xjgEQ+EvgTqUlZ6SJA4CfseTbs8Ye9Y/1hj9TezgdppPeYxv7BPsA+wD7APsA+kLn7gHMMkMhHAn8iNSkrXQQI/AR+Aj/7gGf3AeeDlAO6zD2go21pW/YB9gH2AfaBSPuAcwyQyEcCfyI1KStdBAj8hD3Phr1IH/5M61gHBc4HKe3esdqd9qa92QfYB9gH2AecY4BEPhL4E6lJWekikPTAXzR3CYGSkwrsA+wDrd4HzGeH88PnCAd+HPyzD7APsA+wD3ScfcB9DOAcCyTiMZWBv37+p7rapYcq7riTfxiE7ANmvzD7R7J+kh74D5UeafWBPh/oHecDnbamraPtA+azw/nhc4T9JNp+wnT2DfYB9gH2gczbB9zHAM6xQCIeUxX4TZgj6HOio6V9IFmhP+mB3/xyml9aeugy78OYP7C0aTL2AfNZEekPPZ8j7G/J2N8ok/2KfYB9gH3AO/tAtGOARIR9U0aqAj89+4T9lsK+ed/sJ8n4aZfAn4yKUyYCCCCAAAIIIIAAAgggEKtAqgJ/LGGPeTgpYPaBZPwQ+JOhSpkIIIAAAggggAACCCDgKQECP6Ha6ydWkvELQ+BPhiplIoAAAggggAACCCCAgKcECPwEfgK/p34lqQwCCCCAAAIIIIAAAgggkBgBAj+Bn8CfmN8lSkEAAQQQQAABBBBAAAEEPCVA4CfwE/g99StJZRBAAAEEEEAAAQQQQACBxAgQ+An8BP7E/C5RCgIIIIAAAggggAACCCDgKQECP4GfwO+pX0kqgwACCCCAAAIIIIAAAggkRhAyNAoAACAASURBVIDAT+An8Cfmd6ljlLL3fT2WnauVCd3abzXuof+lyT9GK9SngzP/pl917aZOvQpUGm02piOAAAIIIIAAAgggEEGg9IOnlfWbydoT4b3kTmrdcW4y6kLg90rgf0u+6kbpx/mqvsMrdfJGPZKx37fP1/J9Plidsrq5/nXXPT3/prytF+VLxla1R5nWNg2OPfCb+SOF9JByStQ36ynlRQv85+frj10eVt/laezWHm3DOhBAAAEEEEAAgUwT+LFAj2R1U/e3DzTdssoleq5LN3UaUNL0vbApSQn8aXKcS+BPQKj97RI1mn3q4lpds8L6XarbZyYcVN0/2uVfW3pe0inV/zba+gj80UYahP26JuRl+wV+d9j11ejw0mF6oMvDGrCmJiEb0vpCfDr2wbN6ZNKR1i9qlggJ6jGUlYgPQuuDvhUnGdq2ZSyFAAIIIIAAAggg4DUB69izmzp16adF1aGV2/P2Y3bHWgyBP3TJBL1Kk+NcAn+0AN6a6aPlu2r2myOqu9csN0G+OvO6Xr7R5nVP1R2WdKHEf0Kg5bKvvLNHt3VRN//S8rzRgnKmTE/Qb2RIMakJ/P4qWB9OT87SaUnVm/P1+4ceUGczEqDLA+r52iZVSCqd9JT9Adbzdc2c9Dfdf+8wq1f9/LyBumfwQm2b5B/i3vXPmrzvrLY4r7v01IDPqyRVaf1rf9Bd5qxnVnfd0/t97Za0coB7xEE39f08eh2s6lbu1Bt/tOuX9eCLGjHgOXXKssN3pLJClM2LVnwQvrl6hXIe96+r5zitr5TkP6sbGCmRqg/0JhvGBAQQQAABBBBAAIGkC1jHkv30Qo9ueqKwLLg63yYNuu8p9R3wVKCHv8Xj6kBHnD3MPm/tKtex5zvaaJ1QOKK8XqHHy52yntbkY8FVB56lyXEugT8xgbp2S30w4L+ySbf9O8KtVYMDJwBurxutijt+pxsbz+m2NaS7UbfPbdON+3N084J/AXNS4L39gd3IerJ7qiruuEvX5v6k23XWWAKp6ifV97lL11Zc9M97Ub6PN+hW3R7dyLBLAkIxEvMqpYFfa4apsz80Vx/ep/0Xa6wh/r5DU/RI1mN6Y6+9kVbov+9lfbDzuCqtM0j+EwHZ/668r8+qTnXa8uqj6pz97xpvvfZp26hH1emPc3T+WKF6/fp1bTHL+Wp0cucP1gkGU7IJ6u4e/uh18Gn9kAfV+Ykp2mvKqTurr0aZExHB3vbwspo0T8wfhNl6IGeFDtf4pLpj+uDpbN09ZJN96QM9/E1YmYAAAggggAACCHQIAf+x5LYFL6vzfSO13n9d7OnCZ3X3gBLtMp1k/g6h6Me0/mPoQOA3l5Nm6xcvL/Qfe27QwPu66bkF4SNwq7Ss74O6N2e9wgYX2PRpcpxL4E9M4L863R4hfWvp3+wQfny/Gkyv//Elqv5LiW75e/tr5p4y3bryjfyVKu5faF8KsHuqqu6Yqgaz5/hHAdwwvbGuHv6q0TuskwiNnzyjqn98wx5REDKv8xu/n8DvUDTzmNrAHzXAmg8fu9fd1N0K/IEPJntrrGmuXu7weQKvzXXvXZ/WGOtEQKhE8yHdXYc9GvPrsA8/88HW2sAfch8D9xlT58RB02v4qxe8rE6/Hq9dpupRvUK3i1cIIIAAAggggAACGSbghGqrRz9bLxTXSL49GtPDvv9T+LFxcOvdx7Thx9Xhx552r767Q8yUc3rmC+rcY7x2Rbv5lnVc7D62dT/3znEugT8xgb/CuY5/91xr+P6thX+R1evfuF91Hx+RGvfrxj/eKTvIB/dE65kV3JsP/MGefPeydrgPPzmQKUP5ne1wb3Ginqc28Lt6+Cu2z9LLvR9SlisUm2H25icQ3l1bHf6hFj5P8LVPF7YW6PkHu6vzvX/Qy/NLAzcKDA/80esQ+kFpVaMtgT/spEXTcsI/dMPuFUDgd+0BPEUAAQQQQAABBDqQgBP4TQAvfFadeuRpc3E/Zb203Op1dx8bRz+mDT+uDj/2bBr4fYcK1Kvr08o7FC3tt+7S1ZCbU7uPp9vhOJfAn6DAf4f/Ov6LF3Wr0b72vsoaml+tWxfqpcNzdfUOJ/BHujY/tsDf8F7T+hL4W/+Zl8LA7xp2L/+Hyzvf+YfshwbsYHgPbqD7Q81MDZ8n/LVkgv949eoSvFQgNPA3V4dvNCR8eJP7AyrC5QHBmvqfuT6kQ94LKSf8Q1c6P/MFdeo5RQfNQu3wQRhSN14ggAACCCCAAAIIeEPAfSxZvVwvdHlQd98XPK4NHhs3d0wbfswcfuwZFvh9pcp7ort6TQp2mEXEcNfNPYPHjnMJ/E0DtNOz3NpH+zp+SVc36bq5jt7p9ZfUOPdZmfJqFtr3mrhVMkJX7rhTV56fpZsf/E0VYUP6r68zF4pUyzf8LlU/3Uc143ZZQ/pv75ul6n+8U1U939HNoresMgn87l+w2J6nJvCbu/R/8r/1iy4Pa8hmc7bQHjL/zCdV1nX2hz/pp3uzuumvy+0ziU3Du//DKpYh/Wd+0I5T/nsDlK/QX+97UEM22zglOdm6u+8q6+aAdXXfWsP2I9fBp5UDsgPX8PtqflLxAHM3VGeIkhRalv9GA+42iPmD8FH9x+KfVG02ve6A3uzl+voVAr9blOcIIIAAAggggEDHEQg7ljQ3v+7s7903CMHA35rj6uYCv0+7xj2mzn+cE7j/VVTssLoF5msS+FN7nEvgT1zgd67jt2/OZ8p1bsbn6tH/xz6q2+G6aV/FT7r5Ss8mgb/iLwvVWOUfQXJ6ha7d8TvVrnDdtO/6OTW896Lrpn1mD3OtJ4Nu3Bf43Ungk/YL/K6h+vbd8gfpw+3mLvr2T+mc/9AvzJ30u/5Wz8/cqZWDe6pz1tN6bYz/Lv3W8sGAHfxQ8y9vblTiGjIfOEmwd0bEu/+bpXyH5lhD/TtlZeuu4V8rWh2su5FWbtKInt1lzft4ropLV6hvl2B9wsvyb1bwIdYPwl+/roVLc9Xz3mzrWwV+9Zc5Oujf/+nhD3LyDAEEEEAAAQQQ6FAC0Y4l/QjuY+PmjmkDx8jWcs0EfnPj65Djd3Ndvn2/gCbu0eoWHvhTfJxL4E9c4G/tiADmj82+ye9WAia0T+BPQEUpAgEEEEAAAQQQQAABBBBoqwCBP7bQSThPnVNb9+3mliPwN6fDewgggAACCCCAAAIIIJARAgT+1AVZTiLEZp+MXzQCfzJUKRMBBBBAAAEEEEAAAQQ8JUDgjy10Es5T55SMXxgCfzJUKRMBBBBAAAEEEEAAAQQ8JUDgT12Q5SRCbPbJ+IUh8CdDlTIRQAABBBBAAAEEEEDAUwIE/thCJ+E8dU7J+IUh8CdDlTIRQAABBBBAAAEEEEDAUwIE/tQFWU4ixGafjF8YAn8yVCkTAQQQQAABBBBAAAEEPCWQqsB/tUsPEXhjC7wd2cnsJ8n4IfAnQ5UyEUAAAQQQQAABBBBAwFMCqQr89fM/JfDfQeBv6WSG2U+S8UPgT4YqZSKAAAIIIIAAAggggICnBFIV+A2CCXP09BP6I4V+s18kK+ybfY/A76mPISqDAAIIIIAAAggggAACyRBIZeBPxvZQJgKxCBD4Y1FiHgQQQAABBBBAAAEEEEhrAQJ/WjcflW+jAIG/jXAshgACCCCAAAIIIIAAAukjQOBPn7aipokTIPAnzpKSEEAAAQQQQAABBBBAwKMCBH6PNgzVSqoAgT+pvBSOAAIIIIAAAggggAACXhAg8HuhFahDewsQ+NtbnPUhgAACCCCAAAIIIIBAuwsQ+NudnBV6QIDA74FGoAoIIIAAAggggAACCCCQXAECf3J9Kd2bAgR+b7YLtUIAAQQQQAABBBBAAIEEChD4E4hJUWkjQOBPm6aioggggAACCCCAAAIIINBWAQJ/W+VYLp0FCPzp3HrUHQEEEEAAAQQQQAABBGISIPDHxMRMGSZA4M+wBmVzEEAAAQQQQAABBBBAoKkAgb+pCVMyX4DAn/ltzBYigAACHhOoUUnOw8p6eZWqfyzQI1nd1CnrKeX96LFqUh0EEEAAgYwSIPBnVHOyMTEKEPhjhGI2BBBAIKMFAsHbhG/zL1t3dX9GOUuPqS7hG+4K/KZsa90JDvwXS1R9f45qLya88hSIAAIIIJCmAgT+NG04qh2XAIE/Lj4WRgABBDJEwArdg7UysDl1OvN1gf6Yna1eHxwJTI36pG6DBt7nXj7qnE3fSHDgv/XTx7ryX+9UxR13quK/PqnrP91suk6mIIAAAgh0OAECf4drcjZYEoGf3QABBBBAwN/L3jSwVxf3U+f7Rmq9zyBVaf1bL+pXXc0IgO761V/m6KCZHj46oFeBSiWVFg/SY9nd7REDXX+r52eWysy+coB/FMGAEls+LPBXbBinnvdmW8tlZT+jd/fG3kCNO95U1d/dqcr73ld97T5du++fVfF396tmx43YC2FOBBBAAIGMFCDwZ2SzslEtCBD4WwDibQQQQKBDCDTp4fdv9bFC9fJfX3965gvqnD1Yy8p9ku+iZr+YrXtf+9aeMcLyp/d/p5+r7AsCKpbn6O4u/bSo2p7dCv0RA/8JTX7iUQ3fapbzqfrUd9p3JrYW8K3op8r/9A+qfHKhfE6n/s1zuv7kv6riP92l6hWXYyuIuRBAAAEEMlKAwJ+RzcpGtSBA4G8BiLcRQACBDiEQIbDb212ivlbgr9G8F7spe9yeAMf5mS+oU88pOmimRF3eP7v1fvA6/eiB/4I+/nN39Rq3WWdivnnATdWPf1SVd/yDqvputkYRBCppPbmsG31/qYo7/llXxu/TrdA3eYUAAggg0EEECPwdpKHZzBABAn8IBy8QQACBDioQLbAHeviPKK+Xc0M/96P/MoAmy/t0Yvk4/f6hB9TZugmgWSaWwC/5yrcr7y+/VVaXB9Sz32L7soGozRJrmG/ppEDUFfAGAggggECGCBD4M6Qh2YxWCRD4W8XFzAgggECGCjQJ7PZ2VnzykjrdN1obZffw95hors6P8BO+vK9Efbs8qL8uPK3qwHX+sQV+p3QT/Mc8ka3ubx9wJkV4vKmbH+aoesm5GHrub8q3JFfVH/4cw7wRVsUkBBBAAIG0FiDwp3XzUfk2ChD42wjHYggggEBGCYQHdpm79Ofp8a7ZenJmmbWp1jX8PV7T52X2WHtfzSXtP3rWZvCPBBh/yFzfX6e6iiV6LutRvbrdJ9Wd1VfjnlbnrN4af8iePfqQ/rPat9N/ksB3UcV9H9Tdw7/JKGo2BgEEEEAgNQIE/tS4s9bUChD4U+vP2hFAAAFvCFiB3z1UP1t3PfSiRiw/5bomvkrbJv1N9wfuoN9bv/9ov7/+VVr/2h90V5du6tT1f2nasRptHPs7ZWV1U+d7/6ARG3aq4Mnu6tRlmMy9+aMH/v364JnH7XKysnXX4+O0vtIbRNQCAQQQQCC9BQj86d1+1L5tAgT+trmxFAIIIIAAAggggAACCKSRAIE/jRqLqiZMgMCfMEoKQgABBBBAAAEEEEAAAa8KEPi92jLUK5kCBP5k6lI2AggggAACCCCAAAIIeEKAwO+JZqAS7SxA4G9ncFaHAAIIIIAAAggggAAC7S9A4G9/c9aYegECf+rbgBoggAACCCCAAAIIIIBAkgUI/EkGpnhPChD4PdksVAoBBBBAAAEEEEAAAQQSKUDgT6QmZaWLAIE/XVqKeiKAAAIIIIAAAggggECbBQj8baZjwTQWIPCnceNRdQQQQAABBBBAAAEEEIhNgMAfmxNzZZYAgT+z2pOtQQABBBBAAAEEEEAAgQgCBP4IKEzKeAECf8Y3MRuIAAIIIIAAAggggAACBH72gY4oQODviK3ONiOAAAIIIIAAAggg0MEECPwdrMHZXEuAwM+OgAACCCCAAAIIIIAAAhkvQODP+CZmAyMIEPgjoDAJAQQQQAABBBBAAAEEMkuAwJ9Z7cnWxCZA4I/NibkQQAABBBBAAAEEEEAgjQUI/GnceFS9zQIE/jbTsSACCCCAAAIIIIAAAgikiwCBP11ainomUiAk8JtfAv5hwD7APsA+wD7APsA+wD7APsA+wD7APsA+wD6Q/vtASOBP5JkEykIAAQQQQAABBBBAAAEEEEAAgdQJEPhTZ8+aEUAAAQQQQAABBBBAAAEEEEiaAIE/abQUjAACCCCAAAIIIIAAAggggEDqBAj8qbNnzQgggAACCCCAAAIIIIAAAggkTYDAnzRaCkYAAQQQQAABBBBAAAEEEEAgdQIE/tTZs2YEEEAAAQQQQAABBBBAAAEEkiZA4E8aLQUjgAACCCCAAAIIIIAAAgggkDoBAn/q7FkzAggggAACCCCAAAIIIIAAAkkTIPAnjZaCEUAAAQQQQAABBBBAAAEEEEidAIE/dfasGQEEEEAAAQQQQAABBBBAAIGkCRD4k0ZLwQgggAACCCCAAAIIIIAAAgikToDAnzp71owAAggggAACCCCAAAIIIIBA0gQI/EmjpWAEEEAAAQQQQAABBBBAAAEEUidA4E+dPWtGAAEEEEAAAQQQQAABBBBAIGkCBP6k0VIwAggggAACCCCAAAIIIIAAAqkTIPCnzp41I4AAAggggAACCCCAAAIIIJA0AQJ/0mgpGAEEEEAAAQQQQAABBBBAAIHUCRD4U2fPmhFAAAEEEEAAAQQQQAABBBBImgCBP2m0FIwAAggggAACCCCAAAIIIIBA6gQI/KmzZ80IIIAAAggggAACCCCAAAIIJE2AwJ80WgpGAAEEEEAAAQQQQAABBBBIJ4E9+37QzKIFyh39jvoOHK4+/Ycm5J8py5RpyjbraK8fAn97SbMeBBBAAAEEEEAAAQQQaLXArSvndfNUWYv/fFdutrpsFkDAETh+4pQmvPdhQsJ9LCcJzLrMOpP9Q+BPtjDlI4AAAggggAACCCCAQBsFjqjmX+9UxR0x/PvX8apv41pYzEsCN1V9uaZd23L33gOBoD9i1Ftas36jzp67oMbGRuufeW6mmfdiCfOtmcesO5k/BP5k6lI2AggggAACCCCAAAIIxCFwSDX/dKcq/tufdG3WAl2P+C9PV//bnar4pzfbNSTGsVEs2kTgps5sWqA3Xn1VfQND6IdrwKuTNHPTuaS2q+lldwL63AVLrYDfpHr+CeYEgJnHmT9Rj8ns6SfwR2tNpiOAAAIIIIAAAggggECKBfyBv9kwH8s8Kd4MVh9doKFc66aMcQX98Gvmh+uVKZt1riF6EfG84wzjN0E+1p9Eh35Th2T9EPiTJZvKchvrdPbAVi2dO0/vT51t/Zs6d7XWHbigG42prBjrRgABBBBAAAEEEECgNQKxhPlY5om8zpUDuqlTlutflwd0/18KtK0y8vxNp9aoJOdhdX6iUKVN30yTKfv1bu+HlPN5Kqpbqx1TRwV7zIdM1twdJ3XpcoV+3rFUbw4Jhv+cqbt1PcFVNDfPM730Zqi+6b2P9cfMm+jh/cm6kR+BP9ZWTZP5bp7eoTkfTdeE/MKI/yZ+9Kk2nvalydZQzYQI3LypW+ZfQgqjEAQQQAABBBBAoD0FYgnzscwTuc5W4B9QEnjTV7NXb/bqps4DShTbEXMmBP4S9c3qpr6pCPxHl2poYAj/q5rw9RWp4YYqL19RbYPUcHChXgm8P05zjwaaKiFPzB3zTeA31+e39scsk6gh/aYcU5dk/BD4w1V9F7X7k1z1vDdbnbKeUt6PYTOsGabO7rOA1vMXNP182Hzul5U7lfeXx3VXF3P2sLvu6Z2rZSedj5A9GvNr11nFkLKf1uRj7oKaf95YtlXTJttBP2/mKq3bfUoXqq6qquqSft69VYtm+k8ETF6gdWWxn8Eyay2d9FTo2U9Tz64Pqccz41R8tK75iqX9uxe0evwIPf/4A+o16Ugrt8b+ADVnjh8JWzZwRrlXgf+McKzr8enEcmcf7aZOrj9STSt3XNf+339R5T/8s66M30fobwrEFAQQQACB9hBouKJ9q6Zr9LDg9bn9Bo/V6CX+A53TK5XrP6ifsr11FTpe3PQmWrlLy1pXCHN7WCCWMB/LPJE3MTzwm7msaYHjs8jLZdbU1AX+w3NfDwvNuRqSa/f4v7nmqqRdmhII/EP1ytzWHos331Lma/JM2DY35Wvtj1kmkYHf1CUZPwR+t+re962gn9W1uz/cNg38TvCN+QyYb4/G9DCB/im9ua9OvvKFes4E/+xhKql2rzz43Ld5tO7N6qbOLy5RRXBy889ulKq4wIT96ZpWckI1Eee+riMlCzTR9P4XfKH9NyLOFHGis92dsgZrpTVHnc58PV69zLZ0eVp5h5wTGBEXT9HEI8rr1U2d4v7A9pcTEtp9WjnAnBRyPKJtYmsCf6T1RCj39Cw9YZ0YekrjY3C/9dPHuvJf/rsq//5/EvojcDIJAQQQQCDJAg2ntPSNXPUd+bG+PubcebtRtVXndOjny66V2wf2rQ383xQM1YQNta5yeJpZArGE+VjmiawSHvjrytbqlR7ddO/wb4I9/JWbNO6Z3yrLHH91eUA9B6/SCf+hb9MOHJ8OzvybftXV7tDLyu6tcduC6/YdWqyXH3/A7kDs+ls9P2lnM8f79lD7AR9vV95f7PV3/vUwrSy/qC2T/Ovo0lN/muMOwVVa/9aL/vVn667Hgx2NweP5AcpfOk6/f7C7v1c/NPD7DhWoV5eH1ffzKn/Fo5cpXdDSgY/ryUkbtOw1/3q7PKAnPygN+gU3P+xZpVa9HRyyHwzPrmv2XScDrfffXif3p0ZYga1+2XfgcCu0t2Y4v7MSs0ywzpG2o3XTTF2S8UPgd6vuXaYPvz6rus8HRw389i910xMB7mLcz6uL+9m/0D2n6KD1Ro3mvWh/ADw5M9KZpDJN/6MJkg9q0IbYQ/TlLYusIfwTP9nZwi9BlTZ/Yvf0z9zi/BK7axz5efADwh1wfVo/5EHb6slZOh150ZRNrdv3nh4xH8xJCPy+8hX6632mHd0ekTY1CYHf2T8D+1Sk9YZOI/SHevAKAQQQQKD9BMpX56vvwAKti9LREaxJWwJ/mRaPHqlp+4Kl8CzTBGIJ87HME9klENitzhQzgvV3erlwuy4EDsPtDpl7B6zQmTrJV7Ndr/bopu5vB79KzTpOdo43z8/Rk1kvaWa5KcCn6lPfad8Z/7qrS9T3vmz1mrhX1T6prmyunuuSrReKI3fVSfZx5L1/LtBXZWblJzXlyW7q/Ov/UJ7JLPLp2AfPqtOvx2uXfxVWXbIHq9iav0ZbRj2mTj3ytMfZfOs48im9svqgymucjXQF/ur1GpCdrV6TgoG9+TJtn84PD9PsnXadLnzysjpnvax5Lf7Om9/fCKE4d6nMKYz6sm9UMNIO5IFgPXqlEvnN9QR+Z8foaI9OoGoypL9U43uakJetztbw/Gzd9dDflLc9GJxPz/l3ZWVl667n51sBeNe4R+1A7HwIOMOEzIdKhKHYvu/Gq7t5z/2L2aL/JW342PTuz9Snh4ND9RvLdmtR0Wy9X7RK211D+BsPf6l808v/8TZFOuUQaXWRA790fuYL/pMj/ssaqn/UvNdeVI9s/yiJLg+oW+9x+tL60PMPkfJ/oD4yaae2Tfqb7r93mDVqYHfRCD3f+yFlDVhoTbfOjHb9rXI+v6gLWwv0/IOmzGz94vk5Ouj/fLLOkppl/GUGzqIG2tA+uWLdjMXvffqrAr3c+zf+Syy6ySzzfOEBBS5M8J3SssF/sN+3btwyTM/5L7uwhuX/WGCfSPCv0yrb1b6hfm0M/KMWBi8DMWd/Z/o/dCNsV/ilAqHrD74i9ActeIYAAggg0F4C/h6893eo5RtstyXw/6BpgyZo6dn22h7W0/4CsYT5WOaJXPNgD3+dziwdrHvDR64eK1SvrN4afyi4/MGJvdXpiUI5V96GBH5fifp2eVgvFH5nnSAILiXJujQ4R8ucnC2flvXtps4560NmC75wBXH/xGB9/ROsY0OnA+qEJj/RTT0mum4feGiKemS5LhMOmd9Zk7OeKq0c8LAeecd1XKyWyrQDf8jxqHWsHFsH6Y6pYYHeDN9/c5E2bdmuojebngzoO3W3U+mEPDKkPyGMaVhIIFSF76h1qqzyx0LfRW0Z5b+u/b6RWu//xQ0P/IGzhq5AGJjWJPBXad6Lpnc/W0/ObM21Z4e0yLpJ30p9H8j7ZVpd6LpxX+FGnXSaovEHLbTm/1x7nWktPEYL/Aq3+nGmXu43S1+dqpFPPh2caBt1/vN8Obc5cLb/7uyH/fdDsD+knOmdni2yPiDrlg6wTyZ0fUkfldbI59ukQVaverYGrDEVtj+AOmU9qynHfeaUqw6vztPHzrApp24ue7NUydjnNGLpQVWapqxc5e+pf1gj/Mvtefsx/0ma97TXOpO7WcPdgd8UEgj9zgdsNMBg4A+5A2zEkwXBIf3Zg1bbZ5EPTfGfXAjWL2Aetl3RauCefuunabryn/+7Kv8Phve7XXiOAAIIIJAsAbsHL7Zr6tsQ+K9v1oT+uRowyA4N/Qa/q4+2lsdwciFZ20u5iReIJczHMk/kmlnHn4Fjcv+xuPsYa+9EuzPOfexmnrvmCQn8kiq2z7KH7Zvh//0WWMeTZu3Xi/v5O8pcHVKmrMD6w+voBPHg9ND6SvZxoXM8ul/jrEuJw8p3d2I2E/gfeeJpZXXJ1t19V7kuM2ipzPgC//WNHzX9Or6ctzWhsEC5OeGBf7je3ZjYy3e4aV9w3+pYz5yg6P7liCQQCH3hJwaCMwdCrOtDITAt7Jc70LvvOoEQLKm5Z07gdwf4UhX7b+Bn3bF/8hfaHygi0vyBNyM+iTnwhy/tWHYZJuf+p872Z//tU+0/VxXoWXemBz70nGUDw+aDgdi+h4IT+LP1QM5C7bBOMrgq4Czvsne9638aLLPXByckBV8Hz1RGmBZoe+cDtmnJ9pRg4A+WZ78T2N5A/SKsJ1J9YtquSPW5qfrxPVX59/+kdxahJQAAIABJREFUiv/ypK7/dDPSTExDAAEEEEAggQKRAr8d7O0huu9oceCawDYE/oYbqq33V7fhhk6s/Ug5/RN/J+8EglBUqwXCwnztad1441lV3dldV99Yo5tW/gubpxXrsI7H3Mfkp+foyS6uzjerhz/6sb5ZVXjgd1ZfV7ZZr/bqpruHf2NPsnr4Wzp2dJY2j60N/Paxcfgxp7vE0BMEzjv2erKeLNTB42b7H9RflzsjmFsq0z5+DVlnK3r4pTItHRvayz904XGrYkcWvhFyjXzfsV8kdDi/WQlfy+fsAx3t0QlULQX+78Yr2zrb5xomE2YV+5B+p3c/9JqgsOKivDyvNTNMb/58rXO60dWoMxsXKc/qyZ+uGRvPK9D5f36rCs30GZvlXFIUpeDA5GiBPzik33+dTt0xFZsh/fcHh9nbPdvBDzcn6IZ8MES61CHQDs6ywUDs3DSxYsM4/zcq2GcyzTVN050b2TnLBwK12RyfLmydpZd7P6pu1jcxBM+A2vWJFNCD6w3UOe0C/03d/PBJVf7nfyHsB/ZqniCAAAIIJF/AHtIfcRiudTOuOAN/kw1ow0mDJmUwwVsC/jD/Pwbq2ognVfl3d6riDte/v/t/dGVEgar/x52q+Kc35Zz/iXUbmgR+J8B3eVnzKk0pRzT5iWw9MmpzYIh+XdVxHT4ZvO4+JPBXn9LhY/4OLd9FFfd9MBj4revjH9RzH/9kXcNvXeN/8aCORD0gb23gl0o/eFqde71hX/Nvql9XpZ9LTylwOb11fOwcWztKoes5PfMFdb4vR8us7W+pzHgDv6TqXZoyxNWbP2Si8gunaXTItI+07nwgzTgVT8jjhPc+tE4szF2wNObyzLyB+wq4vkWgrdNMHZL1w037Isk6QbHZwG9f42KF2Waut4/1pn2B3v2sZ/Vh4Ex3pMpFnla6cqZ1076CktPBYC+p8UaNrt5w/3I06ljJHGve/JU/Ry4swtTIgT940z5nyP7G4fZN/O7uu0QnzY1AApbBD5ZEBn67qj5Vl67VG39+2B4m5ZylddbtDvzWjVRMyH9Kb35rPozDw3z4a7OGCNPaLfA7943oJnsEgjN0K3QoWYQmc00i7LsweIoAAggg0M4C5avy1GfQNG0OJA5/BZIQ+BtKizWUHv52buFkr84f+J2QbwL+wOWqv/SjageGnQBIUOCX/1u27s1ZbwflkK/YztZd3Z/RK18G74QVEvjPr9MrgftLma/jHqf1/uBspHwnVynH/X7PF/VB1GtsQ4O4Wb7JCYomAb7Kf48sc5lwN3W+9zd6bNg669La4PG8fSwc/Prx8PXYNxEPDu2PXqZznBzoFDOVbFUPv73/NFQe0uKJY5oO7+8/XK9MXKl9le48Yy+TqP+PnzgVCO8myDd3x37zXqLDvjlJYOqQrB8CfyRZJyg2Cfw+VV88rh2fFujlnvZN6UJ6lCWFX8PvfGA0/7V8wd79uweUBM/ARapbtGlOr33+fK38+Xq0uVTz83q7dz9kNEDU2QNvBD8gnOBepzOfj7SvaXLd3KQkx/5wyR61Uz4Tp6c8579WKXiDksQF/hNa+sFC7TB3ITU99x+/ZH+wOTc+cUZgdMnRsjqfLuwr1XlrWJb5kHtJsyslX/laDfRfn+/c4GTra/4TB72mWDcHrCtbHZgn8GFWvUTPWaM77K/Gq9t3QK7bowTcnKFY5gM3sKz/XccheA1Y8MRC9qC11t1hA9804N4Xnf3TfSLDtcbQp4T9UA9eIYAAAgi0u0DDKS0eOzzsa/luqvpAsUb0b6aH/4fFemVgrt5xp6VIlW+4ocrLJ7V71Wzl5gzXsJn7ZL69m59METira/f9gyqcoB9+CXetK/j/6/hW9/BnilKmbEd99Unt3rLdumnfpi0H9HN1+1yCunvvgUDoHzHqLa1Zv1Fnz12wwr8J+ea5mWbea2svfrTlzLqT+UPgd+kGApgV5IJDvU1YN2fA7NDbXffc/6h6PDNCeZ/uc31lh11Qk8BvJoecFTRn+oLfh2kttTfPfzOQx/RG1DN8ropGfNqoM18t0EQzVH9ykeZ8dVQVgTuAmjxcpcNffaop1nX90zXtK9cQ/4jlhU4MBn6XS9eH9Fi/WdrivwO/WcJ3aI7/bvrdlPWg+QaDnfr4+Z72zfmeKNTMAa7ljbMrtAb8w3voo17Db773s7fu8X/Pqfle1Pufmeg6i1ql9a89E3g/649zdExmWvAO/OZ7VPdteEcPWWX4bwboK9V0/3eddur6W/3+tVXa98nL1smEYGi3v2P1fv9lAZ3vHaW1oWT+V/YZ01YF/i4v64PVBXr+Ifs7Wjvf+wflLD8V/C7TVgX+y6od8LKqnxvINfsR24eJCCCAAALtIlB/Tl8XTdKIwbn+g+XhGjDsXU1YsFknAv0UYcPxYwj83xQMVZ+Br2rQ8Lf0xrSV2nbyBjfsa5cGbeeV3LyhxpZyXyzztHO1WV16CZhedmd4f7RwnsjpZl3J7Nl39An8jkRGPF7XkTXOdfvmmv7pyv9ott7/aKZ9IsC5nn/NCQWvOsqIDWcjEEAAAQQQQAABBBBAAIG4BcyN/Mzd+81X9vUdGHpDwXgCvynLlGnKNutorx8Cf3tJt+N6bpbv12dzP7Gu07fu0G8F/UJ9OHeddrl649uxSqwKAQQQQAABBBBAAAEEEECgnQUI/O0M3p6rc4d985wfBBBAAAEEEEAAAQQQQACBjiNA4M/gtibwZ3DjsmkIIIAAAggggAACCCCAQAsCBP4WgNL5bQJ/OrcedUcAAQQQQAABBBBAAAEE4hMg8Mfn5+mlCfyebh4qhwACCCCAAAIIIIAAAggkVYDAn1Te1BZO4E+tP2tHAAEEEEAAAQQQQAABBFIpQOBPpX6S103gTzIwxSOAAAIIIIAAAggggAACHhYg8Hu4ceKtGoE/XkGWRwABBBBAAAEEEEAAAQTSV4DAn75t12LNCfwtEjEDAggggAACCCCAAAIIIJCxAgT+lprWV6VDP07R0OJf6v7FU3Q0bP69mx5S91ldXf+e0ozLYTM5L69/q6mrHlEPM3/RL/WntZ/pdKN587hmLHGXEXz+7I7jztKtfiTwt5qMBRBAAAEEEEAAAQQQQACBjBEg8LfQlCf35uqtXZv15abH1L1J4K/Wpyvv0as/tVCI9fYZzVt2j3qvX69LJuT79qtgyT16dP0W+SIt3rhbExc9q3lXIr0Z2zQCf2xOzIUAAggggAACCCCAAAIIZKIAgT/GVj26/d8iBP7DKljUTI++u+yLU/T0rGc1r9o18afBur9osL5yTXKeln3/rB6LdjLAmamFRwJ/C0C8jQACCCCAAAIIIIAAAghksACBP8bGjRz4v9DwWd3Uo8gMwb9HjxQP0xeVTn+93aPf47MFKjfrKM1R91k5WuNen3US4N809aJ7oqS6LzT8k/h6902JBP4wV14igAACCCCAAAIIIIAAAh1IgMAfY2NHDPyNNbrmz/e++lNaWXK/axRAWwO/T3s3/Ua9N+2OPNQ/xvqa2Qj8rcBiVgQQQAABBBBAAAEEEEAgwwQI/DE2aMTAH75spF58Z55I70Xq4b9SpJeKXtKn150F2/5I4G+7HUsigAACCCCAAAIIIIAAAukuQOCPsQVjCfxlu5529fCHFRzTNfzVWlPyq4T07pu1E/jD2oCXCCCAAAIIIIAAAggggEAHEiDwx9jYUQN/Y40uXd6lxV89o8eKeujV0kp/iWFD+tXyXfp9Z95S7wT17ptKEPhjbFxmQwABBBBAAAEEEEAAAQQyUIDA32yjmpvymRvyhf+zb75nnQQo+qUem/97Ddg8X/trnBv2mULDA7+k699q6qpH1MOUV/RL/WntZzptvqLP+vGfENiy35kQ9yOBP25CCkAAAQQQQAABBBBAAAEE0laAwJ+2TddyxQn8LRsxBwIIIIAAAggggAACCCCQqQIE/kxtWYb0Z3DLsmkIIIAAAggggAACCCCAQMsCBP6WjdJ2Dnr407bpqDgCCCCAAAIIIIAAAgggELcAgT9uQu8WQOD3bttQMwQQQAABBBBAAAEEEEAg2QIE/mQLp7B8An8K8Vk1AggggAACCCCAAAIIIJBiAQJ/ihsgmasn8CdTl7IRQAABBBBAAAEEEEAAAW8LEPi93T5x1Y7AHxcfCyOAAAIIIIAAAggggAACaS1A4E/r5mu+8gT+5n14FwEEEEAAAQQQQAABBBDIZAECfwa3LoE/gxuXTUMAAQQQQAABBBBAAAEEWhAg8LcAlM5vE/jTufWoOwIIIIAAAggggAACCCAQnwCBPz4/Ty9N4Pd081A5BBBAAAEEEEAAAQQQQCCpAgT+pPKmtnACf2r9WTsCCCCAAAIIIIAAAgggkEoBAn8q9ZO8bgJ/koEpHgEEEEAAAQQQQAABBBDwsACB38ONE2/VCPzxCrI8AggggAACCCCAAAIIIJC+AgT+9G27FmtO4G+RiBkQQAABBBBAAAEEEEAAgYwVIPBnbNNKBP4Mblw2DQEEEEAAAQQQQAABBBBoQYDA3wJQOr9N4E/n1qPuCCCAAAIIIIAAAggggEB8AgT++Pw8vTSB39PNQ+UQQAABBBBAAAEEEEAAgaQKEPiTypvawgn8qfVn7QgggAACCCCAAAIIIIBAKgUI/KnUT/K6CfxJBqZ4BBBAAAEEEEAAAQQQQMDDAgR+DzdOvFUj8McryPIIIIAAAggggAACCCCAQPoKEPjTt+1arDmBv0UiZkAAAQQQQAABBBBAAAEEMlaAwJ+xTcvX8mVw07JpCCCAAAIIIIAAAggggECLAgT+FonSdwZ6+NO37ag5AggggAACCCCAAAIIIBCvAIE/XkEPL0/g93DjUDUEEEAAAQQQQAABBBBAIMkCBP4kA6ey+EQG/kOlR1Q0d4nCy+xor42BseAHAQQQQAABBBBAAAEEEPC6AIHf6y0UR/3Cw3hbizIBN7ysjv6a0N/WvYnlEEAAAQQQQAABBBBAoL0ECPztJZ2C9YSH8rZWgZ79wiYnPIwJPwgggAACCCCAAAIIIICAlwUI/F5unTjrlqjAH14Or+0TAHE2D4sjgAACCCCAAAIIIIAAAkkVIPAnlTe1hYcH87bWJrwcXhP427ovsRwCCCCAAAIIIIAAAgi0nwCBv/2sw9ZUp/3LPlZe8QHdCHsnUS/Dg3lbyw0vh9cE/rbuSyyHAAIIIIAAAggggAAC7SdA4I9g3XijQj/vWKeiwumasPRQ6ByNFfp+xSJNnmKHvryCRVr07Xk1hs4Vw6sMC/zFO3Skol63Im35rXpdPrpDC/Jts/ATBvsOHG5yjXz4PF58HWlTmYYAAggggAACCCCAAAIIeEWAwB+hJQ5uWKV1u09p0+LCJoH/5Jo5mjBzo47fMBHfp4pdK5WfX6zNVyIUlOJJ4SG5rdUJL6fJ6xm7dMYn6ZZPdfX1Ef75rBMBvrJdmhoh9BP429oyLIcAAggggAACCCCAAAIIRBcg8Ee30d6lTQP//mXTNWHe96pxlju/VYX5C7Sh3Ew4ri+mFWvdwR+0dNZMTcyfrinLDqmifL//daHyZm/TmUbZZZvw64wgOPq1PpyzVQf2lGja+9M1IX+6ppb8HNdw//Bg7lS5tY/h5YS//uRAlVVk+e55UXrq5+m7i2aWKu1b0LSXn8Df2hZhfgQQQAABBBBAAAEEEECgZQECfzNGkQJ/Y9lWTZs8XVPmb9Xh8nPatqhIH37uBPNDWpQ/XR8u26+zNxrVeHWX5rhe69r3mpM/U8t/tFcaUv7+zzVhcpEW7LggM3jg5sHVys9fph1xXOAfHsyb2dRm3wovJ/z16qO11vLRA3+hdlonRGp1ZA2Bv1ls3kQAAQQQQAABBBBAAAEEEiRA4G8GMiSQO/M1Vuvwlws1uWC2ppie+Kmf6qsj1f5r+E3gn691552ZzetCLdof+XVI+Sbwz9yqc86s1sgBd1nOG7E/hgfz2JcMnTO8nPDXTuC/fvTrKD38X+vIdVNmKwP/mhOyFnNV53bDTVWfO6DPZvhPHESYx5498rqsus/4VCXfndDZKzdU57slXT+h1dalBvP02e5yVZtp1s8t+WrK9d3nkUcu+GfiAQEEEEAAAQQQQAABBBDwpACBv5lmCQnk1nzXtXPRdE1eesg/pN+nCzuWa3L+x1r+o7mmv2MH/tpjm5IU+OtVdb5c585X6bo/i9ed2GqvKxD4nXnMfObfKX27vOloggnF3+vMjdvS7UbV11ar3Mx7fK+WmMDvlHX7pq5eLNflWntlt8/vibhdzew6vIUAAggggAACCCCAAAIIpFyAwN9MEzQN/OE99mbhcq2bWajCr8yY9Y4d+FW+L2IwnpC/Txcs58i97lGv4XcCuC5pp/9mf85ogsC6AvNUaP+KEi21/n2uOc4IAP9yzqiETdbdBaUrZ07qcq25weA1XTi4RTPNfJvOqN7Us6rU/kaBdSdlLlaIdrPBZnYd3kIAAQQQQAABBBBAAAEEUi5A4G+mCZoG/jKtLizU5EXf64K5K70adePEZk2bTA+/xXjxQMS78E+YcUDWJfxtHtLv9N47Pfy3deXwmrAefndDRj6xMCHfubTA+UYB+9sDTDue2WZGA6zUzvM3dVvS7YY63bh5W7p2QiVRTh6418hzBBBAAAEEEEAAAQQQQMBrAgT+8Baxrp2PMBTcf31949UftXruJ8qfbM+TV7BIS/dUcA2/cQxcCx/mF+iFjxzEW+7hdzdSnc7u/DJ4YiFQdo1O7vlB31v/dqskwrcBTMjfpTMNdlkXvjd1dL49QLLuPzBjk/aVX1dd+Q9atnitth69KnNex1e+z+7xDxst4K4VzxFAAAEEEEAAAQQQQAABrwkQ+L3WIgmsjzOM3Xlsa9HO8tEeA8Psb1erdL0zrD74uOanaqvXvO037TND+hdp7bHrdjm+c9ri9LoHAn9w2H+0ek7I36Afr9kKlw8sCwn8NUc2aJV9Z0HZ75kTAs6lCJHLbqsnyyGAAAIIIIAAAggggAAC7SFA4G8P5RStIzz4trUa4eWEvw4E/hZX0NYefidwr9HBq2bAvavXPRD4nWH/zk37ylW6dUmTewosP+w/+eC7pvKLNaq3xu9X6+DKQi05eNU+oXDrhi6fL1d5tT28X3WntS6sd98Y8IMAAggggAACCCCAAAIIeFmAwO/l1omzbuHBvK3FhZcT/nrJ4Wqr6IaLh7RqRYlW7b1kDYWX75J2l5RoackhlVtD6at1MMKd81se0u8E/kJNKD7gL8unC9+vDN5ZP8LG2cP2wy4vyF+pb05Uq85/t/9bdZU6smWl/8TASm08WqkbDfZJBXMn/xtXzvK1fBFsmYQAAggggAACCCCAAALeFyDwe7+N2lzD8GDe1oLCy2nyuviwLt+W6s/stO52P3XdSV03K6sr08bZhZowe6dO10u3r/6k5RF6yqMG/gjzNll3CudpqyfLIYAAAggggAACCCCAAALtIUDgbw/lFK0jPBy3tRrh5UR6vWDLaVX7e80jredW9WltLA7vbbdfE/gjiTENAQQQQAABBBBAAAEEEIhPgMAfn5+nlw4P5m2tbHg5UV/P+FSLV2zW1sDd8n/Q99s2a+mnnwbvqp/CHvmo9W5jndrqyXIIIIAAAggggAACCCCAQHsIEPjbQzlF6wgPuG2tRng5vLZHJrTVk+UQQAABBBBAAAEEEEAAgfYQIPC3h3KK1hEezNtajaK5Te92H152R3ttTPhBAAEEEEAAAQQQQAABBLwsQOD3cuvEWbfwEN7W4g6VHmny9XbhZXe018aEHwQQQAABBBBAAAEEEEDAywIEfi+3Tpx1Cw/h8RRnAi49/YWWAWE/nj2JZRFAAAEEEEAAAQQQQKC9BAj87SWdgvUkMvCnoPqsEgEEEEAAAQQQQAABBBBAIA4BAn8ceF5flMDv9RaifggggAACCCCAAAIIIIBA8gQI/MmzTXnJBP6UNwEVQAABBBBAAAEEEEAAAQRSJkDgTxl98ldM4E++MWtAAAEEEEAAAQQQQAABBLwqQOD3asskoF4E/gQgUgQCCCCAAAIIIIAAAgggkKYCBP40bbhYqk3gj0WJeRBAAAEEEEAAAQQQQACBzBQg8Gdmu1pbReDP4MZl0xBAAAEEEEAAAQQQQACBFgQI/C0ApfPbBP50bj3qjgACCCCAAAIIIIAAAgjEJ0Dgj8/P00sT+D3dPFQOAQQQQAABBBBAAAEEEEiqAIE/qbypLZzAn1p/1o4AAggggAACCCCAAAIIpFKAwJ9K/SSvm8CfZOA0KL7h/CHtLruZBjWliggggAACCCCAAAIIIJBoAQJ/okU9VJ6XA/+ppe+oz+iVOuUhL1OVbwqGqk/Broi1ajixThNeHaWcYWM14/uIs7R9YvUuFbz+sTZXNra9jAhL7pg6XH3eXqfLEd5zT2qo3KEpoz7SuvNtWP/plcrt/44Wn3aX6HrecEqr3ntDOYPHaHDRXtcbPEUAAQQQQAABBBBAAIFkChD4k6mb4rIzJvBvn6E+/YeG/WsmYMbh3lzg3zNzpF6ZXaqGNpffqMNzx2nK9rACGk5p8dgxmrYvGLatevTP04qLYfPqkla9PVx9+s/QN+FvRXpdX6Pq+khvNJ3WcGKlXhtZrMOuDYx2YibEqaXAv2+uBg5fqB9c5TZdO1MQQAABBBBAAAEEEEAg0QIE/kSLeqi8RAZ+K+C9v1qbZ07SiFdHqV/ORC09YQfUyzs/0ehhYzRo+FjlDB6nCatPBUNx/XGteO8NDRo2VoPNPO+uVZkkJ0j+cPAz5Y0eqwE5Y1SwvSaynhX4owTcs2v19rBX1bf/DH15cKUm5E60epp/WjlJw4aN0eDhY5QzeLxm7nbK3qUp/Ycq/7MdKnznLQ0dnKt+b3yh4/4wGhJkL67TuJwJWnyiUbuKxionZ6j6DjJlvq9VZ/3b4BoNYG2T/7Uzf27xHm2eNl4Dpq7XqnfHaMDAocp5LV9j3/pY6y/Ym1u+Ol/98rfqumvr7cA/VAOn7wtaSmrYN1c5g0ZqoCvwR9vWsi/e16BBw4MjFvzBfNbalcof+5YGDcrVK1N36WpgvY36bvpIDV1wLDDFaafwkRghTla5b2lGiVPuqxoyzV/u9/M1eHCu+gx81do/3v7ifKBsniCAAAIIIIAAAggggEByBQj8yfVNaekJD/yjP1VprR3yjxe/pb5Td1vbd73ysmr9gbnh4EK9MvBj7bDe8QfIuUcCobW+9ob13AqSuXP1baV9fXnD1mnqM/YL62RAE7TmAr+Z2QqcozS6aI12HC636nL10mU5HdtX177vKtsO/LkLj/rrfEoLXxuugp32WoNB1vSkj9EU10kI817uUnO6wv5xB3wzJfy1mb/vyEItXndAP1eb7SzT4tFDw3r4K7Xq7aHK3xrs3TdlmWVfm/qxckN6+U2dRmnqqhXKdQX+6NsaVifLaaTyv/LbNOxQfv8JWnrWv0HmweqNL9Zh/6TYA/9I5W+6YrdzwxHNzh2udzfW2qWY9vPg5RuureYpAggggAACCCCAAAIZKUDgz8hmtTcq4YE/Sm92CKEVIp3h9j9o2qBgmHbP1yRINhcKrcA/Tm8WFulD/7/5OyuDxVlBNsoIADPXiRUaEQjIduAPDqsPDeFO4D+1fIJeK3aNVPCH8NYGfvf8kQO/qY/jFdwkU48p22v1TcFI5cz8wQrSpnf/lbfXqby57Q3Z1kiB372uCOuuWKdx/fO1qsKuS5N28lfRcbJeWvVxl2ufsHBOCKm5tg1uMs8QQAABBBBAAAEEEEAgwQIE/gSDeqm4dgv89ee0e9VSK4znvzNO/QIBNkKg9AM1CZLNhUIr8L+noi3btcn/b+dJf++xKS9CAG6o/Fkbl8636jThdXvIv33NewyBf/QEjckZrr55m13D3e0Q6w7w1jY0cxLEhGL3/K0P/P5tG5ivVRftEQfWdf5h2xt9W9sQ+BXaZtY2Nrl/gv9+Cs62Rwn8gZsfNte2XvqFoS4IIIAAAggggAACCGSYAIE/wxrUvTntE/gvacWbQ5U74zv9fLlC1fXuwJjIHv5mevDDArAa9mnqoJGa8NlPOnP5impPmLvIO8vHEPiHzNA353erYMhIq5fdMQ0P8MkL/PYwf3sUQq2+yh+unFFv2737pjLu7W12W9sQ+BPYwz9w5g82HYHf2YV4RAABBBBAAAEEEECgXQUI/O3K3b4ra5/Ab0L965pdaratUec2fKScQA9/hGv4L122es1b38PvBPYIhu4AbN62QmuB1ll3wavRD3MnWDf1i7mH399zfXVDgfoOmas9rhv6uXvsL6/OV583v1S5WWdDub7MGxm8QV6ESwCkWq3LG6oxqy65NiLSNfyhlxno6FIN7T9Os0v91/m7t7fZbW1D4G/zNfyva8Z++34M9gmXUcFvHSDwu9qbpwgggAACCCCAAAIItJ8Agb/9rNt9Te0T+Bt1fHm+BgwapaGvvqePth7S2g/e0uDh82V9m311qRa/N045g/136R/3mX5ybnDnvpFbc6HQvBfooQ9jDNylP1c5zjpVo2+mjdOAQWM0dEyhFu/frfnjxmqw9Q0BMfTwO0PV/V+Bl+u/lj+8h1/Xd6sw91UNGPaGhr45W5u3Fmuof1nnLv3mrv7uO9M3nPhCYweP0qDhb8j5Svqmd+kPC/xqVG1VTeAmhCE9/M1ua2sDfxx36c/9SB/5v41h0OBRGrugNHg5RHNtG9acvEQAAQQQQAABBBBAAIHECRD4E2fpuZISGfg9t3GZVKGGU1o8dkywRzxF29ZwYqVeG1msw/4RDSmqBqtFAAEEEEAAAQQQQACBBAkQ+BME6cViCPxebJUodarepYLXP9bmytCv54syd8InN1Tu0JRRH2nd+dSsP+EbRIEIIIAAAggggAACCCAgAn8G7wQE/gxuXDYNAQQQQAABBBBAAAEEEGikJjk7AAAgAElEQVRBgMDfAlA6v03gT+fWo+4IIIAAAggggAACCCCAQHwCBP74/Dy9NIH//2fv3oOjqPP9/5+qb9X3n/3j+636Vp2q/Z6/vpeqXypVKVyOmM2KIuhBVj18dVf9npWVPbqCil+Osl7YFT3rrmdhYbkoSCTxglxE5KIBiQgid5B7uAZB5BbukEDCJWEIef2qu6d7enrumUxmuudJlSYz0/3pTz8+72Tm1Z/uTkEPD51DAAEEEEAAAQQQQAABBHIqQODPKW9+Gyfw59efrSOAAAIIIIAAAggggAAC+RQg8OdTP8fbJvDnGJjmEUAAAQQQQAABBBBAAIECFiDwF/DgZNs1An+2gqyPAAIIIIAAAggggAACCPhXgMDv37FL2XMCf0oiFkAAAQQQQAABBBBAAAEEAitA4A/s0EoE/gAPLruGAAIIIIAAAggggAACCKQQIPCnAPLzywR+P48efUcAAQQQQAABBBBAAAEEshMg8GfnV9BrE/gLenjoHAIIIIAAAggggAACCCCQUwECf05589s4gT+//mwdAQQQQAABBBBAAAEEEMinAIE/n/o53jaBP8fANI8AAggggAACCCCAAAIIFLAAgb+AByfbrhH4sxVkfQQQQAABBBBAAAEEEEDAvwIEfv+OXcqeE/hTErEAAggggAACCCCAAAIIIBBYAQJ/YIeWP8sX4KFl1xBAAAEEEEAAAQQQQACBlAIE/pRE/l2AGX7/jh09RwABBBBAAAEEEEAAAQSyFSDwZytYwOsT+At4cOgaAggggAACCCCAAAIIIJBjAQJ/joHz2TyBP5/6bBsBBBBAAAEEEEAAAQQQyK8AgT+//jndOoE/p7w0jgACCCCAAAIIIIAAAggUtACBv6CHJ7vOEfiz82NtBBBAAAEEEEAAAQQQQMDPAgR+P49eir4T+FMA8TICCCCAAAIIIIAAAgggEGABAn+AB5fAH+DBZdcQQAABBBBAAAEEEEAAgRQCBP4UQH5+mcDv59Gj7wgggAACCCCAAAIIIIBAdgIE/uz8Cnrtrgz8e+sP6IMZn8rbJo8rc2ZieBvumf5jrHI3JkGpd2qLGinEWu5sXWb6O5LlEUAAAQQQKCYBAn+AR9v7ga6zu2oESG9bPO6+wJBJ6Gesum9cgvAzQG1RL4VYx5nUZWff11gPAQQQQACBYhEg8Ad4pL0f5Dq7q8zs5zcUGP7p/mOs8jtW3p+5Qn9MbVEvhVijmdRlur8bWQ4BBBBAAIFiFSDwB3jkvR/kOrur3nZ43P0hId2xY2y6f2z8bk5tUTOFWMPp1iXLIYAAAggggEByAQJ/ch9fv+r9ENfZnfG2w+PuDwjpjh1j0/1j43dzaouaKcQaTrcuWQ4BBBBAAAEEkgsQ+JP7+PpV74e4zu6Mtx0ed39ASHfsGJvuHxu/m1Nb1Ewh1nC6dclyCCCAAAIIIJBcgMCf3MfXr3o/xHV2Z7zt8Lj7A0K6Y8fYdP/Y+N2c2qJmCrGG061LlkMAAQQQQACB5AIE/uQ+vn7V+yGuszvjbYfH3R8Q0h07xqb7x8bv5tQWNVOINZxuXbIcAggggAACCCQXIPAn9/H1q94PcZ3dGW87SR/PrdPpkKQbV3T21BmddP139nK7pJBOblrAn/kbn1nISHfsko5Nmtucuv6k2m5cV2tbi75bbvVz1ZFram1rU+vZvZqTZjtd0RfayKxOOuOVu9r6Rvuab0rqUNvJ7fqIuuH3XgY1kG5dshwCCCCAAAIIJBcg8Cf38fWr3g//nd0ZbztJH289Z22mo11tRkB0/dd2o8N67UxdN33wXaCNp0LquHxIa3Zd1M2bF1W3MPcBKqlPBh943e2kO3budTr3/RLtONuqkzu/0rzPaiP/zZ+vqZ3se+f6UXjj9KlRQx3XdWRt4fUtG+Oc1daSQ2qxGw+d0KruqJ+F+3ThZofajn7bTb9j/F0Lq45eV0eB/l60S4evCCCAAAIIIJCdAIE/O7+CXtsbAjrbWW87iR/X6KsfWtRxvUVnXDP77ln+M83X1dF8VF/NTfZB+RsduBLd25uhyzqxdWmKD/E1Wnf8iqzjCue0aXwWgX/hPp1tC+lmtx2cSOZRGY2R5FHisUnevr3e1I112rHlpFquuw7WXL+qcwd/0OY1M1P4e7cRO45m15OYfrr5lJqvt+vkVm9bXfv4010X1Bq6qdMZbKfrA/9a1V+8plDzYS3pjjCcYBtJyinqJbtG0v9q/DxeVmvbNZ3ftyr1AaP1J3XD2OLZXeFlV+ngVUlXj+jLcN83nuqQbpzUmgT7MqabA/8Ss4MRplT1NHXZdzrfapz1IF05+E2GP09d+zNgjCOBPzJ2fIcAAggggEBQBQj8QR1ZKebDZGd3Nf0P+HU6LenMtiTBsGqXzkgpgpYdFK/qwNJKjflwu04aSaDjjDYm+qBvPG/PKDbVa3ay5dJ5belhmccckoTT9F2y/6Ce7thl16el2nMppGtXr6ut6Tt9WVWpMVWrtL+5XW1XWxW69J0WpmPnLOMZR+f5xB52gEoVnLLbz0plv5052niqXbqSTVi3fl6yayOxZbpGuamtBar9dre2brf/26AFqcZ/9j6dNzrTdlwrjGUXfqeLZueatcc8M2e9DrcZvwbqUh88MLfVFWOU2neT8Qst5e80qx3zgIWu60jGB89S9yPleFct1/5m4xd0d51hlV2fLVX+jwACCCCAAALZChD4sxUs4PW9HwA721VvO4kff6sfWlPNmtbp9M02/ZD0tGhPULQDv31a8NytOtoSkjlP1tGuy8e3avb4cHiyd9IMYtYMY8haUDeuNWrPspkaY192YHz2/W6fTrdeNg8szN56Rubkm9FmY7PajLbMD8cz9eW+Rl0LX5Jws9Vqxw6N0lUd2X1MF2+c0abxmSyb/gdie7dSfU08Ngm29eHX2na4Sc1tbWq+eFmh5oNaOL5Gm86E1Hpko9Y1hHTl8BpVj1+u/S0hXWm5ptarzTpxcJs+Nw4IJA1xnnF0LTt7zWFnprPjRqtO11lnb9im1rgYA3dTzQdWaYUzkxqxPhTnuU1zN+rAhTanNq6d2RMOmjXadNJ6vuPGFV24dN2kNA4sfLq5QRevtev0ofDsa8d1ndi6RltOWmeL3Lx6VCt2hS9VCQc7O+TZ43F66xJ9e7RZ126cU/2uc1Yd3bys/Ua9VS1z2jL2J3TxiFbMNuzswN+gnYebzTNTOq6f0Sbj7Jdv9ut8S0jNxw7q6OV2dRgO+zdq5cFGs+2O6xe0vcZow1Pjl09oXdKzZ2LHzN6HVF+Tj7W33QWqrW+yZuzNho0zbrzLeB8v0Z5LxsJWwP9oV5PTJfMgYvgAwPldCzQm1e+AM3WKHaPK1Oud/V51Z9rUbMy+x92Gt8+Vznbsg1ROPZm/W+LVsLVbxvLmjP81Y3yNUg+p2fxdZv/cGKcBhGvjVF16dVpVqfg/W642zc1f1ekzxukTxr/wgVXP/l67ED7oN36tdl8wfjfEqdNE9efUb70OXTL2r0Ntp+oyOhAb7hxfEEAAAQQQQCBLAQJ/loCFvLr3A3pn++ptJ+njredSzN7X6XTKGSbvh1NJ7Vd0dNOXmjremIXukNpOavWHlZq925gD7NDprTM1xjMrv3Bfs/lB8/zuLzT1w006ZiT48EEDO1haJld1YFWdThufulsbtPLDmZq+4aQT+I2b2Bn3IWzc+4WmVm3UEaOd8MxudKg4px0ZLJs6AEXCRbpjl3RsvIFr9nadDIXUdHCLFn22QYeudKijI6TTW2s0pmqrGkId6rhxWuuqKrVk/2XduHlTHVeO6pvaDdp5qlU3Lx+2zgLwtus8tscxHCic5ys1+/OvNetD4wyCNTpk5I7w2Rv2uERZh0/h9lobfjHPzf1Siz6ZozHjZ+qrw9fM2ji5qVJTt54zQ1XrsY2qrpqvtccjgT96m9YZKHZ9fXko0oa9nBXs7LBuz/Db+3pRez+fo6lrGsz6udGwWWNmf6HPwvdAqN5xwRzKlgNfRwJ/VC1LF/ctcQ5KtR3fpOrx4VPbdVG7F8zU1G3mPLiMNqwav65j6+ZozNx6NZqU6c6AW/WVk9oyxtr+eTQ3kE7gr9SKI8a4dOjkppnadKZDN86cM2f9DUdrDI2DAen+DvCOURrrhTGuHNyd+PeMq46Nnze7Bu3Ab9dJY/2XqrZ/X0TVcPjnoWqzjhu/WMK/c+butX6XNe1ZEqkNe3DO1DlnpVg/G4nrNNHPljMert+/Vt+N/oRtOpq0c8FMVa+zfv+Fjhv3Qgg7tp3U2lkzw79zrTpNWH/hg6ptx7doelWNdprHbuwzNSK/15L9vrJ3na8IIIAAAgggkJ0AgT87v4Je2/thqrOd9baT9PHWc7pyeEPkZm/uG799VqtFW06p1fWBM35bdniyPxh/oW1njTv8t+nQivCHT8/OmNfD2gEj3H7kw6z1AdP92P5Qbn9Ij/kw7GrLXjZ6k1aAcbdp7Esmy8bf9/gfhqO3nfhRJm0afW07ttE8Pdo8qNF8UDWrjqu19ZiWja/UmoZ2mYHVCP83WrSvZqn2NberYaNxyUaN6i7c1Lm6ZH9xwR5Hd3+NMZ2pz7edMa/VD9/GUZLlaftZ42KvH9/a2Fev/9TFu3Si5Xr4Pg7Wdo22otuNfhz9WnRIdL/m/t4JQc4p/dF9jaon86yDa7LONLH6ZF2/Hb0t+8wT87VwYLKW87Ttes3af7dv5GBUurXgWTvhw3Tbc5azf4bMFtML/GPC1/FfObhPh9uMWjOCqLVPdcbBANM73d8BHl87uHr2MN7vDmd84y2bZuBPWcO2j/37MOqxt+/RNev0L1x/kdpM/LMVVZPhfYj8/Hi3537s/r7SORhluCWsP1eNxvs5dWrEY+l+3kPPQwQQQAABBBDopACBv5NwfljN/eHJ+L6z/7ztJH1sftBr0+n6ejW4b7x3o1mHdx/WeeNafPsDbsIPe3bACQd+V5C+cvCYeZ8Ae4Y9qi9RH5hjw2Dkw633w7NrNtLum6utyIfp2DDubtPoSybLRvU9oYW1zXTHLpM2jb5boWSR6hpD4SBvfLhv1PaPKrXowBV1GH+e73q7OsJ/dcH8Swvn9+iD8L62Hl6b5LT+2HE0+2dfq910UAs+tJfpisC/QHXmBLo1y+4eC/f33nGKfi063Lhfc3/vDVxjxkfvhztcWbPW13Vsw3xzltoYSyvIR2+r84E/8nOSyfjby+aitsy27Z8hcwNpBn67Nq5c1ZWOc9pknF1i3blPV65IbUfWR2acnYMtrp9Le5vmz7HH1w78Kdcz2vOu69qG52fVDr3Wz5LdX/tnK7ouon5fRPXV+zsodvvJ6s95rT58H4Q4P1vumrTHPtIf7/bcj93fxwv8ceqPwJ/ujxXLIYAAAgggkHMBAn/OifO3AftDnf21sz2x10/rq/lBr0M3rrdFzWia1y4bd703OmGHas8H50j79ofk8AfJqi+084IxF2zM+K3SPuPGU7qqQ18bp27P0eIdh7R1ifcDc2X4dOcOWaf0b9SR1thT+u0P6WNm79E585T+41pRNVNzt5yJnNK/8bR5LfKNs7s1t6pSUxds0oE91p/9inxgtgLB1AyWjexv4jBhL5Pu2NnLp/PVCAlOYK+aad0IreagLnnvgl5l3HehUdvN687tvs7UuhPt1unn6Y6jvZx9Mzbjbuz2pRY6ry1OuEsjLIXbiva3rwE32pqj1eHT9o3rvz+qa7RO6T+yXlOrvtC3p2JP6bdqITrcOEEq5iwB6wZyamvQyqoafb54a/gvS4SDrSvMGWdKSNd0cNlMWadtS1cPrYoNle6Q5P7eezDB9drCeusP31n3WahUde1u7d9uXC5gj1Pqr7moLXP7toG5gTQD/3h7DCVd2KePjP2w796vdh1fb+yPcaZJOr8DvGO0Mc31UmzDY2vVoF2zGQR+7yn9u5vMS5CiTul3HZxw16L3gITz2sHwjQ7j/GyNsQ+mGDc1rVqmz2vcB0U9p/SvaZD569J9Sr/dl3Tqz7WMUQvRP6epa9JYh38IIIAAAggg0DUCBP6ucSzIVrwf+jvbSW87SR/XfKeLkfO042yyQxf3pfrzenbgj6x+M3RN5w9uNG/6ZJ22Hblp37ULh6yboNkBwzmg4LmhWZyb9hlbsIKecbO9i2oz+n6zTefrD1l/GcBsq8a8WZpz077wnwi0P2RbvbRnuTJZNr0Pvpl8+E06Np6gMmZunU5fb9XJHSs1vapS1Z9v0eHLN9VywPvnwmbqy4NX1NZ0UF/PMm5CN1+1uxsVCp3RxqiDAN79scfRtrFft2+g16Eblw5p5dYzpnvHqe2eMyTs9c8pcoM+Q9tqL56/fePFjhvN2r+mTieud1j3B6hapT2N183Qb9x0cd93Z8yDOMbY2+1kFvgrtWSPdQM945rz5v17Ewb+qcsO6aJxw8ebbTqx1QidxmGvK9q/JPrgQmdm+K0bAl4OH1zrMG9MuX9Vssss7DGIfI38lCX/LqPaGl+p2dvOu27a16L9XyT56x2u2rTOiJDMm/MZzxsHnIyfy/CMv9GPdH8HRI/R1wnWC4+Dvfvh3x8Jt+Hqq1079qqx9RSp4cg9JyI/Dylv2mc0HA7a9raS12nin60x4xdozVH7z5be1IlvPUE84U37ktSpeUPKOPVH4LdLgq8IIIAAAgjkXYDAn/chyF0HvB/QO7slbzupHq8/aQSaDl38bk3kWv7VR9RifGi377Tv+tCcqj1eT3+2K1OrqQu264eL19R2o12hq806uuNrVccdmzn6as85NbeFdOPGdV29cFirF6QX4DLtE8tHwnh3WKT7eyGTvqw6fFXX2trUGvXfNZ3Z+VVGZx9ksk2W7d66ybV3unXJcggggAACCCCQXIDAn9zH1696P5B1dme87fC4+z9Ypzt2jE33j43fzaktaqYQazjdumQ5BBBAAAEEEEguQOBP7uPrV70f4jq7M952eNz9ASHdsWNsun9s/G5ObVEzhVjD6dYlyyGAAAIIIIBAcgECf3IfX7/q/RDX2Z3xtsPj7g8I6Y4dY9P9Y+N3c2qLminEGk63LlkOAQQQQAABBJILEPiT+/j6Ve+HuM7uzAczPuW627jXtXdPUDD80/3HWHXPmHh/tvz6mNqiXgqxdjOpy3R/N7IcAggggAACxSpA4A/wyHs/yHV2V/fWHyDw5zHwG/7p/mOsCHDen/tkj6kt6iVZfeTrtUzqMt3fjSyHAAIIIIBAsQoQ+AM88t4Pa9nsqvEBjNnj7g0HhndnPvgyVt07Tt6fMz88praokUKs087WZTbvbayLAAIIIIBA0AUI/AEeYe8HugDvKruGAAIIIIAAAggggAACCCDgESDwe0CC9JDAH6TRZF8QQAABBBBAAAEEEEAAgcwECPyZeflqaQK/r4aLziKAAAIIIIAAAggggAACXSpA4O9SzsJqjMBfWONBbxBAAAEEEEAAAQQQQACB7hQg8Hendjdvi8DfzeBsDgEEEEAAAQQQQAABBBAoIAECfwENRld3hcDf1aK0hwACCCCAAAIIIIAAAgj4R4DA75+xyrinBP6MyVgBAQQQQAABBBBAAAEEEAiMAIE/MEMZuyME/lgTnkEAAQQQQAABBBBAAAEEikWAwB/gkSbwB3hw2TUEEEAAAQQQQAABBBBAIIUAgT8FkJ9fJvD7efToOwIIIIAAAggggAACCCCQnQCBPzu/gl6bwF/Qw0PnEEAAAQQQQAABBBBAAIGcChD4c8qb38YJ/Pn1Z+sIIIAAAggggAACCCCAQD4FCPz51M/xtgn8OQameQQQQAABBBBAAAEEEECggAUI/AU8ONl2jcCfrSDrI4AAAggggAACCCCAAAL+FSDw+3fsUvacwJ+SiAUQQAABBBBAAAEEEEAAgcAKEPgDO7QSgT/Ag8uuIYAAAggggAACCCCAAAIpBAj8KYD8/DKB38+jR98RQAABBBBAAAEEEEAAgewECPzZ+RX02gT+gh4eOocAAggggAACCCCAAAII5FSAwJ9T3vw2TuDPrz9bRwABBBBAAAEEEEAAAQTyKUDgz6d+jrdN4M8xMM0jgAACCCCAAAIIIIAAAgUsQOAv4MHJtmsE/mwFWR8BBBBAAAEEEEAAAQQQ8K8Agd+/Y5ey5wT+lEQsgAACCCCAAAIIIIAAAggEVoDAH9ih5c/yBXho2TUEEEAAAQQQQAABBBBAIKUAgT8lkX8XYIbfv2NHzxFAAAEEEEAAAQQQQACBbAUI/NkKFvD6BP4CHhy6hgACCCCAAAIIIIAAAgjkWIDAn2PgfDZP4M+nPttGAAEEEEAAAQQQQAABBPIrQODPr39Ot07gzykvjSOAAAIIIIAAAggggAACBS1A4C/o4cmucwT+7PxYGwEEEEAAAQQQQAABBBDwswCB38+jl6LvBP4UQLyMAAIIIIAAAggggAACCARYgMAf4MEl8Ad4cNk1BBBAAAEEEEAAAQQQQCCFAIE/BZCfXybw+3n06DsCCCCAAAIIIIAAAgggkJ0AgT87v4Jem8Bf0MND5xBAAAEEEEAAAQQQQACBnAoQ+HPKm9/GCfz59WfrCCCAAAIIIIAAAggggEA+BQj8+dTP8bYJ/DkGpnkEEEAAAQQQQAABBBBAoIAFCPwFPDjZdo3An60g6yOAAAIIIIAAAggggAAC/hUg8Pt37FL2nMCfkogFEEAAAQQQQAABBBBAAIHAChD4Azu0UlcF/vb2du0/cEiz59Zo4pT3Y9r1bofHlRiNjzYw6saoH6OOjHriHwIIIIAAAggggAACCORegMCfe+O8bcEbvDvbESOkTZ81X8cbTqqjo6OzzbBeEQsYdWPUj1FHRj3xDwEEEEAAAQQQQAABBHIvQODPvXHettBVgd+YmTXCGv8QyFbAqCOjnviHAAIIIIAAAggggAACuRcg8OfeOG9b6KrAb5yOzcx+3oYxUBs26sioJ/4hgAACCCCAAAIIIIBA7gUI/Lk3ztsWuirwG+3wD4GuEqCeukqSdhBAAAEEEEAAAQQQSC5A4E/u4+tXCfy+Hr7Adp7AH9ihZccQQAABBBBAAAEECkyAwF9gA9KV3SHwd6UmbXWVAIG/qyRpBwEEEEAAAQQQQACB5AIE/uQ+vn6VwO/r4Qts5wn8gR1adgwBBBBAAAEEEECgwAQI/AU2IF3ZHQJ/V2rSVlcJEPi7SpJ2EEAAAQQQQAABBBBILkDgT+7j61cJ/L4evsB2nsAf2KFlxxBAAAEEEEAAAQQKTIDAX2AD0pXdIfB3pSZtdZUAgb+rJGkHAQQQQAABBBBAAIHkAgT+5D6+fpXA7+vhC2znCfyBHVp2DAEEEEAAAQQQQKDABAj8BTYgXdkd3wf+xSNUUlbu+e8RTTyUudLRqf+ikgerdTTpqiHtqX5at/csV8mw2qRL5vTF5SNV1nOkvsrpRvLXOIE/f/ZsGQEEEEAAAQQQQKC4BAj8AR5v3wf+qLEJac+ER/TTl9cpFPV8Vz7YrtfvuFcvr23tykZTthXaMlq983mAIWUPu3YBAn/XetIaAggggAACCCCAAAKJBAj8iWQC8HyQAr8ZigdM0p5w2q8ZVq57JhwIj1KthpaNUI3xqHm7Rj/cR6XhMwN63Pu03nx/jO4xHodD9aHqwbp/1AyNG9RfpWUV+unwWl3QAY0bEDmbwGy7cZVeud9qq7TX/Ro6+6h5sMHYdknZQD03dqT693pE4/Z/o1cqRujPldbZAaV3jNSC7Z9puLlub90/1ern2jcH6lbj7IGyCt1y/1+0sllS1FkMD2ncfmNfylUyYLLqjf1J0Acdmq5fPPgnVU/4rX7ao1yld7ykmkaLI7R3ugbd1Tu8nTe03Hze6uP4eSPVz+hDz3/RxL25O3QSHpi4Xwj8cVl4EgEEEEAAAQQQQACBLhcg8Hc5aeE0GJjA31iroXc8onGugJoo8J+qflwlv5qh0yGpdeFwlT5QKfMKACNYhwN//YSH9JPBM7SvJSQ1fqxHy+zLBIywbYRuYwxbNOeJCt3zl10y5vtb6/6me3r8q94/ZbxmHBy4Vy8vO6dmMzMb6z2mNzedUKua9OGvylXx/BIdb5VCG/6kCju8O6XRqrlPluux2S3mM0Z/7L6ZT+yfrHvMdZL0wVjmtiGqrm9RKLzNAW8flrRLf+r7kP5cZ/Zaa35/r3r/xy5J1r79/hujjyGtH3WvSocvd3rUnd8Q+LtTm20hgAACCCCAAAIIFLMAgT/Aox+MwN+kmmH9NeBtezbfGrBEgb959hCV/OpjXTBCuhH4H54uM6N7An/02QF2yHcH/nX63W0DNXqvXSBGyK/QsKXGY+N7ex3jsbFe+AwDSVF9c8K7dGzxSN1XYcy8W2cS2H1IHPiT9MHVrtEDZ5unpuvBcPv2dqyDCdF9jNmmvZvd8JXA3w3IbAIBBBBAAAEEEEAAAUkE/gCXQRAC/4XZQ9Rr6CIzwLuHygm45pOuMNv6lZ6u6K2ysnKV9vq1Rm+xZtHNU+ddM/x22LZnvq1ZfXfgN67n78rAb4T3+/TCEmOG3RXQJcWEbyfMJ+mDs4yl4niYgX+4FsScre8yirdNN26Ovyfw5xiY5hFAAAEEEEAAAQQQCAsQ+ANcCr4P/PsrNeCOEc616e6hWvnyXaoYtUkhhdRc/47+2Z5hXzxCfceaV7+7F7eulc8o8Cc5nb5TM/zLNazHrzTlmNTa8JmGVkTuQRBaODx8VkJIISOoO2E+SR+cZazddAK/eUr/XXryY+vAQqjlmPYdMQ56EPijC4JHCCCAAAIIIIAAAggEX4DAH+Ax9nvgrx1e4Zz+7pyeHr7ePrS3UvebN5/7uQZNeE8v9A2fUl/3N93hOqW97K6R1gGDjE/pT3zDPCNcW/2xT+uPDtOR8O0O7yFtGvN/VGbcJHDQdK2f+/9UZt87oLFWw82b7PWWeVm9O8wnummfexnPGQORm/aVq5MMitcAACAASURBVKziUb3w5WkCf4B/ztk1BBBAAAEEEEAAAQQSCRD4E8kE4Hm/B/7Mh+CwJj5wv/59q30+e4uWvnCPhi7OvCXWyJ0Ap/TnzpaWEUAAAQQQQAABBBBwCxD43RoB+774An+LNr9t/Wk8cwa+Rx/d+ZtKbTb+/B3/CkaAwF8wQ0FHEEAAAQQQQAABBAIuQOAP8AAXX+AP8GAGaNcI/AEaTHYFAQQQQAABBBBAoKAFCPwFPTzZdY7An50fa+dGgMCfG1daRQABBBBAAAEEEEDAK0Dg94oE6DGBP0CDGaBdIfAHaDDZFQQQQAABBBBAAIGCFiDwF/TwZNc5An92fqydGwECf25caRUBBBBAAAEEEEAAAa8Agd8rEqDHBP4ADWaAdoXAH6DBZFcQQAABBBBAAAEEClqAwF/Qw5Nd57oq8E+c8r46Ojqy6wxrIyCZdWTUE/8QQAABBBBAAAEEEEAg9wIE/twb520LXRX4Z8+t0fGGk3nbDzYcHAGjjox64h8CCCCAAAIIIIAAAgjkXoDAn3vjvG2hqwL//gOHNH3WfDP0M9Oft+H09YaNujHCvlFHRj3xDwEEEEAAAQQQQAABBHIvQODPvXHettBVgb+9vd0MacbMrHE6trddHldiMj65gVE3Rv0YYd+oJ/4hgAACCCCAAAIIIIBA7gUI/Lk3ztsWvEE8bx1hwwgggAACCCCAAAIIIIAAAt0uQODvdvLu2yCBv/us2RICCCCAAAIIIIAAAgggUGgCBP5CG5Eu7A+BvwsxaQoBBBBAAAEEEEAAAQQQ8JkAgd9nA5ZJdwn8mWixLAIIIIAAAggggAACCCAQLAECf7DGM2pvCPxRHDxAAAEEEEAAAQQQQAABBIpKgMAf4OEm8Ad4cNk1BBBAAAEEEEAAAQQQQCCFAIE/BZCfXybw+3n06DsCCCCAAAIIIIAAAgggkJ0AgT87v4Jem8Bf0MND5xBAAAEEEEAAAQQQQACBnAoQ+HPKm9/GCfz59WfrCCCAAAIIIIAAAggggEA+BQj8+dTP8bYJ/DkGpnkEEEAAAQQQQAABBBBAoIAFCPwFPDjZdo3An60g6yOAAAIIIIAAAggggAAC/hUg8Pt37FL2nMCfkogFEEAAAQQQQAABBBBAAIHAChD4Azu0EoE/wIPLriGAAAIIIIAAAggggAACKQQI/CmA/Pwygd/Po0ffEUAAAQQQQAABBBBAAIHsBAj82fkV9NoE/oIeHjqHAAIIIIAAAggggAACCORUgMCfU978Nk7gz68/W0cAAQQQQAABBBBAAAEE8ilA4M+nfo63TeDPMTDNI4AAAggggAACCCCAAAIFLEDgL+DBybZrBP5sBVkfAQQQQAABBBBAAAEEEPCvAIHfv2OXsucE/pRELIAAAggggAACCCCAAAIIBFaAwB/YoeXP8gV4aNk1BBBAAAEEEEAAAQQQQCClAIE/JZF/F2CG379jR88RQAABBBBAAAEEEEAAgWwFCPzZChbw+gT+Ah4cuoYAAggggAACCCCAAAII5FiAwJ9j4Hw2T+DPpz7bRgABBBBAAAEEEEAAAQTyK0Dgz69/TrdO4M8pL40jgAACCCCAAAIIIIAAAgUtQOAv6OHJrnME/uz8WBsBBBBAAAEEEEAAAQQQ8LMAgd/Po5ei7wT+FEC8jAACCCCAAAIIIIAAAggEWIDAH+DBJfAHeHDZNQQQQAABBBBAAAEEEEAghQCBPwWQn18m8Pt59Og7AggggAACCCCAAAIIIJCdAIE/O7+CXtu/gf+Axg0oV0lZue6ZcCA/xotHmNsvKRuhGhVAf/KjwFYRQAABBBBAAAEEEEDAxwIEfh8PXqqud33gb1Xjrq807plf6pYeD2nc/iQ92D9Z95hh2bOM+XyKdc1VrJCdt8Bv9MEM/UbgN/5l25/ruj5luJo/PambZnvJ/nddoU9HqnnK92ksm6wdXkMAAQQQQAABBBBAAIFiFiDwB3j0uzzwH5qjF159T9/UjFHfshShvasDf+vXeu42O3x3ctBCRzTpwRT9djfdpYH/vK4N/Zku/N3/1sXRdUmC/HW1jb5XjX/3YzUNXa2Quz98jwACCCCAAAIIIIAAAghkIEDgzwDLb4t2eeC3AdKZpU8r8B/QnGce1a09rdP3y+56WtP22hHXNaNutmUtY5zmXzJgsuqNvoTqNcM826BcJT36qP+rq3TB7GOTlr9qnIVgrNNbtw58S9tUq6HGus5/9sGDJi1/c7BuN/vQW7f/Zrr22F1IGviTrGc7xXxNFebTPSgQ0zBPIIAAAggggAACCCCAAAIxAgT+GJLgPFH4gf+E6jb9oMZWw7xJC4bepdInFqrZHAJX4DcexxxACGnly3er9IFJ2mGs37pJv+9boYenn5YOVWrAHf+uNcbzoRYd2bRbx8w2jdAfPcN/rPpxlVaM0IIzISl0Vh8OrlCvV781l052Sn/S9ay1E/4/9NkzavxPP1bjgx8rdD282PWTuvLg/6cL/+kWNX92PuG6vIAAAggggAACCCCAAAIIpCtA4E9XyofL5T/wu2fU3d9Hh26btn7CQ5HZe+818zGBf7tev6Ncj81usVfXypfvUsnQRQqdmqWHez6i1785IfNYgrOEN/C3aObgclW8sd1Z4lT14yrpP0l7jGcSzvCnWM9pLfE37Rv/rKb//PdqvO0ttV2t0+Xb/rcu/Oc71bLxWuKVeAUBBBBAAAEEEEAAAQQQyECAwJ8Blt8WzX/gt0+bd8mZwT0c+ENHteDVwbqzV0XkVHv7dP2Ugd97in74gIK5fkin107WoLt6q7TXLzVkVn34Wnhv4LfOIoic5m8flAj3O2HgT7Gea3eTfXvzu/d18b/8vS783d/rwn95UFe+s6f7k63FawgggAACCCCAAAIIIIBAegIE/vScfLlUoQf+0OIRKr1tuGYdbTEDeWdm+J9caF9wH2+IjOA/WgN63Kc/7TBe9wZ+a6a+71jzjgCxDSQM/CnWi20p8TNna9V853BdPZt4EV5BAAEEEEAAAQQQQAABBDojQODvjJpP1in0wN88e4hK7viT1oek1obVev2Bisjp9N4ZfuO6/LKHNNq4qV+oVa2h8DX8j0zTvhYr9Lc2/aB9R1qk47u1MXwQIXTmMz1521363Wpj0JZrWI+79OTCJuOif7W2Sua1+H1f1eIG6+T/UMs57Tx4whrhhIE/xXo+qQ+6iQACCCCAAAIIIIAAAsEWIPAHeHy7OvDXDLNPeY/+OnRxHMSYa+7Dy7hP6W9ep1H9e6ukrEK33P+Glm+o1v09y1U6fHmcv3vvuvN+z1/r3UPGDfmOasEI+y7/Fbql96N64cvT0o4q/aJfH5Uad+SPunt/SHuqn7buyN+jj0YYm1GT1k942rmsoKxioH7xzk6rs0kCf9L14nDwFAIIIIAAAggggAACCCDQ3QIE/u4W78btdXXg78ausykEEEAAAQQQQAABBBBAAIEsBQj8WQIW8uoE/kIeHfqGAAIIIIAAAggggAACCORWgMCfW9+8tk7gzys/G0cAAQQQQAABBBBAAAEE8ipA4M8rf243TuDPrS+tI4AAAggggAACCCCAAAKFLEDgL+TRybJvBP4sAVkdAQQQQAABBBBAAAEEEPCxAIHfx4OXqusE/lRCvI4AAggggAACCCCAAAIIBFeAwB/csRWBP8CDy64hgAACCCCAAAIIIIAAAikECPwpgPz8MoHfz6NH3xFAAAEEEEAAAQQQQACB7AQI/Nn5FfTaBP6CHh46hwACCCCAAAIIIIAAAgjkVIDAn1Pe/DZO4M+vP1tHAAEEEEAAAQQQQAABBPIpQODPp36Ot03gzzEwzSOAAAIIIIAAAggggAACBSxA4C/gwcm2awT+bAVZHwEEEEAAAQQQQAABBBDwrwCB379jl7LnBP6URCyAAAIIIIAAAggggAACCARWgMAf2KEVf5YvwGPLriGAAAIIIIAAAggggAACqQQI/KmEfPw6M/w+Hjy6jgACCCCAAAIIIIAAAghkKUDgzxKwkFcn8Bfy6NA3BBBAAAEEEEAAAQQQQCC3AgT+3PrmtXUCf1752TgCCCCAAAIIIIAAAgggkFcBAn9e+XO7cQJ/bn1pHQEEEEAAAQQQQAABBBAoZAECfyGPTpZ9I/BnCcjqCCCAAAIIIIAAAggggICPBQj8Ph68VF0n8KcS4nUEEEAAAQQQQAABBBBAILgCBP7gji1/li/AY8uuIYAAAggggAACCCCAAAKpBAj8qYR8/Doz/D4ePLqOAAIIIIAAAggggAACCGQpQODPErCQVyfwF/Lo0DcEEEAAAQQQQAABBBBAILcCBP7c+ua1dQJ/XvnZOAIIIIAAAggggAACCCCQVwECf175c7txAn9ufWkdAQQQQAABBBBAAAEEEChkAQJ/IY9Oln0j8GcJyOoIIIAAAggggAACCCCAgI8FCPw+HrxUXSfwpxLidQQQQAABBBBAAAEEEEAguAIE/uCOLX+WL8Bjy64hgAACCCCAAAIIIIAAAqkECPyphHz8OjP8Ph48uo4AAggggAACCCCAAAIIZClA4M8SsJBXJ/AX8ujQNwQQQAABBBBAAAEEEEAgtwIE/tz65qf19lad2LVW82bM1FtTPzT/mzpjiZbtOq1r7fnpEltFAAEEEEAAAQQQQAABBBDoXgECf/d653xr149t1PR3psVcv2/P9o99Z75WHgvlvB9sAAEEEEAAAQQQQAABBBBAIL8CBP78+nfp1tsb1urdiZVm2B9XvUjLth3V6aZLamo6p++3rdWc6vCBgImztayBqf5s8S8sHqFeZeXqNaxWF7JtrCvXD23X633LVVIxQjWNXdlwV7R1XTevG/91RVu0gQACCCCAAAIIIIAAAskECPxendBZbftopPr3qlBJ2UMat9+zwNKXVFpWrpKo/x7XtFOe5eyHzfs189XButNsr1wlPfvpvhGLdDjBJHv9hIfMtnu9vE4JFrFbjv56rV5zJxthf5rerT2sluhXw4+u6EDtbI0dX6kxk7/QzmtxF4r7pN2v6P22HIYujrtKFz55WktGv6JB9/fRgAkHErfbuEnjfvNzlZljE2fsEq+Z8SuhvZM1oIcRql/TSnugFo+I1MXgT9Uc1WqL5jxh1FTmZmv/2F+lZb318PSGqBaTPQhtGa3eZeUqfWCy9tj9kxQZxxGqcTewf7Lu8fZtx0w99/Rg3d7Ts6x7PeP7DNxv1AxV43/rqcYfP6OrZ70N8RgBBBBAwK8CbQ3rVP2XNzV8+It66tkX9dRzv9fzo6q1yjwi3qBPXgs/P3lzZrvYdl57v5qtP40cqacSrHvj6jGtnzdNf3j+ZY2cl/57ZWYdYWkEEEDAnwIEfve47XjLDPplPXuHg1lsaLQDU9ohd/9kDbj7NS1qaJVCZzV36F2JA/2x6XrQCJE9hmhmhjOz59fMMWf2x360Sefd+xTzfZNWf2TN9FevaYp5NdET9n6XlKUIf4kayOr5Axo3wArK9yQM/CEt/51l+5Ohi7poxj2kmmFGSPfuc4OmPWyF9wcqXR8s3IG/7Feacsy1080L9bgxtt5Q7Vok0bedCfxS5ACDu48JxzFe4Hf2x7v/7p5m6n5e14bepgs/+p+6QOh3Q/I9Aggg4FuBSxve1wvPjdKf5+3SqavhMwjbWnTu0Pc6fCWyW+smv5gwtEeWcn+3TZUv/VVjZn+jWX9NsO6JWv359xM0Zd4STXn1RQK/m4/vEUAAAUkEfncZ7FigKd+cUKsTdGIDf80wI7TFPu9uJur75iZdcM2wym67x0uqjVqwRTXDrMCaONRGreB6cE5fv2/M7ldr/r7IqfrtDds054MP9dYHi7TBdQp/+74vNd6Y5X9/vU67Wkn2bcKgmGylLnstncAfWebJhW7wzncidOYzPXmbMd6ewLtjnDl7XlI2RDPd0/j22IZDfe//2OVs/Fjlr5ywb4T+tA8YOS1k/k3z7CHWNm97TSvDqyccx04H/s64E/ozH03WQAABBApU4MZuvfu7F/XijAO6kaKLmQf+SIOp17XOImCGP2LGdwgggIAhQOCPVwdOcPMG+3qN7m8EwAqVmrO1Fbql39MatyEyU35s+r+qrKxCtwyaJfcEr70ZJ4R5QqR9CnbUKeL2Sim/7tUcI8CPr9FWJ+83aEmldT2/ecO+ypU6YrfTvlsfm8sv1g77uRRfEwZFez3HrFwlAyZr/YbJGtSvj4Ytlo6tmKwhA/9Jt4RnuMsqBmpQ5S61htfd9sErGjSwn8qGfaz1E54OX/7QW7ePsK+Nj4RK62BIk2qG3W2Ow0+HG8tEXrdn0K2QfljvPmZt1wnYy/+on/Xuo9Kwv3UAx5p5v2fCpvD2X1KNKwA7bQ6YrHpJh95+xArS4cc2gXMwZ/Az1mz+bX/QcvPYwy79qW+5ej/xTOxp8+FLPvpWhM8q6dFH5QPf0JdnrIMWhs0vjOvxy8plHwhK7RXu0aFKDTAPPtyr17dYzyUcR9f+OlbOmA7X2wtH6j6zjxW65f43tNw8AyWRuyOS5BtCfxIcXkIAAQT8I1A3Q889+6Y+Ppy6y6lDe+I2Uq9L4E+sxysIIFDMAgT+eKPvBB1v4G9VY1M4pobOas0o63r7EifYSckDf+T055I7RityFZsdnCr02OzIwYN4XYv/nB343QG+XnPDN/AzA//EL7TTWTne8s6Lcb+JBEUrfDoheJjrPAXb7ba71Ssc7o3wWPvHx/TKvD1qNOgaF4Vnze/WK+utTTmh+5FpOtASkho/1qNRQdX2MUJvvfZMeESlZRXq8/Iq16n7kWWcwOo6EOA8Z/fRdcDF3v5PKu4O358hPKPvhODoGX57+RL3vhu7Yrc9bFH48oIKPT63RaGv/6CfGKf4fx3nOvn91RryzHtacbRFIYW0Z6xVU6X/Mkv2bSHs7dmB335cktDLHsJaDfVcQpBwHMPLGeMaa/WYxtcb/WvSgvAlKZH+xXO3t5/q63lde+IfdeFH/4PT+1NR8ToCCCBQqAIbqvTUs1Val0b/Uof2xI2kXpfAn1iPVxBAoJgFCPzxRt8ObqlO3XcCoffAQLxGpdDeSeEZ3goNeDty87kLs4eYQbP04ek6JmNW+l6V96pwZnTjt+Z+9pSWVhmz+bO0zE6JatfxlXM0zpzJn6aqlafkTP6fWqtK4/mq1TrubibJ95GgGB1+o1ax3e74N32867QV8KMWMB5EAuKAt63pACfAOgHaG1Qj61Q88Ih5Z/weT37mCvvR7TqB1bUt5zm7j3ECf8XT87XzZJNz5oGc8Y3e59j+hnfSbntYbTjkl6v0iY9UZdysz7iJn9OeK1R7few2XJd82NuLCfwJvexGvY4Z3rTP7ovLyjmo4TwXGRvH2N58qq9na9X84/+uxh/9g5qGrs7sJpWp2uZ1BBBAAIHuEYgT+I/O+4t14z7j5n2uG+2lDu2Ju5x6XQJ/Yj1eQQCBYhYg8McbfSfopAjyW0arwpwZfUQTD8VryPVcY62GVliz41F3Tm9ermHm8/fp9S3GadyRAGUHPFcrCb+tr6k2b9o3ufZYJNhLar/WokvXnKhvPKNDtdPNZcfXfJ+wPe8LGQX+qFPdQzq99j0NGWgdxHDODHCdom4H2siMuTeoRkyMyyn6PPWM7rltuBZE3dgwskwkeMZ5zhnbSIi3tx/j7QT0yLKGi718ydBFUSHVuVzDDOLWafzW/loz/ZEDCK7A33pIc18drL539gv/dQH7DIrINu3t2f2zHyf2skfP61hAgf/sajX/r39Q438l7NujxVcEEEDAlwLmKf1jNO9EbO+9Id37OHaNxM+kXpfAn1iPVxBAoJgFCPzxRt8JhckCv30deblK+o7T9njt2M+F6jXuAeuu7qV3vxa+/jn8orMtO+hFf7VDnt1Uwq/2rP34War53nVLXM8KLd8vt2b3o84G8CwU52GnA/+p6XrQPCjykP78rTF7Hgnh9r6lDrCRdaw78DdoyoPlir4bf2SZXAf+RNfwO0bhmXfnsX3Jh3MAIRL4V75s/2WBT3XEuJzBqYcuCPzONfwDNXqvNahOn5wZ+vBgx+lbvL6EFg637l/gnIEQzz1OAbmfIuy7NfgeAQQQ8LfAjTpNff5FjZx7NOamfd6Q7n2cyY6nXpfAn4knyyKAQPEIEPjjjbUTuryBP6Tmsz9o4/zJGtLfusla6R2/1bS9kbvCx1zD7wr7JRUjVBM1Kx1v45EAZQfieEvFPteu4ytma6xxqv7EDzR9xcHovw4QatK+FfM1ybyuf5reXeE6xT+2sZhnEgZF95K2m3uG3wmdT+jDRil05is9d4d1UKPvWOMWeK4Z84SnqMeaWP1x3/Mgskwk8J/WtIetbfV+Y7tCoRbtm/J49HX6ru3HeDd/qsfCBytG7w2ptW6XedM+JbhLv21UOny5pXLsPT1QVi7nbv1xQnXtcOtAUMWoTQoZh0MmPWYF6rLhWhAuK/uAiN0/+3GqGX7njIOs79L/mMYfjP6zkj8ZVivrDxTEc3cXhed7wr4HhIcIIICA/wUubajS8Gej/yzfjasXtXRCslP6G7V07EgNfekT1z2GElsQ+BPb8AoCCCCQTIDA79JxgpTrBmbWKdlW8LcCXW/deue96vvoKxo3v06nI1nfbMkb+J3Z4Jg2H9c053p7VyfizIC7X03+/RUdWGpft29c0z9N49/5UG+9U20dCLCv5196WC3JG4p51Q6zMX+izl7SDvvOftoHS5q0/NVfWnfo79FH/UcsUt3Xf1G/nkYQr9CwpZ0L/E7o7jFEMz13jI8EfuO+CZV6sJcRqnvr1oEjteDg13re9af2YsbcfbDCuIletf1XA8pV2muUvjL3t0HTHraCery/cW8Hc5vG+Ron8If2Ttegu6yDR2V3GX/xYZPeH9TfOijxQKWMK0XsPtrt2o+TB/4mzRycuI8x4xinb/YMf+9Rn2vuiEd1qzlmvXX7byZrvXPgKrPAf3PrW2oe/IIuvcI1+05d8A0CCCDge4F2Ne78UhPeeF3DnnvRun5/+Ci98pcP9cm2887eRYf21IE/6l4Axv0AnP8iNwk023Sedy3zWo2OOlvmGwQQQKB4BQj8ARz762d26vMZH2l81F36qzVlxjJtDv+5twDudrfuUmjvZA0w/hJBxWta6Tno060dSbAx+888Rt0vIsGyPI0AAggggAACCCCAAALBFCDwB3Ncw3sV0uWmS1r+zUZdD/R+5mfnLiweYf7FgF7Daj1/MSA//XG2Gtqu1/saByPSuYTEWYtvEEAAAQQQQAABBBBAIGACBP6ADSi7gwACCCCAAAIIIIAAAggggIAhQOAvgjpYt3FrEewlu4gAAggggAACCCCAAAIIIOAWIPC7NfgeAQQQQAABBBBAAAEEEEAAgYAIEPgDMpDJdoMZ/mQ6vIYAAggggAACCCCAAAIIBFOAwB/McWWvEEAAAQQQQAABBBBAAAEEilyAwF8EBcAMfxEMMruIAAIIIIAAAggggAACCHgECPweEB4igAACCCCAAAIIIIAAAgggEAQBAn8QRjHFPjDDnwKIlxFAAAEEEEAAAQQQQACBAAoQ+FMNaqhJe/dP0otzf6Y7P5mkg57ld6zqp97v9XT995CqznsWMh82avPm/6dBH5Vby35wj57b8K2aXIum35ZrJb5FAAEEEEAAAQQQQAABBBBAII4AgT8OivupIztG6s3Nq/XlqvvUOybwN2t+za36/XfuNRJ9v0Fz1nypvVdbJYV0+fhf9ch7t+rl+lB4hUzaSrSN+M8zwx/fhWcRQAABBBBAAAEEEEAAgSALEPjTHN2DG/45TuDfp8lzEs3op2r4O039pKce2WAfLcimrVTb4nUEEEAAAQQQQAABBBBAAIFiEyDwpzni8QP/F3r5vXL1/cA4pf9W3TP3JX3RaM/YH9fMBbeq7+ezdSbuNrZp7Cz3DH+ytuI2kPaTzPCnTcWCCCCAAAIIIIAAAggggEBgBAj8aQ5l3MDf3qLL4Xwfajuqmto7XWcBJA/8TXuf1b2fToncEyBpW2l2ksUQQAABBBBAAAEEEEAAAQQQCAsQ+NMshbiB37tu/XD1fm+4lnqf9zwOnZ6kX897U5uveF5wP0yzLfcqib5nhj+RDM8jgAACCCCAAAIIIIAAAsEVIPCnObbpBP6GzY+4ZvjjN9x09E09/fkH2t8e/3X72XTaspflKwIIIIAAAggggAACCCCAAAJeAQK/VyTB44SBv71F585v1icrHtV9H/TV7+sbwy14T+kP6dzeERo4b1LisJ+wrQSdSvNpZvjThGIxBBBAAAEEEEAAAQQQQCBAAgT+pINp3EjPuCGf9z/rtH3zIMAHP9N9s36hYatnaWeLfcM+o1FP4D8/Rb+Kaaenetd+YfYgeVtJO8mLCCCAAAIIIIAAAggggAACCMQIEPhjSIL3BDP8wRtT9ggBBBBAAAEEEEAAAQQQSCVA4E8lxOsIIIAAAggggAACCCCAAAII+FCAwO/DQcu0y8zwZyrG8ggggAACCCCAAAIIIICA/wUI/P4fQ/YAAQQQQAABBBBAAAEEEEAAgRgBAn8MSfCeYIY/eGPKHiGAAAIIIIAAAggggAACqQQI/KmEeB0BBBBAAAEEEEAAAQQQQAABHwoQ+H04aJl2mRn+TMVYHgEEEEAAAQQQQAABBBDwvwCB3/9jyB4ggAACCCCAAAIIIIAAAgggECNA4I8hCd4TzPAHb0zZIwQQQAABBBBAAAEEEEAglQCBP5UQryOAAAIIIIAAAggggAACCCDgQwECvw8HLdMuM8OfqRjLI4AAAggggAACCCCAAAL+FyDw+38M2QMEEEAAAQQQQAABBBBAAAEEYgQI/DEkwXuCGf7gjSl7hAACCCCAAAIIIIAAAgikEiDwpxLidQQQQAABBBBAAAEEEEAAAQR8KEDg9+GgZdplZvgzFWN5BBBAhlAYGQAAIABJREFUAAEEEEAAAQQQQMD/AgR+/48he4AAAggggAACCCCAAAIIIIBAjACBP4YkeE8wwx+8MWWPEEAAAQQQQAABBBBAAIFUAgT+VEK8jgACCCCAAAIIIIAAAggggIAPBXIe+C9dvir+w4AaoAaoAWqAGqAGqAFqgBqgBuwa8GFuossI+FKAwF8EByS+Xr2Rgy5FMM72Gyhf+TBFDVAD1AA1QA1QA4VeA75MTnQaAR8KEPgJghwMoAaoAWqAGqAGqAFqgBqgBrq1BnyYm+gyAr4UIPAXwS93Zvg5yl/oR/npHzVKDVAD1AA1QA0UVw34MjnRaQR8KEDgL4LAzxtocb2BMt6MNzVADVAD1AA1QA0Ueg34MDfRZQR8KUDgL4LAzww/b/qF/qZP/6hRaoAaoAaoAWqguGrAl8mJTiPgQwECfxEEft5Ai+sNlPFmvKkBaoAaoAaoAWqg0GvAh7mJLiPgSwECfxEEfmb4edMv9Dd9+keNUgPUADVADVADxVUDvkxOdBoBHwoQ+Isg8PMGWlxvoIw3400NUAPUADVADVADhV4DPsxNdBkBXwoQ+Isg8DPDz5t+ob/p0z9qlBqgBqgBaoAaKK4a8GVyotMI+FCAwF8EgZ830OJ6A2W8GW9qgBqgBqgBaoAaKPQa8GFuossI+FKAwF8EgZ8Zft70C/1Nn/5Ro9QANUANUAPUQHHVgC+TE51GwIcCBP4iCPy8gRbXGyjjzXhTA9QANUANUAPUQKHXgA9zE11GwJcCBP4iCPzM8POmX+hv+vSPGqUGqAFqgBqgBoqrBnyZnOg0Aj4UIPAXQeDnDbS43kAZb8abGqAGqAFqgBqgBgq9BnyYm+gyAr4UIPAXQeBnhp83/UJ/06d/1Cg1QA1QA9QANVBcNeDL5ESnEfChAIG/CAI/b6DF9QbKeDPe1AA1QA1QA9QANVDoNeDD3ESXEfClAIG/CAI/M/y86Rf6mz79o0apAWqAGqAGqIHiqgFfJic6jYAPBQj8RRD4eQMtrjdQxpvxpgaoAWqAGqAGqIFCrwEf5ia6jIAvBQj8RRD4meHnTb/Q3/TpHzVKDVAD1AA1QA0UVw34MjnRaQR8KEDgL4LAzxtocb2BMt6MNzVADVAD1AA1QA0Ueg34MDfRZQR8KUDgL4LAzww/b/qF/qZP/6hRaoAaoAaoAWqguGrAl8mJTiPgQwECfxEEft5Ai+sNlPFmvKkBaoAaoAaoAWqg0GvAh7mJLiPgSwECfxEEfmb4edMv9Dd9+keNUgPUADVADVADxVUDvkxOdBoBHwoQ+Isg8PMGWlxvoIw3400NUAPUADVADVADhV4DPsxNdBkBXwoQ+Isg8DPDz5t+ob/p0z9qlBqgBqgBaoAaKK4a8GVyotMI+FCAwJ+3wN+kbz99T+M+3qozeetDcb2xZPxBYvvb6t/zn/XHDThlbEdNCzN+bqgBaoAaoAaogcQ14MPcRJcR8KUAgT/jYHJedUvn661JlRozfpr+VrVYa4+2dOLDffcFfj/P8G/564Mq6T9BW7zjtH2C+pX9mz7xPt+Vjwn8najrxG/sfOjBhhqgBqgBaoAaoAbsGvBlcqLTCPhQgMCfYUA8/M0cjZ36hTadMkL+Je2tnaWxby/Rtkv8Ard/gZtfL17QsROndezEBZ33GJ8/e1Zn0vTqtsB/fomG9srxAQSPQ5QXr3FwgRqgBqgBaoAaoAaKqAZ8mJvoMgK+FCDwZ/SL9ai+qKpU1TenXW9IOzV74jTN3moE/notrJyjL7Zt05yqao0dP00TP92hI4e3hB9Xatz7q7X/0lVt+MQ4Q6BSYz7ZYbW1e5kmf7BSmzYu1tS3pplnD0xZtLdLTvfvthn+S2e0Z/WXqq409j28f+bXaZrw3mdauuOUzu/+UhPGV2rCZ/Uuw8QHS9IL/Kv1at/H9GbNfD3z8z4qLatQ+bOfa9/OueHH5Sob+La+bbqqS0079NavB6isrFwlPfqo99PzdMA8W6BcJcZzxn/GGQXOcw/qze1W/85vmaEnzPbLVdrrFxrxxcnwPlzSt+8M0c96Rtoo7XWPfvlOevtI8E88/thgQw1QA9QANUANBLMGfJmc6DQCPhQg8GcU+Hdo5vhKzdzs/sVrHQR4Z+lRXbpsvD5Nb3+6Rd+db1HjqfV63/X40pmNen98tebWWeubod8O/Js/15iJ7+uj1UfM2e/z2xbpb+PnaeV597YK9/vGo5v00RTjQEU46E96T5Pe+UCT3nlP4+znjAMgU96LPtCRwj+9wP+5niyr0B3PztXm05d0/of39UvX40vHP9Ivy+7S8K+u6tLnI1T66Ps6aIT/8ye1fn2dGow+xLtEwHwuHPibVmj4TyvU/z826+zlqzq74nXd3mOw3vn+qi5tGK3byx7UaxsbdanpqKb/9i6VPvtFWgc0+BBTuDXN2DA21AA1QA1QA9RA7mrAh7mJLiPgSwECf4rAGf2LPp3AP1Nf/GD/cvQuH/04JvBXrdQBuz8/rNQ7491t2W1m/jXnM/xndmjm21bQH1e1WGsONanR3g/j66UmfbdhsaaY9z3wnNngXi7O9+kH/shM/KXLxgGAcj05z7ZyPf76Nd3606Gq3HY2+lKDVIF/zZ/107LfquqU3eYKDe9VrsFzLunSvH9TSd8xWhvuv9nn+95WXZz9ia4nuy2+4kINUAPUADVADVADxVUDvkxOdBoBHwoQ+DMKZdGB3Xpj8s7wu0O6d/nox90V+HP7BnpUS6qtmf0JszbphzjX5p/ZWmOexu/M/hsz/vaZDSn8uzzwX27U9lkv6Z5eFSrr82u9ap+WnyrwG6HePuXf9bXfX3fFzPBXDqrQLSNWMMOfYmxzW5fF9aEJS8abGqAGqAFqwG814MPcRJcR8KUAgT+jUJLqGn4j0Bde4M/pDP+lvZo3ZZrGVq80700Q782mse5LTZwYfU3/u18bl0Ck8eZsnILf49/0iXEKvnv5r/6gW3qM0HzzOWMGP80ZfqeNRm2vGqpbewzVB8asfarAb87wD9Msbz/M9o7q/V/3U5l5DX+Fevz8NdUc9/TX2S7PR40jLtF1jQce1AA1QA1QA0VSA75MTnQaAR8KEPgz/KWa/C79hRn4fR2w7GvnRy3T7tOXzA8BZw8s08j7KnTriBXh0/LTD/wNW7/V+oZGq52NY9SvbJDeMq7D3/22+pc9qD9uuaRLTY06awT7ONfwD5ywUw1m6G/Ukd07tcs4WGAcfHj4fR3MsJZ8PS7sKx9IqQFqgBqgBqgBaiCLGvBhbqLLCPhSgMCf8S+q86pbOl9vmdejT9PfqhZr7VHjT/QZM7eFGfhzOsOfsV/mM9znf1iiVx++Tz16WHfBL+11n/7PK/O1y5ltTz/wH/hspAb8tLd1en7PAfq/7+wIHzQ4qZpXfmFto+djmrTbE/gvX9X5ffP1zAN9nTv83/bASM0zDhacWqKhP43cob+krLf+8eFxWulc75/5PnMwADNqgBqgBqgBaoAaCHIN+DI50WkEfChA4O+GwBrkX9aXLl7QyYudeEO+1KST5+0DJZ1Yv2DG7ZKWjOinn791MHKUv+moJj9arn9+53DkuYLpr5+t6Xugf5fwM8LvC2qAGqAGiqoGfJib6DICvhQg8BfBm0vuZvgP6bOplRozaaHWZfTnA09rxUfTNGbiXK046fcQV68x95Wr3xsbw6f6X5VxycHv+lfoVzPOFtUbN2HU77VM/6lhaoAaoAaoge6rAV8mJzqNgA8FCPxFEPhz9+YVvkP/2zX6NsPA/82MaRoz6VN94/vAf1VnN1bq//5T+FT/snKZlxz8+xIddC456L43z9yNNfuALTVADVAD1AA1QA10XQ34MDfRZQR8KUDgL4LAn7sZ/q77pc8bKJbUADVADVAD1AA1QA0UTw34MjnRaQR8KEDgL4LAz5tn8bx5MtaMNTVADVAD1AA1QA34oQZ8mJvoMgK+FCDwF0HgZ4afN34/vPHTR+qUGqAGqAFqgBoonhrwZXKi0wj4UIDAXwSBnzfP4nnzZKwZa2qAGqAGqAFqgBrwQw34MDfRZQR8KUDgL4LAzww/b/x+eOOnj9QpNUANUAPUADVQPDXgy+REpxHwoQCBvwgCP2+exfPmyVgz1tQANUANUAPUADXghxrwYW6iywj4UoDAXwSBnxl+3vj98MZPH6lTaoAaoAaoAWqgeGrAl8mJTiPgQwECfxEEft48i+fNk7FmrKkBaoAaoAaoAWrADzXgw9xElxHwpQCBvwgCPzP8vPH74Y2fPlKn1AA1QA1QA9RA8dSAL5MTnUbAhwIE/iII/Lx5Fs+bJ2PNWFMD1AA1QA1QA9SAH2rAh7mJLiPgSwECfxEEfmb4eeP3wxs/faROqQFqgBqgBqiB4qkBXyYnOo2ADwUI/EUQ+HnzLJ43T8aasaYGqAFqgBqgBqgBP9SAD3MTXUbAlwIE/iII/Mzw88bvhzd++kidUgPUADVADVADxVMDvkxOdBoBHwoQ+Isg8PPmWTxvnow1Y00NUAPUADVADVADfqgBH+YmuoyALwUI/EUQ+Jnh543fD2/89JE6pQaoAWqAGqAGiqcGfJmc6DQCPhQg8BdB4OfNs3jePBlrxpoaoAaoAWqAGqAG/FADPsxNdBkBXwoQ+Isg8DPDzxu/H9746SN1Sg1QA9QANUANFE8N+DI50WkEfChA4C+CwM+bZ/G8eTLWjDU1QA1QA9QANUAN+KEGfJib6DICvhQg8BdB4GeGnzd+P7zx00fqlBqgBqgBaoAaKJ4a8GVyotMI+FCAwF8EgZ83z+J582SsGWtqgBqgBqgBaoAa8EMN+DA30WUEfClA4C+CwM8MP2/8fnjjp4/UKTVADVAD1AA1UDw14MvkRKcR8KEAgb8IAj9vnsXz5slYM9bUADVADVAD1AA14Ica8GFuossI+FIg54Hflyp0GgEEEEAAAQQQQAABBBBAAAGfCxD4fT6A6XR/3cat6SzGMggggAACCCCAAAIIIIAAAgESIPAHaDDZFQQQQAABBBBAAAEEEEAAAQRsAQK/LRHgr8zwB3hw2TUEEEAAAQQQQAABBBBAIIEAgT8BDE8jgAACCCCAAAIIIIAAAggg4GcBAr+fRy/NvjPDnyYUiyGAAAIIIIAAAggggAACARIg8AdoMNkVBBBAAAEEEEAAAQQQQAABBGwBAr8tEeCvzPAHeHDZNQQQQAABBBBAAAEEEEAggQCBPwEMTyOAAAIIIIAAAggggAACCCDgZwECv59HL82+M8OfJhSLIYAAAggggAACCCCAAAIBEiDwB2gw2RUEEEAAAQQQQAABBBBAAAEEbAECvy0R4K/M8Ad4cNk1BBBAAAEEEEAAAQQQQCCBAIE/AQxPI4AAAggggAACCCCAAAIIIOBnAQK/n0cvzb4zw58mFIshgAACCCCAAAIIIIAAAgESIPAHaDDZFQQQQAABBBBAAAEEEEAAAQRsAQK/LRHgr8zwB3hw2TUEEEAAAQQQQAABBBBAIIEAgT8BDE8jgAACCCCAAAIIIIAAAggg4GcBAr+fRy/NvjPDnyYUiyGAAAIIIIAAAggggAACARIg8AdoMNkVBBBAAAEEEEAAAQQQQAABBGwBAr8tEeCvzPAHeHDZNQQQQAABBBBAAAEEEEAggQCBPwEMTyOAAAIIIIAAAggggAACCCDgZwECv59HL82+M8OfJhSLIYAAAggggAACCCCAAAIBEiDwB2gw2RUEEEAAAQQQQAABBBBAAAEEbAECvy0R4K/M8Ad4cNk1BBBAAAEEEEAAAQQQQCCBAIE/AQxPI4AAAggggAACCCCAAAIIIOBnAQK/n0cvUd/bW3Vi11rNmzFTb0390Pxv6owlWrbrtK61J1qJ5xFAAAEEEEAAAQQQQAABBIIkQOAP0mhKun5so6a/M01jxlfG/W/sO/O18lgoYHvN7iCAAAIIIIAAAggggAACCHgFCPxeER8/bm9Yq3cnWkF/XPUiLdt2VKebLqmp6Zy+37ZWc6rDBwImztayBqb6sx3qC4tHqFdZuXoNq9WFbBvryvVD2/V633KVVIxQTWNXNtwVbV3XzevGf13RFm0ggAACCCCAAAIIIIBAMgECv1cndFbbPhqp/r0qVFL2kMbt9yyw9CWVlpWrJOq/xzXtlGc5+2Hzfs18dbDuNNsrV0nPfrpvxCIdjppkP6yJD3jbLNdPXl5nt5L667V6zZ1shP1perf2sFrirnFFB2pna6wx+z/5C+28FnehuE/WT3jIs8+R/g5dHHeVLnzytJaMfkWD7u+jARMOJG63cZPG/ebnKjPHJs7YJV4z41dCeydrQA8jVL+mlfZYLh4RMRr8qZqjWm3RnCeMmrLcMjFb+8f+Ki3rrYenN0S1mOxBaMto9S4rV+kDk7XH7p+kyDiOUI27gf2TdY+3bztm6rmnB+v2np5l3esZ32fgfqNmqBr/W081/vgZXT3rbYjHCCCAAAJ+FWhrWKfqv7yp4cNf1FPPvqinnvu9nh9VrVXmEfEGffJa+PnJm9PfxbaT+ubdvzptPjPir3pn7RndiGqhXY2bZ+u1ESPN7Q59fnScZaJW4AECCCBQVAIEfvdw73jLDPplPXuHg1lsaLQDU9qBbf9kDbj7NS1qaJVCZzV36F1m271eXqdIDqvVUCNsDZisend/Mvj+/Jo55in8Yz/apPNJ12vS6o+smf7qNU1Jl3S/aO93SVmK8Odeqcu+P6BxA6ygfE/CwB/S8t9Ztj8ZuqiLZtxDqhlmhHTvPjdo2sNWeH+g0hXC3YG/7FeacswF0LxQjxsHCLyh2rVIom87E/ilyAEGdx8TjmO8wO/sj3f/3T3N1P28rg29TRd+9D91gdDvhuR7BBBAwLcClza8rxeeG6U/z9ulU1fDZxC2tejcoe91+Epkt9ZNflFPZRL4Ny3Q3xbZbV7X2VVVGv7sG5pxMNLmjboZGv7cGH383TXzQEBbw3KNeX6UJm2IP/URWZPvEEAAgeIQIPC7x3nHAk355oRanaATG/hrhhmhLfZ5dzNR3zc36UIk2Ut22z1eUq29oB22hjnP2K+k+fWcvn7fmN2v1vx9kVP12xu2ac4HH+qtDxZpg+sU/vZ9X2q8Mcv//nqdTnMLCYNimutnt1g6gT+yzJML3eCd33LozGd68jZjvD2Bd8c4c/a8pGyIZrqn8e2xDYf63v+xy9n4scpfOWHfCP1pHzByWsj8m+bZQ6xt3vaaVoZXTziOdg26++bsj2f/o7rSGXdCfxQhDxBAAAE/C9zYrXd/96JenHHAM/Meu1MZB/6YJg7ow5df1Mh59sH2q1ox/mU99dbGqG3vm/Hveuo/lqWYAIlpnCcQQACBQAoQ+OMNqxN0vMG+XqP7GwGwQqXmbG2Fbun3tMZtiMyUH5v+ryorq9Atg2bJPcFrb8YJYa4QGVo43ApmPSqsywXinvZvtxDv617NMW/SV6OtTt5v0JJK1437KlfqiL1q+259bC6/WDvs51J8TRgU7fUcM+tMhfUbJmtQvz4atlg6tmKyhgz8J90SnuEuqxioQZW71Bped9sHr2jQwH4qG/ax1k94Onz5Q2/dPsK+Nj4SKq0Z/ibVDLvbHIefDjeWibxuz6BbIf2w3n3M2q4TsJf/UT/r3UelYX/rAI41837PhE3h7b+kGlcAdtoMn4Fx6O1HrPHynpFhGwx+xprNv+0PWm4ee9ilP/UtV+8nnok9bT58yUffivBZJT36qHzgG/ryjHXQwrD5hXE9flm57LMbUnuFYQ9VaoB58OFevb7Fei7hOLr217Gy96dsuN5eOFL3mX2s0C33v6Hl5r0BErnbRZHsK6E/mQ6vIYAAAr4RqJuh5559Ux8fTt3j7AP/br37/It6daF9HaV1qUDkAIDVh6Pz/qKnnq1SBhdGpu48SyCAAAI+FSDwxxs4J+h4A3+rGpvCMTV0VmtGha9rd4KdlDzwR05/LrljtOyr2EItTWoOT0q3Hpyhx8xZ5XK5T8WO183Ic3bgdwf4es0N38DPvGP/xC+001kh3vLOi3G/iQRFK3w6Idh9VoLtdtvd6hUO90Z4rP3jY3pl3h41GnSNi8Kz5nfrlfXWppzQ/cg0HWgJSY0f69GooBoJlvdMqNeeCY+otKxCfV5e5Tp1P7KME1hdBwKc5+w+ug642Nv/ScXd4fszhGe0nRAcPcNtL1/i3ndjV+y2hy0KX15Qocfntij09R/0E+MU/6/jXCe/v1pDnnlPK462KKSQ9oy1aqr0X2bJ/jhjb88O/PbjkoRe9hCGLxVxzdonHMfwWQnGuMZaPabx9Ub/mrQgfElKpH/x3O3tp/p6Xtee+Edd+NH/4PT+VFS8jgACCBSqwIaqtMN11oH/4Dy9GHVK/zZNfs49428hEfgLtVjoFwII5EOAwB9P3Q5uqU7ddwKh98BAvEal0N5J4RneCg14O/HN55xA5w2U8ZuVdEpLq4zZ/FlaZqdEtev4yjkaZ87kT1PVylNyJv9PrVWl8XzVah1P2Gb0C5GgGB1+o5ay3e74N32867QV8KMWMB5EAuKAt63pgNj99QbVyDoVDzxi3hm/x5OfucJ+dLtOYHVty3nO7mOcwF/x9HztPNnknHkgZ3yj9zm2v+GdtNseVhsO+eUqfeIjVRk36zNu4ue05wrVXh+7DdclH/b2YgK/Ux9eL7vR2OcTjmO8vtl9cVk5BzWc5yJj4xjbm0/19Wytmn/839X4o39Q09DVrntapFqR1xFAAAEECkYgTuC3AnfsTfqyCvw3juqTP76s4VO3KXJbAAJ/wdQBHUEAgYIVIPDHGxon6KQI8ltGq8KcGX1EEw/Fa8j1XGOthlZYs+PeO6e7lpJxs7WZg8PLDV8e/VKSR/U11eZN+ybXHosEe0nt11p06ZoT9Y1ndKh2urns+Jrvk7QY/VLCoOhezHaLOtU9pNNr39OQgfeq3P5LBeHZ5PQDbCRUGpdT9HnqGd1z23AtiPqTc5FlIsEzznN2H53AKnkDtbNLTghOEPiHLooKqc7lGmYQt07jt86EsGb6IwcQXIG/9ZDmvjpYfe/sF/7rAvYZFJFtevtnP46cYRAb7K19iH0+4Tg6++rqWxyrLgv8Z1er+X/9gxr/K2HfqTe+QQABBPwoYJ7SP0bzTsR23hvwvY9j10j0TIvWTR6lZ/70hX6IukU/p/QnEuN5BBBAwBYg8NsS7q9O0EkW+O3ryMtV0nectrvX934fqte4B6y7upfe/Vr4+mfvQtZj58+9lYVDYvzFYp+1Z+3Hz1LN95Fj394FW75fbs3uR50N4F0q9nHCoOhe1HZzB/5T0/WgGfAf0p+/NWbPIyG8M4HfugN/g6Y8WK7ou/FH2s114E90Db9jFJ55dx7bl3zECdUrX7b/ssCnOmJczmAbJjkgkXbgd67hH6jRe62Bcvrkat98JU7f4vUlcr8J+6aT8dzdRRHne8J+HBSeQgABBHwqcKNOU59/USPnHo26cZ6xN96A732c1h7fuKjVk0dp+OhlnrBvrM1N+9IyZCEEEChqAQJ/vOF3Qpc38IfUfPYHbZw/WUP6WzdZK73jt5q2N3JX+Jhr+F1hv6RihGqiZqXDG29t0slda/XOq4/pp+a1773V71X39enxOul9rl3HV8zWWONU/YkfaPqKg9F/HSDUpH0r5muSeV3/NL27wnWKv7epOI8TBkX3srabO/A7ofMJfdgohc58pefusGax+461/ghh6gAbCZX2QQKrPxV6bLZ9w8TIMpHAf1rTHra21fuN7QqFWrRvyuPR1+kryQx/86d6LHywYvTekFrrdll/NjHBXfpto1L7zIxj7+mBsnI5d+uPE6prh1sHgipGbVLIOBwy6THrhoBlw7UgXFa2j73v9uNUM/zOGQdZ36X/MY0/GP1nJX8yrFbWHyiI5+4uCs/3hH0PCA8RQAAB/wtc2mD8ubzoP8t34+pFLZ0Q/Wf4ogN/o5aOHamhL33iuseQx+LGUS0a/bpemLpRjVEz+5Hl7D/L9+HOi1F/lm/ypquRhfgOAQQQKGIBAr9r8J0gFT7l3LkxXfhafivQ9datd96rvo++onHz63Q6kvXNlryB35kNjmnzcU0zr7e3Trsu7fVP+tmdj2rQm+/pGyNcderfFR1Yal+3b1zTP03j3/lQb71TbR0IsK/nX3pYmf51WjvMxvyJOrufdth39tM+WNKk5a/+0rpDf48+6j9ikeq+/ov69TSCeIWGLY0E7sQBNhIq7dArO3T3GKKZnjvGRwK/cd+ESj1oXkrQW7cOHKkFB7/W864/tRcz5u6DFcZN9KrtvxpQrtJeo/SVub8NmvawFdTdN1a0jZw+2jb21ziBP7R3ugbdZR08KrvL+IsPm/T+oP7WQYkHKmVcKWL30W7XfpzYy9hgk2YOTtzHmHGM0zd7hr/3qM81d8SjutUcs966/TeTtd45cBUZG7e7vcverze3vqXmwS/o0itcs++14TECCCDgX4F2Ne78UhPeeF3Dngtfuz98lF75y4f6ZNt5Z7cyDfwbp76sp54Nt+f+Om616zr+djVunq3XRow0lx36/Gi9s/ZMzNkGTif4BgEEECgyAQJ/AAf8+pmd+nzGRxofdZf+ak2ZsUybw3/uLYC73a275Fx6UfGaVnoO+nRrRxJsLLRltHqXlSv5/SISrMzTCCCAAAIIIIAAAgggEAgBAn8ghjH+Tph/js+c1Tdm+yvjL8SznRa4sHiE+RcDeg2r9fzFgE432TUrhrbr9b7lSngJSddshVYQQAABBBBAAAEEEECgwAUI/AU+QNl0j8CfjR7rIoAAAggggAACCCCAAAL+FiDw+3v8kvaewJ+UhxcRQAABBBBAAAEEEEAAgUALEPgDPLwE/gAPLruGAAIIIIAAAggggAACCKQQIPCnAPLzywR+P48efUcAAQQQQAABBBBAAAEEshMg8GfnV9BrE/gLenivxwFAAAAgAElEQVToHAIIIIAAAggggAACCCCQUwECf05589s4gT+//mwdAQQQQAABBBBAAAEEEMinAIE/n/o53jaBP8fANI8AAggggAACCCCAAAIIFLAAgb+AByfbrhH4sxVkfQQQQAABBBBAAAEEEEDAvwIEfv+OXcqeE/hTErEAAggggAACCCCAAAIIIBBYAQJ/YIdWIvAHeHDZNQQQQAABBBBAAAEEEEAghQCBPwWQn18m8Pt59Og7AggggAACCCCAAAIIIJCdAIE/O7+CXpvAX9DDQ+cQQAABBBBAAAEEEEAAgZwKEPhzypvfxgn8+fVn6wgggAACCCCAAAIIIIBAPgUI/PnUz/G2Cfw5BqZ5BBBAAAEEEEAAAQQQQKCABQj8BTw42XaNwJ+tIOsjgAACCCCAAAIIIIAAAv4VIPD7d+xS9pzAn5KIBRBAAAEEEEAAAQQQQACBwAoQ+AM7tPxZvgAPLbuGAAIIIIAAAggggAACCKQUIPCnJPLvAszw+3fs6DkCCCCAAAIIIIAAAgggkK0AgT9bwQJen8BfwIND1xBAAAEEEEAAAQQQQACBHAsQ+HMMnM/mCfz51GfbCCCAAAIIIIAAAggggEB+BQj8+fXP6dYJ/DnlpXEEEEAAAQQQQAABBBBAoKAFCPwFPTzZdY7An50fayOAAAIIIIAAAggggAACfhYg8Pt59FL0ncCfAoiXEUAAAQQQQAABBBBAAIEACxD4Azy4BP4ADy67hgACCCCAAAIIIIAAAgikECDwpwDy88tdGfj31h/QBzM+lbfNoD429tXYZ/4hgAACCCCAAAIIIIAAAn4VIPD7deTS6Lc3jKexStxFjODrbatYHhP645YETyKAAAIIIIAAAggggIAPBAj8PhikznbRG8o7204xzex7zYx95x8CCCCAAAIIIIAAAggg4EcBAv//3969B1dVJnre76qpd2rmj6n571Sdf6bqnTpTQ1GV0WO1cjIHW+121NP2+Oo5x3672+nuaUfpFiaDiIiKtKitHOjgBZtI0giCiICggKACCsjNcA3XcGkI15AACZBASLIT8pt61tpr77XXvt+y91p8U4XJ2mut5/J5nsT9W7ftx1HLsM3e8JrhbnGbecu52ZbjQHgBAQQQQAABBBBAAAEEEPCBAIHfB4OUaxO9wbxQ5XjLDfpyrm7shwACCCCAAAIIIIAAAgiUUoDAXzL9bu1ZMktTF+7V9SK1wRvEc63GW87NtpyrG/shgAACCCCAAAIIIIAAAqUUIPB79a+f0oZFC/TmWzXWg+qmvP2B5m46p/7wdp1/2aoF78/S1Gqzfqbe+Wijjlz1FpLJcsAC/8KtOtLWoxuJun6jRxePbtV8y8x2dR80aNh7sKwfCpioS7yGAAIIIIAAAggggAACCJS7AIHfO0KXT2nv8Qu6GjIr+nV55zJVVy/Uhsv2hoe3rFPD6S71mrXXT2lVXY2mLD4QOSDgLa6Uy+5QbX7O9ctbTtxy7TadNl43Quru6UnwL2QdCAid2aYZCUI/gT/XkWE/BBBAAAEEEEAAAQQQQCC5AIE/uY295txG1VTP19rWxBs2f/2hJtdtVLO1+rg+f2+hVu/fp8V/rtOU6pl6a8kBtbXuCS/XaOrszTrdL+1eHD7TvfiAXfDRb/TunI3au2uV3nt7pnX1wIxVf8nrcn9vME/cg/SvesvxLn+w95JVSOvOeUnO1M/T9vNmk0tqmM8Z/vTibIEAAggggAACCCCAAAII5C9A4E9mGOpSy/EdWlw3SzNWHFFnku2OrZrtOsN/QAuqZ+rdJXt09nq/+q9s0xzXsq7u0JzqOi09ZBdmhX4n8O9Zoclvvq/5W1t0vV/q3b9S1dVLtDWPG/y9wTxJF9K+7C3Hu7zyaJdVRvLAX6N664BJl458SeBPC84GCCCAAAIIIIAAAggggEABBAj8CRFbtbouHEzfrNNb76/WgUT36V/dp4+mz9fac04hJvB/qNUxyzVasMe9ProcF/gjVwpIsq4scJfllJH5d28wz3zP2C295XiXncB/7eg3Sc7wf6Mj10yZWQb+2tXa3nxVPX0DdoMG+nW9ZZ8WmdsCvmySVWRsU2PqmPHhOn139IKuWvsnrnuycztCqEWbZscfjDB95QsBBBBAAAEEEEAAAQQQ8KMAgT/hqPXr+nXrJn4p1KRlNTWq+dpzTX//Oa2evUAr/uKOnTd34O86tr6ggX91U481OgO9nWo916rmtqsKdTRpZUzg79Elsy7y76S+W2qCuznIMKC+6z2yRzJR4F+iredC0sA1HVmd7HYEAn/CXxFeRAABBBBAAAEEEEAAgbIXIPCnHSL7bP976y5Et7zapBUffqINZ5xn9zurbu7Ar9aGJIG/QS0WUaLQXaNkD+3bes4+s3/l6FrVOQ/7q51nP/gvcoa/TXs+XaXF1r8VmlPrnKWfp7rZJsQnr/uD+laFNKDOpj1qaGpV88l9Wu7U4/rujC7fEUAAAQQQQAABBBBAAAE/CRD4E45Wv653XNGpQ9/pM/MRfOEH7ZlN+6/s08KaBVodF/bN2ps88J/fm/Ap/JNr98q+PiK7wD9j9TF1hD/nb6CvW5dPN2rNkvCZ+Ejgdw9govKTBP6FDWoJSX3n92q+U9a18NUDrrDPJf1uX35GAAEEEEAAAQQQQAABPwkQ+D2jZT11v3qm3pwxT+8v+kabj1+yPoLP3uyC1s5yziC7v6/QbmuDmzzwJwnM0fvtEwXy5Gf4rWcFzP5C3+w7pYtX+2Wd7x+4pkPmwX9OSFenTuzapx3Wv51aFfcpAIkC/zLVt4ak/svav2aVFm88Leuxg12ntf6TT+IOWnimCIsIIIAAAggggAACCCCAgC8ECPy+GKbcGul9uF5upSjJZfrRAx7OQ/s00KFGE6Ajl9jbP395uMMO61k+tK9u9gJX3c5H+0mdR9a6Av8F1XvOyMf2O0HgjxwsSCCS4KBFgq14CQEEEEAAAQQQQAABBBAoewECf9kPUe4NjA2+uT98zluOdzkS+NM2Nbsz/PWtNxTqvGQ/kK/tmuyH9Yd0evM8V+D3PrSvVY0bF2ny0t06Zj3I74q6rXb1q/NCq5qP79ai2k/0sfugBGf4044cGyCAAAIIIIAAAggggID/BAj8/huzjFvsDeYZ7+jZ0FuOd3nRwQ5rj77zB7T801VavvuC/WT80AXtXLVKi1cdUGuf2aRD+60n6EevDjBlJXto35pDHeoKhW/i14D6eq/q7M7Vnof2eRorqWWH+5J/z/oEZ/AjtwckWsfH8nkAWUQAAQQQQAABBBBAAAG/CBD4/TJSObTTG8xzKMLaxVtO3PLCg7o4IPWcrreepj9j9QlZH1bYfUbrzGfbz67XqR5p4MphLU1w+X2ywB9XT4J9B2ObXN3YDwEEEEAAAQQQQAABBBAopQCBv5T6Ra7bG4Zzrc5bTqLl+d+eijxRP1E9NzpOad3C2DP7TjkE/kRivIYAAggggAACCCCAAAII5CdA4M/Pr6z3dgK18z3Xxjr7p/1u3Ru/QRsjT83fpx2bN2hxgiffpy2rRGfzE7UrVzf2QwABBBBAAAEEEEAAAQRKKUDgL6V+kev2htdcq/OWc7Mt5+rGfggggAACCCCAAAIIIIBAKQUI/KXUL3Ld3mCea3Xvz13k+ni8xJfle+sKyrLpO18IIIAAAggggAACCCCAgB8FCPx+HLUM2+wN3RnuFrfZgcYjN23gN33nCwEEEEAAAQQQQAABBBDwowCB34+jlmGbCxX4TXUm+N5MZ/pNXwn7GU40NkMAAQQQQAABBBBAAIGyFCDwl+WwFKZRhQz8hWkRpSCAAAIIIIAAAggggAACCAyWAIF/sKRLUA+BvwToVIkAAggggAACCCCAAAIIlIkAgb9MBqIYzSDwF0OVMhFAAAEEEEAAAQQQQAABfwgQ+P0xTjm1ksCfExs7IYAAAggggAACCCCAAAKBECDwB2IYE3eCwJ/YhVcRQAABBBBAAAEEEEAAgZtBgMAf4FEm8Ad4cOkaAggggAACCCCAAAIIIJBGgMCfBsjPqwn8fh492o4AAggggAACCCCAAAII5CdA4M/Pr6z3JvCX9fDQOAQQQAABBBBAAAEEEECgqAIE/qLylrZwAn9p/akdAQQQQAABBBBAAAEEECilAIG/lPpFrpvAX2RgikcAAQQQQAABBBBAAAEEyliAwF/Gg5Nv0wj8+QoWYv9OHd39F7X3FaIsykAAAQQQQAABBBBAAAEEMhcg8Gdu5bstyznwn1z8up54aZlO+kR10/SxemL6tuxbe/ZzvfjUC3qvIftdc9kjnWtf02pNfn6Cqp59WbU7cqmBfRBAAAEEEEAAAQQQQMAvAgR+v4xUDu0MTOA/tUzjnxqrUTMb5D1R3tcwV1VPjdX4xWdyEMp8l5wDv/rV1XE9rt2Z1+xseUYfv5Son9v01lNj9dYWe7t0gX9X3Qt6enZjAdrjtIvvCCCAAAIIIIAAAgggUK4CBP5yHZkCtKuQgd8KvG+v1Ia6aXru+Qn6XdUULW7qt1p5sf4DvfTsRI0e97KqxkzS5JUno4Gy57g+/eMrGv3syxpjtvmXr2SiuRNM9+3/TFNfelkjqyZq+pbOxL0OB/4nnpqqT8+7N7mg5X+YoFGjXUG4bYdqJk206xszQc/8cbWOh48S2HV+pC8Wv6cXX5zoqdMOztWfbVXN669p7Jjx+t0rn0f2tQP/VjWv+0ATX4ztv9Sv5o2z9cKYCRr97ARV/X6+tneYdu5W7bgJ+t1Tr+vjU3a7rXKmfaJP356s5559XiMnLNHeM1v1p9df03NWnauSXPWQReB/8UOtcPo4epL+FHbd9v7LqqoaqxGjJ2rMuLe1/Kzbkp8RQAABBBBAAAEEEEAgaAIE/qCNqKs/BQ/8L32ixi475B9f+JpGzNhp1Xat/aK6wqG6b/9HenrULG211vRr+8wXNHbukcgBgJ4u+2y3Fb7Hz9V37b3Wln0b39MTL39uHQxwdcH+0QT+UX/S9OkvxJzlt87uv/qFPp3uCvzXLut8uI3qa9Sfx43T9Hq7GKvO0e9pzYVEddqBf/xHR8N9OamPXozuawX1N77Q2QT91/kvNPGpqfqk2dj06+DcSRpRvVHXrGpNuZ7A/+oKne4xK+0Q/3TNdvse/74GzRj9e81utNsb+98sAv/o9/RNuz1OfY0LNXbUn/S13RiZfhT7aojYdrOEAAIIIIAAAggggAACpRIg8JdKfhDqLXjgd93DboVn13KkO31bVR0JuPv03uhoaI5s4zrDH7mHf0tt8nv6TeA39/tbwb9ay62z/Obs/kS919CfIsT2a8Pb0YBrn+F3PTcgps7YS+OdMO5cKm8Ffld/3f2/uLI69mCFKTdy0CNB4HeVExvA7VDv1On2ctoTH9Zj2x3XR5n10TGIrS+2BpYQQAABBBBAAAEEEEAgWAIE/mCNZ0xvBi3w9zRr5/LFerfmfVW/Psl1CXts2HU3Li6YxoRv95aSnMCvLm2a/oKq6vapp2Gunv7DarVKnsDfq9O7v9Tcmvf17tvT9ExV8QO/1ZeqCRoz7mX737PPa8RTtdpkdSPWwHvgIDaApw/8Tzw1Von+OQcJ4lytwB+9xz+2Po8ziwgggAACCCCAAAIIIBAoAQJ/oIYztjODE/gv6NNXx2p87Xb95WKbOnrcAbdAZ/gb5mqU80T/o4s1dtSrGv+CfXbf9NgdYluXT9UTL83R5mNtutDRG7MuLgzHHGQw7Y4GY+eMuhOkvUHdKit8pt46wz91Q/gS/tgxkBW4PZf0D/oZ/uinBLitvC1lGQEEEEAAAQQQQAABBIIlQOAP1njG9GZwAr8J9c595/1qXvsnVUUu6U9wD/+Fi7qS7SX9McG8S19Xj9OIqRusckyH3SHWegr93COWQ9+5DfqXZ4p/hl/nV2tS1XStth7UZ6ruV3u78wBC9wEQu63uj/dzt917kCFmMMP3+2d0Sf+4D9VgPSNA6ts5R6Oematd4WcsxNYXWwNLCCCAAAIIIIAAAgggECwBAn+wxjOmN4MT+Pt1fGm1Ro6eoLHP/1F/2nhAX73zmsaM+1DWp9Z3NOrjP05S1ZjwU/onfabDeQV+ST2dancezOcJ/H1Nn+vl0c+r6vlX9Pv3tqphzUw9N87+zPlineE36Fd2zo98UsHoZyfqpUXHwmMx+IF/bPVsTX7efGrCRFWNqdbc/c7Bh9iDIzGThQUEEEAAAQQQQAABBBAInACBP3BDGu1QIQN/tFR+QgABBBBAAAEEEEAAAQQQ8IMAgd8Po5RjGwn8OcKxGwIIIIAAAggggAACCCAQAAECfwAGMVkXCPzJZHgdAQQQQAABBBBAAAEEEAi+AIE/wGNM4A/w4NI1BBBAAAEEEEAAAQQQQCCNAIE/DZCfVxP4/Tx6tB0BBBBAAAEEEEAAAQQQyE+AwJ+fX1nvTeAv6+GhcQgggAACCCCAAAIIIIBAUQUI/EXlLW3hBP7S+lM7AggggAACCCCAAAIIIFBKAQJ/KfWLXDeBv8jAFI8AAggggAACCCCAAAIIlLEAgb+MByffphH48xVkfwQQQAABBBBAAAEEEEDAvwIEfv+OXdqWE/jTErEBAggggAACCCCAAAIIIBBYAQJ/YIdWIvAHeHDpGgIIIIAAAggggAACCCCQRoDAnwbIz6sJ/H4ePdqOAAIIIIAAAggggAACCOQnQODPz6+s9ybwl/Xw0DgEEEAAAQQQQAABBBBAoKgCBP6i8pa2cAJ/af2pHQEEEEAAAQQQQAABBBAopQCBv5T6Ra6bwF9kYIpHAAEEEEAAAQQQQAABBMpYgMBfxoOTb9MI/PkKsj8CCCCAAAIIIIAAAggg4F8BAr9/xy5tywn8aYnYAAEEEEAAAQQQQAABBBAIrACBP7BDy8fyBXho6RoCCCCAAAIIIIAAAgggkFaAwJ+WyL8bcIbfv2NHyxFAAAEEEEAAAQQQQACBfAUI/PkKlvH+BP4yHhyahgACCCCAAAIIIIAAAggUWYDAX2TgUhZP4C+lPnUjgAACCCCAAAIIIIAAAqUVIPCX1r+otRP4i8pL4QgggAACCCCAAAIIIIBAWQsQ+Mt6ePJrHIE/Pz/2RgABBBBAAAEEEEAAAQT8LEDg9/PopWk7gT8NEKsRQAABBBBAAAEEEEAAgQALEPgDPLgE/gAPLl1DAAEEEEAAAQQQQAABBNIIEPjTAPl5dSED/4HGI3p/7iJ5y2S5pmgmxtu4Z/vFWBVvTIIy35lbzJFynMu5zsts/0ayPQIIIIAAAjeTAIE/wKPtfUOXa1dNgPSWxfLgBYZsQj9jNXjjEoTfAeYW86Uc53E28zLX/6+xHwIIIIAAAjeLAIE/wCPtfSOXa1c5s1/aUGD8M/1irEo7Vt7fuXJfZm4xX8pxjmYzLzP928h2CCCAAAII3KwCBP4Aj7z3jVyuXfWWw/Lgh4RMx46xGfyx8bs5c4s5U45zONN5yXYIIIAAAgggkFqAwJ/ax9drvW/icu2MtxyWBz8gZDp2jM3gj43fzZlbzJlynMOZzku2QwABBBBAAIHUAgT+1D6+Xut9E5drZ7zlsDz4ASHTsWNsBn9s/G7O3GLOlOMcznResh0CCCCAAAIIpBYg8Kf28fVa75u4XDvjLYflwQ8ImY4dYzP4Y+N3c+YWc6Yc53Cm85LtEEAAAQQQQCC1AIE/tY+v13rfxOXaGW85LA9+QMh07BibwR8bv5szt5gz5TiHM52XbIcAAggggAACqQUI/Kl9fL3W+yYu1854y0m5vLBBLSFJfdd0/lyrml3/zl/tlxRSc/0SPuavOruQkenYpRybDOucsblZPX296u7p1OE1djvXn7iu7p4edZ8/oAUZllOItlBGdvMkF6/iza1vdLDjhqQB9TTv0gfMG/7uZTEHMp2XbIcAAggggAACqQUI/Kl9fL3W++Y/1854y0m5vOOCXc1Av3pMQHT96+kbsNe1NgzSG98l2noupIGrx/Tt3su6ceOyGpYWP0Cl9MniDa+7nEzHzr1Pbj+v1O7z3Wre85UWf7oq+u+TTzQjx7bn1o7yG6dFZg4N9OrExvJrWz7GRZtbK4+p0yk8dFbrB2P+LD2othsD6jn53SD9jfH3XFh/slcDZfp30Zk6fEcAAQQQQACB/AQI/Pn5lfXe3hCQa2O95SRfXqavjndqoLdTra4z++6z/K0dvRroOKmvFqZ6o/yNjlyLbe2N0FWd3fFlmjfxy7Tp9DXZxxUuqL46j8C/9KDO94R0Y9AOTqTyqInFSLGUfGxSl+/sN2Nrg3Zvb1Znr+tgTW+XLhw9rm3fzkvj760jfhytpqcwXbTtnDp6+9W8w1tWYZcX7W1Td+iGWrKop/CBf6MaL19XqKNJKwcjDCepI8V0ilnlzJHMv5vfx6vq7rmuiwfXpz9gtLlZfabG83vD267X0S5JXSf0RbjtW88NSH3N+jZJXyYPcuBfaTUwypRuPs1YfVgXu81VD9K1o99k+ftU2N8BM44E/ujY8RMCCCCAAAJBFSDwB3Vkpbg3k7l2NfM3+A1qkdS6M0UwrN2rVilN0HKCYpeOfFmjybN3qdkkgYFWbU32Rt+87pxRvNSo+am2y2Tdl02yjjmkCKeZu+T/Rj3TscuvTV9q/5WQrnf1qufSYX1RW6PJtet1qKNfPV3dCl05rKWZ2EW28Yxj5PXkHk6AShec8utnjfKvZ4G2nuuXruUT1u3fl/zKSG6ZqVFx5tYSrfpun3bscv5t0ZJ04z//oC6axvSc1tdm26WHddlqXIf2W1fmbFZTj/kz0JD+4IFVVyHGKL1vvfmDlvZvml2OdcBCvTqR9cGz9O1IO961a3Sow/yBHqwrrPJrs63KfxFAAAEEEEAgXwECf76CZby/9w1grk31lpN8+Tsd70531rRBLTd6dDzlZdGeoOgEfuey4IU7dLIzJOs82UC/rp7eofnV4fDkdNIKYvYZxpC9ofqut2v/6nma7Nx2YN77Hj6olu6r1oGF+TtaZZ18M2W2d6jHlGW9OZ6nLw6263r4loQb3XY5TmiUunRi3yld7mtVfXU222b+htjpVrrvyccmSV2z12pn0yV19PSo4/JVhTqOamn1MtW3htR9Yqs2nQnpWtO3qqteo0OdIV3rvK7urg6dPbpTn5kDAilDnGccXdvO/7YpcqZzoK9bLQ321RuOqT0uZuBuqOPIen0dOZMatT6W4LX6hVt1pK0nMjeut+4PB81lqm+2Xx/ou6a2K70WpTmwsGjbGV2+3q+WY+GzrwO9OrvjW21vtq8WudF1Ul/vDd+qEg52TshzxqNlx0p9d7JD1/suqHHvBXse3biqQ2a+1a6OlGX6E7p8Ql/PN3ZO4D+jPU0d1pUpA72tqjdXv3xzSBc7Q+o4dVQnr/ZrwDgc2qp1R9utsgd627RrmSnDM8evntWmlFfPxI+Z04d031OPtbfcJVrVeMk+Y28VbK648W7jXV6p/VfMxnbA/2DvpUiTrIOI4QMAF/cu0eR0fwNaGxQ/RjXp9zv/FzW09qjDnH1PWIe3zTWRepyDVJH5ZP1tSTSH7W6Z7a0z/tfN+JqpHlKH9bfM+b0xlwGE58a5hszmaW2NEv9uucq0qu9SS6u5fMJ8hQ+sevp7vS180K96o/a1mb8NCeZpsvkXmb+NOnbF9G9APecasjoQG24c3xBAAAEEEEAgTwECf56A5by79w16rm31lpNyeceFNGfvG9SS9gyT982ppP5rOln/hWZUm7PQA1JPszbMrtH8feYc4IBadszTZM9Z+aUHO6w3mhf3fa4Zs+t1yiT48EEDJ1jaJl06sr5BLeZdd/cZrZs9T3O2NEcCv3mInXkOYfuBzzWjdqtOmHLCZ3ZjQ8UF7c5i2/QBKBouMh27lGPjDVzzd6k5FNKlo9u1/NMtOnZtQAMDIbXsWKbJtTt0JjSggb4Wbaqt0cpDV9V344YGrp3UN6u2aM+5bt242mRfBeAtN7LsjGM4UERer9H8z9bqw9nmCoJvdczkjvDVG864xFiHL+H2Whu/uNcWfqHlHy/Q5Op5+qrpujU3mutrNGPHBStUdZ/aqrraT7TxdDTwx9ZpX4HizK8vjkXLcLazg50T1p0z/E5fL+vAZws049sz1vzpO7NNk+d/rk/Dz0Co291mDWXnkbXRwB8zl6XLB1dGDkr1nK5XXXX40nZd1r4l8zRjp3UeXKYMe4736tSmBZq8sFHtFmWmZ8Dt+VWUuWXG2vl9tCrIJPDX6OsTZlwG1Fw/T/WtA+prvWCd9TeO9hiagwGZ/g3wjlEG+4Uxrh3dl/zvjGsem983Zw46gd+ZJ+2NX6jO+XsRM4fDvw+123Ta/GEJ/81ZeMD+W3Zp/8ro3HAGp7UhclWK/buRfJ4m+92KjIfr76/ddtOesM3AJe1ZMk91m+y/f6HT5lkIYceeZm38cF74b649T5POv/BB1Z7T2zWndpn2WMdunCs1on/XUv29crrOdwQQQAABBBDIT4DAn59fWe/tfTOVa2O95aRc3nFB15q2RB/25n7w26ertHz7OXW73nAmLssJT84b48+187x5wn+Pjn0dfvPp6Yx1P6wTMMLlR9/M2m8w3cvOm3LnTXrcm2FXWc62sVXaAcZdpulLNtsm7nviN8OxdSdfyqZM09aeU1uty6OtgxodR7Vs/Wl1d5/S6uoafXumX1ZgNeG/r1MHl32pgx39OrPV3LKxTA1tN3ShIdUnLjjj6G6vGdN5+mxnq3WvfvgxjpJsT8fPHhdn/8TWpq9e/xkr9upsZ2/4OQ52vaas2HJjl2PXxYZE9zr3z5EQFLmkP7atMfPJuurguuwrTew22fdvx9blXHlirQsHJns7T9mudXb/3b7Rg1GZzgXP3kkXMy0vsp3zO2SVmFngnxy+j//a0YNq6jFzzQRRu08N5mCA5Z3p3wCPrxNcPT1M9LcjMr6Jtrw8ArYAACAASURBVM0w8Kedw46P8/cwZtnb9tg5G2lfeP5F52by362YORnuQ/T3x1ufe9n9c03kYJRxSzr/XHM00e9pZI54LN2ve+hZRAABBBBAAIEcBQj8OcL5YTf3myfzc65f3nJSLltv9HrU0tioM+4H7/V1qGlfky6ae/GdN7hJ3+w5AScc+F1B+trRU9ZzApwz7DFtiXnDHB8Go29uvW+eXWcjnba5yoq+mY4P4+4yTVuy2Tam7Ukt7DozHbtsyjRtt0PJcjW0h8JB3ry5b9euD2q0/Mg1DZiP5+vt10D4UxesT1q4uF/vh/va3bQxxWX98eNotc+5V/vSUS2Z7WxTiMC/RA3WCXT7LLt7LNw/e8cpdl1suHGvc//sDVyTq2P74Q5X9lnrXp3a8ol1ltqMpR3kY+vKPfBHf0+yGX9n22LMLats53fIqiDDwO/MjWtdujZwQfXm6hL7yX26dk3qObE5esY5crDF9Xvp1Gn9Hnt8ncCfdj9TnndfVx2e31Un9Nq/S057nd+t2HkR8/cipq3ev0Hx9aeaf5F1jeHnICT43XLPSWfso+3x1udedv+cKPAnmH8E/kx/rdgOAQQQQACBogsQ+ItOXLoKnDd1zvdcW+Lsn9F3643egPp6e2LOaFr3Lpun3ptGOKHa88Y5Wr7zJjn8RrL2c+1pM+eCzRm/9TpoHjylLh1bay7dXqAVu49px0rvG+aa8OXOA7Iv6d+qE93xl/Q7b9Inz9+vC9Yl/af1de08LdzeGr2kf2uLdS9y3/l9WlhboxlL6nVkv/2xX9E3zHYgmJHFttH+Jg8TzjaZjp2zfSbfTUiIBPbaefaD0JYd1RXvU9BrzXMX2rXLuu/caes8bTrbb19+nuk4Ots5D2MzT2N3brXQRW2PhLsMwlK4rFh/5x5wU9YCbQhftm/u//6god2+pP/EZs2o/VzfnYu/pN+eC7HhJhKk4q4SsB8gp54zWle7TJ+t2BH+ZIlwsHWFOXOlhHRdR1fPk33ZttR1bH18qHSHJPfP3oMJrnVLG+0PvrOfs1CjulX7dGiXuV3AGaf034sxt6z6HQOrggwDf7UzhpLaDuoD0w/n6f3q1+nNpj/mSpNM/gZ4x2hrhvulqcNja89BZ85mEfi9l/Tvu2TdghRzSb/r4IR7LnoPSETWHQ0/6DDB79Zk52CKeahp7Wp9tsx9UNRzSf+3Z2T9uXRf0u+0JZP559rGzIXY39P0c9LswxcCCCCAAAIIFEaAwF8Yx7IsxfumP9dGestJubzssC5Hr9NOUOWALh9M9/F6TuCP7n4jdF0Xj261HvpkX7YdfWjf9bZj9kPQnIAROaDgeaBZgof2mRrsoGcetndZPabtN3p0sfGY/ckAVlnLrIelRR7aF/6IQOdNtt1K5yxXNttm9sY3mze/KcfGE1QmL2xQS2+3mnev05zaGtV9tl1NV2+o84j348Lm6Yuj19Rz6ajWfmgeQveJVu1rVyjUqq0xBwG8/XHG0bFx1jsP0BtQ35VjWrej1XIfOLfLc4WEs/8FRR/QZ7Tt8hL5Ow9eHOjr0KFvG3S2d8B+PkDteu1v77VCv3no4sHDrdZBHDP2TjnZBf4ardxvP0DP3HPecehA0sA/Y/UxXTYPfLzRo7M7TOg0h72u6dDK2IMLuZzhtx8IeDV8cG3AejDlofWpbrNwxiD6PfpblvqnrOZWdY3m77zoemhfpw59nuLTO1xz074iQrIezmdeNweczO9l+Iy/aUemfwNix2htkv3C4+B0P/z3I2kdrrY6c8fZNX4+Redw9JkT0d+HtA/tMwWHg7ZTV+p5mvx3a3L1En170vnY0hs6+50niCd9aF+KeWo9kDLB/CPwO1OC7wgggAACCJRcgMBf8iEoXgO8b9BzrclbTrrlzc0m0Azo8uFvo/fybzihTvOm3XnSvutNc7ryWJ/52a5srWYs2aXjl6+rp69foa4Ondy9VnUJx2aBvtp/QR09IfX19aqrrUkblmQW4LJtE9tHw/hgWGT6dyGbtqxv6tL1nh51x/y7rtY9X2V19UE2dbLt4M6bYntnOi/ZDgEEEEAAAQRSCxD4U/v4eq33DVmunfGWw/Lgv7HOdOwYm8EfG7+bM7eYM+U4hzOdl2yHAAIIIIAAAqkFCPypfXy91vsmLtfOeMthefADQqZjx9gM/tj43Zy5xZwpxzmc6bxkOwQQQAABBBBILUDgT+3j67XeN3G5dsZbDsuDHxAyHTvGZvDHxu/mzC3mTDnO4UznJdshgAACCCCAQGoBAn9qH1+v9b6Jy7Uz789dxH23Ce9rH5ygYPwz/WKsBmdMvL9bfl1mbjFfynHuZjMvM/3byHYIIIAAAgjcrAIE/gCPvPeNXK5dPdB4hMBfwsBv/DP9YqwIcN7f+1TLzC3mS6r5Uap12czLTP82sh0CCCCAAAI3qwCBP8Aj732zlk9XzRswzh4Pbjgw3rm88WWsBnecvL9nflhmbjFHynGe5jov8/l/G/sigAACCCAQdAECf4BH2PuGLsBdpWsIIIAAAggggAACCCCAAAIeAQK/ByRIiwT+II0mfUEAAQQQQAABBBBAAAEEshMg8Gfn5autCfy+Gi4aiwACCCCAAAIIIIAAAggUVIDAX1DO8iqMwF9e40FrEEAAAQQQQAABBBBAAIHBFCDwD6b2INdF4B9kcKpDAAEEEEAAAQQQQAABBMpIgMBfRoNR6KYQ+AstSnkIIIAAAggggAACCCCAgH8ECPz+GausW0rgz5qMHRBAAAEEEEAAAQQQQACBwAgQ+AMzlPEdIfDHm/AKAggggAACCCCAAAIIIHCzCBD4AzzSBP4ADy5dQwABBBBAAAEEEEAAAQTSCBD40wD5eTWB38+jR9sRQAABBBBAAAEEEEAAgfwECPz5+ZX13gT+sh4eGocAAggggAACCCCAAAIIFFWAwF9U3tIWTuAvrT+1I4AAAggggAACCCCAAAKlFCDwl1K/yHUT+IsMTPEIIIAAAggggAACCCCAQBkLEPjLeHDybRqBP19B9kcAAQQQQAABBBBAAAEE/CtA4Pfv2KVtOYE/LREbIIAAAggggAACCCCAAAKBFSDwB3ZoJQJ/gAeXriGAAAIIIIAAAggggAACaQQI/GmA/LyawO/n0aPtCCCAAAIIIIAAAggggEB+AgT+/PzKem8Cf1kPD41DAAEEEEAAAQQQQAABBIoqQOAvKm9pCyfwl9af2hFAAAEEEEAAAQQQQACBUgoQ+EupX+S6CfxFBqZ4BBBAAAEEEEAAAQQQQKCMBQj8ZTw4+TaNwJ+vIPsjgAACCCCAAAIIIIAAAv4VIPD7d+zStpzAn5aIDRBAAAEEEEAAAQQQQACBwAoQ+AM7tHwsX4CHlq4hgAACCCCAAAIIIIAAAmkFCPxpify7AWf4/Tt2tBwBBBBAAAEEEEAAAQQQyFeAwJ+vYBnvT+Av48GhaQgggAACCCCAAAIIIIBAkQUI/EUGLmXxBP5S6lM3AggggAACCCCAAAIIIFBaAQJ/af2LWjuBv6i8FI4AAggggAACCCCAAAIIlLUAgb+shye/xhH48/NjbwQQQAABBBBAAAEEEEDAzwIEfj+PXpq2E/jTALEaAQQQQAABBBBAAAEEEAiwAIE/wINL4A/w4NI1BBBAAAEEEEAAAQQQQCCNAIE/DZCfVxP4/Tx6tB0BBBBAAAEEEEAAAQQQyE+AwJ+fX1nvTeAv6+GhcQgggAACCCCAAAIIIIBAUQUI/EXlLW3hBP7S+lM7AggggAACCCCAAAIIIFBKAQJ/KfWLXDeBv8jAFI8AAggggAACCCCAAAIIlLEAgb+MByffphH48xVkfwQQQAABBBBAAAEEEEDAvwIEfv+OXdqWE/jTErEBAggggAACCCCAAAIIIBBYAQJ/YIdWKlTg7+/v16EjxzR/4TK9+e6suHK99bBcg1F1rIGZN2b+mHlk5hNfCCCAAAIIIIAAAgggUHwBAn/xjUtWgzd459oQE9LmfPiJTp9p1sDAQK7FsN9NLGDmjZk/Zh6Z+cQXAggggAACCCCAAAIIFF+AwF9845LVUKjAb87MmrDGFwL5Cph5ZOYTXwgggAACCCCAAAIIIFB8AQJ/8Y1LVkOhAr+5HJsz+yUbxkBVbOaRmU98IYAAAggggAACCCCAQPEFCPzFNy5ZDYUK/KYcvhAolADzqVCSlIMAAggggAACCCCAQGoBAn9qH1+vJfD7evgC23gCf2CHlo4hgAACCCCAAAIIlJkAgb/MBqSQzSHwF1KTsgolQOAvlCTlIIAAAggggAACCCCQWoDAn9rH12sJ/L4evsA2nsAf2KGlYwgggAACCCCAAAJlJkDgL7MBKWRzCPyF1KSsQgkQ+AslSTkIIIAAAggggAACCKQWIPCn9vH1WgK/r4cvsI0n8Ad2aOkYAggggAACCCCAQJkJEPjLbEAK2RwCfyE1KatQAgT+QklSDgIIIIAAAggggAACqQUI/Kl9fL2WwO/r4Qts4wn8gR1aOoYAAggggAACCCBQZgIE/jIbkEI2x/eBf8UYDakY5vn3qN48lr3SyRk/05CH63Qy5a4h7a/7rf7+tmEaMnJVyi2LunLNeFXcNl5fFbWS0hVO4C+dPTUjgAACCCCAAAII3FwCBP4Aj7fvA3/M2IS0f9qj+rtxmxSKeb2QC7s08c77NW5jdyELTVtWaPsbGl7KAwxpW1jYDQj8hfWkNAQQQAABBBBAAAEEkgkQ+JPJBOD1IAV+KxQ/8Jb2h9P+spHDdO+0I+FRWqURFWO0zCx17NIb/3yXhoavDLjl/t/qtVmTda9ZDofqY3W/0oMT5mrqY/dpaEWl/q5qldp0RFMfiF5NYJXdvl7PPWiXNfT2BzVi/knrYIOpe0jFQxo1Zbzuu/1RTT30jZ6rHKNXa+yrA4beOV5Ldn2qKmvf4Xpwht3Oja89pO+bqwcqKnXrg69rXYekmKsYHtHUQ6YvwzTkgelqNP1J0gYdm6N/fPgV1U37X/q7W4Zp6J3Palm7zRE6MEeP3T08XM8krbFet9tYvXi8fmjacNvP9OaB4h06CQ9Mwm8E/oQsvIgAAggggAACCCCAQMEFCPwFJy2fAgMT+NtXacSdj2qqK6AmC/zn6n6pIT+fq5aQ1L20SkN/UiPrDgATrMOBv3HaI/rbX83Vwc6Q1P6Rflrh3CZgwrYJ3WYMO7XgN5W69/W9Muf7uxv+qHtv+Z+adc6sMwcH7te41RfUYWVms98v9Fr9WXXrkmb/fJgqR6/U6W4ptOUVVTrhPTI1urXw8WH6xfxO6xXTHqdt1guHputea58UbTDb3PGk6ho7FQrX+cA7TZL26pV7HtGrDVar9e3z92v4H/ZKsvv2/DemjSFtnnC/hlatibRoMH8g8A+mNnUhgAACCCCAAAII3MwCBP4Aj34wAv8lLRt5nx54xzmbbw9YssDfMf9JDfn5R2ozId0E/n+eIyujewJ/7NUBTsh3B/5NeuaOh/TGAWeCmJBfqZFfmmXzs7OPWTb7ha8wkBTTtkh4l06tGK8fV5oz7/aVBE4bkgf+FG1wlWtaEKnz3Bw9HC7fqcc+mBDbxrg6nW4OwncC/yAgUwUCCCCAAAIIIIAAApII/AGeBkEI/G3zn9TtI5ZbAd49VJGAa73oCrPdX+m3lcNVUTFMQ2//H3pju30W3bp03nWG3wnbzplv+6y+O/Cb+/kLGfhNeP+xnl5pzrC7ArqkuPAdCfMp2hDZxlaJeFiBv0pL4q7WdxklqtONW+SfCfxFBqZ4BBBAAAEEEEAAAQTCAgT+AE8F3wf+QzV64M4xkXvT3UO1btzdqpxQr5BC6mj8k/67c4Z9xRjdM8W6+929uX2vfFaBP8Xl9Dmd4V+jkbf8XO+ekrrPfKoRldFnEISWVoWvSggpZIJ6JMynaENkG7ubkcBvXdJ/tx7/yD6wEOo8pYMnzEEPAn/shGAJAQQQQAABBBBAAIHgCxD4AzzGfg/8q6oqI5e/Ry5PD99vHzpQoweth8/9gx6b9mc9fU/4kvqGP+pO1yXtFXePtw8YZH1Jf/IH5plwbbfHuaw/NkxHw7c7vIdUP/n/U4V5SOBjc7R54f9WhfPsgPZVqrIesjdc1m317jCf7KF97m08VwxEH9o3TBWVP9XTX7QQ+AP8e07XEEAAAQQQQAABBBBIJkDgTyYTgNf9HvizH4ImvfmTB/X7Hc717J368ul7NWJF9iWxR/EEuKS/eLaUjAACCCCAAAIIIICAW4DA79YI2M83X+Dv1LZ37I/Gs87A33KXfvDrGm0zH3/HV9kIEPjLZihoCAIIIIAAAggggEDABQj8AR7gmy/wB3gwA9Q1An+ABpOuIIAAAggggAACCJS1AIG/rIcnv8YR+PPzY+/iCBD4i+NKqQgggAACCCCAAAIIeAUI/F6RAC0T+AM0mAHqCoE/QINJVxBAAAEEEEAAAQTKWoDAX9bDk1/jCPz5+bF3cQQI/MVxpVQEEEAAAQQQQAABBLwCBH6vSICWCfwBGswAdYXAH6DBpCsIIIAAAggggAACZS1A4C/r4cmvcYUK/G++O0sDAwP5NYa9EZCseWTmE18IIIAAAggggAACCCBQfAECf/GNS1ZDoQL//IXLdPpMc8n6QcXBETDzyMwnvhBAAAEEEEAAAQQQQKD4AgT+4huXrIZCBf5DR45pzoefWKGfM/0lG05fV2zmjQn7Zh6Z+cQXAggggAACCCCAAAIIFF+AwF9845LVUKjA39/fb4U0c2bWXI7tLZflGkyqUxuYeWPmjwn7Zj7xhQACCCCAAAIIIIAAAsUXIPAX37hkNXiDeMkaQsUIIIAAAggggAACCCCAAAKDLkDgH3TywauQwD941tSEAAIIIIAAAggggAACCJSbAIG/3EakgO0h8BcQk6IQQAABBBBAAAEEEEAAAZ8JEPh9NmDZNJfAn40W2yKAAAIIIIAAAggggAACwRIg8AdrPGN6Q+CP4WABAQQQQAABBBBAAAEEELipBAj8AR5uAn+AB5euIYAAAggggAACCCCAAAJpBAj8aYD8vJrA7+fRo+0IIIAAAggggAACCCCAQH4CBP78/Mp6bwJ/WQ8PjUMAAQQQQAABBBBAAAEEiipA4C8qb2kLJ/CX1p/aEUAAAQQQQAABBBBAAIFSChD4S6lf5LoJ/EUGpngEEEAAAQQQQAABBBBAoIwFCPxlPDj5No3An68g+yOAAAIIIIAAAggggAAC/hUg8Pt37NK2nMCflogNEEAAAQQQQAABBBBAAIHAChD4Azu0EoE/wINL1xBAAAEEEEAAAQQQQACBNAIE/jRAfl5N4Pfz6NF2BBBAAAEEEEAAAQQQQCA/AQJ/fn5lvTeBv6yHh8YhgAACCCCAAAIIIIAAAkUVIPAXlbe0hRP4S+tP7QgggAACCCCAAAIIIIBAKQUI/KXUL3LdBP4iA1M8AggggAACCCCAAAIIIFDGAgT+Mh6cfJtG4M9XkP0RQAABBBBAAAEEEEAAAf8KEPj9O3ZpW07gT0vEBggggAACCCCAAAIIIIBAYAUI/IEdWj6WL8BDS9cQQAABBBBAAAEEEEAAgbQCBP60RP7dgDP8/h07Wo4AAggggAACCCCAAAII5CtA4M9XsIz3J/CX8eDQNAQQQAABBBBAAAEEEECgyAIE/iIDl7J4An8p9akbAQQQQAABBBBAAAEEECitAIG/tP5FrZ3AX1ReCkcAAQQQQAABBBBAAAEEylqAwF/Ww5Nf4wj8+fmxNwIIIIAAAggggAACCCDgZwECv59HL03bCfxpgFiNAAIIIIAAAggggAACCARYgMAf4MEl8Ad4cOkaAggggAACCCCAAAIIIJBGgMCfBsjPqwn8fh492o4AAggggAACCCCAAAII5CdA4M/Pr6z39m/gP6KpDwzTkIphunfakdIYrxhj1T+kYoyWqQzaUxoFakUAAQQQQAABBBBAAAEfCxD4fTx46Zpe6MDftuXPevKhH6qiwoTx4fr7X0/X5vYkrTg0XfdaYdmz3nr9EU095Hk9btEO2SUL/KY9Vug3gd98Fbs9vep9t0odi5p1I87C+0KvQovGq+Pdv2SwrXdflhFAAAEEEEAAAQQQQOBmESDwB3ikCx34N86ZqhV7L6lbUqhzt159YJiGjlylUCLDQgf+7rUadYcTvhNVmMFroRN66+FMDjaEyxrUwH9R10f8V7V97290+Y2GFEG+Vz1v3K/27/21Lo3YkNg+Awo2QQABBBBAAAEEEEAAgeALEPgDPMaFDvxeqsZpj2jIA9PV6F1hljMK/Ee04Hc/1fdvsy/fr7j7t5p5wDl84DqjbpVlb2Mu84/UGWrU3N/9k269ZZiG3HKX7ntxvdqstlzSmhfDr1cM1/cfels7tUojrCsTnHKcgweXtOa1X+nvrTaYqxbmaL/ThJSBP/l+5+aN0vfHfKTN035rl3vLffr/52Rya0K6MJ/pQYFEA8JrCCCAAAIIIIAAAgggcLMJEPgDPOLFDvzbJt2f5xn+s2qoP652c8mALmnJiLs19DdL1WGNiSvwm+W4AwghrRv3Iw39yVvabfbvrtfz91Tqn+e0SMdq9MCdv9e39qUIOlG/T6esMk3ojz3Df6rulxpaOUZLWkNS6Lxm/6pSt7/4nbV1qkv6U+1nHQi57Wd65Zuz6lZIx975uYbc+Ya22aWm/W/o09+p/V/9tdof/kih3vDmvc269vB/Vtu/ulUdn15MWwYbIIAAAggggAACCCCAAAIE/gDPgaIG/vblerzyUb2Z7F5871n5mLPrsaHbGYLYKwbSBf5dmnjnMP1ifqezu9aNu1tDRixX6NyH+ufbHtVEK3BHVkvWWX533Z2a96thqpy0K7LRubpfash9b2m/eSXpGf7U+1n9GLkqUmZsOdGXU/3Uv/VVXfrXf6X2O95WT1eDrt7xN2r71z9Q59brqXZjHQIIIIAAAggggAACCCAQESDwRyiC90PRAn+oUVMf/pkmbrmUHC3ujHx4U+v1cOgOndSSF3+lH9xeGX4ivutyfe9D8uLK816iH75U37rFIKSWjdP12N3DNfT2f9KTHzaG73X3nuG3DypYtwnEHJAIX+6fNPCn3q8Qgd9o3Tg8S5f//V+p7Xt/pbZ//7CuHXZO9ydnZw0CCCCAAAIIIIAAAggg4AgQ+B2JAH4vSuBvr9fEx/6X6177JHBxAT28nSvwh1aM0dA7qvThyU4rkOdyhv/xpc4N94naYYL/G3rglh/rld1mvTfw22fq75mS8CkEac/wJ9uvUIHf6tH5Ver4QZW6zifqH68hgAACCCCAAAIIIIAAAskFCPzJbXy/ptCBP9S6XCPv/pmmRh6sl4Iog8DfMf9JDbnzFW0OSd1nNmjiTyqjl9N7z/Cb+/IrHtEbpu5Qt7pD4Xv4H52pg5126O++dFwHT3RKp/dpa/ggQqj1Uz1+x916ZoNp6xqNvOVuPb7UXJnQre5uyboX/54XteKM9SABhTovaM/Rs3bHkp7hT71fQQN/CmJWIYAAAggggAACCCCAAAKpBAj8qXR8vq6wgb9Jb/7EecK9+7vztHsPVgaBXx2bNOG+4RpSUalbH5ykNVvq9OBtwzS0ak2Cz713PXn/tv+h946ZzwY8qSVjnKf8V+rW4T/V01+0SLtr9Y8/vEtDzWX6MU/vD2l/nfPk/Ls0xlSjS9bT9J3bCioqH9I//mmP3ZkUgT/VfgR+z1xgEQEEEEAAAQQQQAABBEoiQOAvCfvgVFrYwD84baYWBBBAAAEEEEAAAQQQQACBwggQ+AvjWJalEPjLclhoFAIIIIAAAggggAACCCAwKAIE/kFhLk0lBP7SuFMrAggggAACCCCAAAIIIFAOAgT+chiFIrWBwF8kWIpFAAEEEEAAAQQQQAABBHwgQOD3wSDl2kQCf65y7IcAAggggAACCCCAAAII+F+AwO//MUzaAwJ/UhpWIIAAAggggAACCCCAAAKBFyDwB3iICfwBHly6hgACCCCAAAIIIIAAAgikESDwpwHy82oCv59Hj7YjgAACCCCAAAIIIIAAAvkJEPjz8yvrvQn8ZT08NA4BBBBAAAEEEEAAAQQQKKoAgb+ovKUtnMBfWn9qRwABBBBAAAEEEEAAAQRKKUDgL6V+kesm8BcZmOIRQAABBBBAAAEEEEAAgTIWIPCX8eDk2zQCf76C7I8AAggggAACCCCAAAII+FeAwO/fsUvbcgJ/WiI2QAABBBBAAAEEEEAAAQQCK0DgD+zQSgT+AA8uXUMAAQQQQAABBBBAAAEE0ggQ+NMA+Xk1gd/Po0fbEUAAAQQQQAABBBBAAIH8BAj8+fmV9d4E/rIeHhqHAAIIIIAAAggggAACCBRVgMBfVN7SFk7gL60/tSOAAAIIIIAAAggggAACpRQg8JdSv8h1E/iLDEzxCCCAAAIIIIAAAggggEAZCxD4y3hw8m0agT9fQfZHAAEEEEAAAQQQQAABBPwrQOD379ilbTmBPy0RGyCAAAIIIIAAAggggAACgRUg8Ad2aPlYvgAPLV1DAAEEEEAAAQQQQAABBNIKEPjTEvl3A87w+3fsaDkCCCCAAAIIIIAAAgggkK8AgT9fwTLen8BfxoND0xBAAAEEEEAAAQQQQACBIgsQ+IsMXMriCfyl1KduBBBAAAEEEEAAAQQQQKC0AgT+0voXtXYCf1F5KRwBBBBAAAEEEEAAAQQQKGsBAn9ZD09+jSPw5+fH3ggggAACCCCAAAIIIICAnwUI/H4evTRtJ/CnAWI1AggggAACCCCAAAIIIBBgAQJ/gAeXwB/gwaVrCCCAAAIIIIAAAggggEAaAQJ/GiA/rybw+3n0aDsCCCCAAAIIIIAAAgggkJ8AgT8/v7Lem8Bf1sND4xBAAAEEEEAAAQQQQACBogoQ+IvKW7rCe1sPavXSRZoxY7benjFP7y/dqIbWUOkaRM0IIIAAAgggqJnWogAADPpJREFUgAACCCCAAAKDKkDgH1TuwaisX6c3Ldab1TXynuGfXD1LszedU/9gNIM6EEAAAQQQQAABBBBAAAEESipA4C8pf+Er7z/0ZZKw7xwAmKMVTUT+wsunKLG3VzfMvxSbsAoBBBBAAAEEEEAAAQQQKLQAgd8rGjqvnR+M1323V2pIxSOaesi7gaRQpw6unK7//dOH9F8rh2vIA9PVmGAz90vdR7/SK7/+B1VUDNOQkavcq0yBalo6Xj82ZVUM09DbH9Rj0+rV5tkq/WK36hfMjJzZnzLzc207fUWXTu/Rwpmu1xc06Hr6wmK2aJz2iNU2077KSbti1kl79co9w8Lrk5h59rAXW/TBY8M15Jb79NyGYt1usEojjHnFMN077UhMK5aNDLfZGb9zq/Xa6BG67/ZHE497ZG97vOw5kmg8IxtKOq6r/+U/qf2v/0aX32gg9Ltp+BkBBBBAIFACPWc2qe7111RVNVZPPDVWT4x6XqMn1Gm99YbmjD5+Kfz69G1Z9btv43t2eaZM51+WZWRVIRsjgAACARIg8LsHc/fbVtCvuM0O3gkDf/t6PfMjczBguH445iNtPXZBHSmzaosWj/oHVdwyXBW3hAOmJ/C3zX9SQyuG6W9HfKqWULc2T/ixhlRU6oF3YgOqu6mJf27UwjedM/kLtM59xKBtq+qcy/zf+TLtAQpv+e7AP+SOF7TG3efdUzU8HKoTmnkLiyyXWeA/NF33Wv1Ic9Di1J/1k/B2bxxwQ0Q6FvPDjcOzdPnf/Qe1/5v/l9AfI8MCAggggEBQBK5smaWnR03Qq4v36lxX+ErCnk5dOPYXNV2L9nLT9LF6IsuwfnLx63p6brbviaJ18hMCCCBwMwsQ+N2jv3uJ3v3mrLpXjElytvqI3vyJCfvDdO+URqWPeqbwFq2s+1QHOxs19YFEgT96dvzxpeESt7+hShMo73hJ69ztS/vzAS1wQn31Mu1wX7nfv08fRdat0O60ZcVuEBP4Kyr1y4Wd4Q1CWvPM3WEv0780YTm22EFYyuIMf6aB35kf972l/Rn2gNCfIRSbIYAAAgj4T6Bvn957ZqzGzj2ivjStzyXwm30mrWxPUzKrEUAAAQQSCRD4E6k4gc4bXje8pL+1zuz+UjPPJdpROjXnf6qiolK3PvahTsVsciRx4O9YpF9YZQ7TiBXhHTINnjHlm4ULWjvLOcM/U++tOaNea5uQTqyZrylO4J+1WS1x+6Z+wQn89/7md/bZ/If/bPevY6l+eUulfvmbJ+MOkpz6erqefOi/6dbwlQ0VlQ/psZq96raqatHKN0bp/jvsgyB2381r/0f/+MO79MCUtVoy5qf6/m3DNOSWu/TwO+EDLBGb8MGTsF3yAzC5Bf7nP5iux354l3XlRcXdv9VM50x+ZG5E6/feKpBMktCfTIbXEUAAAQR8LdAwV6Oeek0fNaXvRfaBv13L/zBO0+uTld2v5m2LNfn55zXCXO5fNUmTFzfqSrLNeR0BBBC4yQQI/IkGPBLqYs9WO6F3SMUvNGLMP9lB9pa79INfz9H+8Mn5rAO/K8DmH/ili5sWRoN9dY2mvP2+3no7ev/+5OqZmrXpUqJep3zN6fu909br3YdN2P2xXtktnar5uaxL/JfGXxWx6uVf6LnF+9VuEn77cj1uhfsf6bnNTlXRgyB236PLw8d+pdPdUmjLK/bVDhVPal6Hs5/9PbT9DfvgQ+VLWpf0coto4DdXZiT859zDHxmL+zVq2Vl1K6T9U8LPLqicpI1O9c78cPZzXs/g+43D7+nyv/0Pav9/uLw/Ay42QQABBBDwg8CWWj3xVK02ZdDW7AP/Ec0eN04jR4+37t8fMfoVT6DfrQXvfaMDLdetqwt69n+ksU+9ro9jz7pk0DI2QQABBIIpQOBPNK5OoPOc4XdC75CK36jmjEmjuzQx/LC69Gd5o2E25qF9kZBZiDP8pjOXtOEDd8B3zvjb36fM2qzmRH1O85rTd9NPK+RXDNPwP8y3HtZnPcQviVm02Gj/H3jHOQUQfc0b+COeEZ/Ygy+Ss+/dGrHCub0gWlv0p2jgj5QZXhn30L5EdSV6zelr1oG/Vz1v3Kf2f/Mf1fbvHta1w/b1F9G28hMCCCCAAAI+FEgQ+M1994kesJd94O9Vl/NMAPXq/O6FenHUOP3Luq4kUNv01lNj9daWJKt5GQEEELjJBAj8iQbcCXRJA/8YLQvvFwmNngfxxRfrBFTPU90Lekl/uNa2es2KPLzPFfjfnK+1SW5FiG9v7CvbJt1vP7vAPOneuozfOVtun+lXnFlILRv/rCcful/DrE88cLZ3Py0/apJt4D9V90vrcvuhv1qU5tMMyiXw96r33YfV/m//E2E/dmqxhAACCCDgdwHrkv7JWnw2viPegO9djt8j3Sv20/7HLz4T3rBT+5bP1EvPhi/pDz/Fn8CfzpH1CCBwswgQ+BONdFx4DW8UuYe/SkvCl5A7gX9o1ZpEJblei4bbmDP8ro+0y/+hfdHqvJf253opv1Oi00/7LHlIy0baDy8c4tzL7zU7N0cPW5fQP6JXv7uk7sgZ+QIEfuf2gFse1ZuJPjbRabT1Pc/Af+At3WP141G9eSxcsNPXjM/wE/ZjhoQFBBBAAIFgCfQ1aMbosRq/8GTcQ/u8Ad+7nDVExwZNdp/htw42vK4/725Vl/XEQM7wZ23KDgggEGgBAn+i4XUCnecMv7mM3H5K/916fPF5hbq3aNyd5sz1j/RM+HPks76HX1LhPpbP3ZnYS/unfFCvi+7VWf7sBH7ncvzQ2hf0t+6n9XvNjtXoASso/0az26VQ61caZVkN0z1TGsO1Rw+CZH6GP6R1435kXW0wfNKuDD4pIZfAf79GrTyvkLq1+/XwPfzucO/01f1aUk/CflIaViCAAAIIBEbgypZaVT0V+7F8fV2X9eW02I/hiw387fpyyniNePZj7Ukp0auOi806sGGxXn92nKreWK3jzscB1M/SiKfe1hfmOT89F7Xzyzq9MGqsqje6P6ooZeGsRAABBAItQOB3Da8TauMf7Oa6f7y9XlN//WD4yfOVuvWHv9XUjSYc2l9xgT9yD3j0kvZI+ZHbAEJqWjpeP64cbgXZobc/qMem1ae5VN3V8GQ/Opf2v7lQG9qSbZTZ646NHcwT7OOE4MhBkkta82L0wYb3jVmuhrWv64fmqfsVlRr5pSkj+8AfeVCf9wF8ScN39oF/6K9masW03+oH1q0Ilbr1wfFacsIZYSly+0LSOt0+F9U18kl1/GIU9+y7WfgZAQQQQCBgAv1q3/OFpk2aqJGjxtr371dN0HOvz9bHO6OnHLIN/PazAMaratzLemnqYn1x8KJ63HJ9J7V8ykTrCf2/G/+uljf1atf7Znm8/rTDvSE/I4AAAjenAIE/4OPevG6BZufwVP6As9A9BBBAAAEEEEAAAQQQQCDwAgT+oA9xf7+4qC3og0z/EEAAAQQQQAABBBBAAIF4AQJ/vAmvIIAAAggggAACCCCAAAIIIOB7AQK/74eQDiCAAAIIIIAAAggggAACCCAQL0DgjzfhFQQQQAABBBBAAAEEEEAAAQR8L0Dg9/0Q0gEEEEAAAQQQQAABBBBAAAEE4gUI/PEmvIIAAggggAACCCCAAAIIIICA7wUI/L4fQjqAAAIIIIAAAggggAACCCCAQLwAgT/ehFcQQAABBBBAAAEEEEAAAQQQ8L0Agd/3Q0gHEEAAAQQQQAABBBBAAAEEEIgXIPDHm/AKAggggAACCCCAAAIIIIAAAr4XIPD7fgjpAAIIIIAAAggggAACCCCAAALxAgT+eBNeQQABBBBAAAEEEEAAAQQQQMD3AgR+3w8hHUAAAQQQQAABBBBAAAEEEEAgXoDAH2/CKwgggAACCCCAAAIIIIAAAgj4XoDA7/shpAMIIIAAAggggAACCCCAAAIIxAsQ+ONNeAUBBBBAAAEEEEAAAQQQQAAB3wsQ+H0/hHQAAQQQQAABBBBAAAEEEEAAgXgBAn+8Ca8ggAACCCCAAAIIIIAAAggg4HsBAr/vh5AOIIAAAggggAACCCCAAAIIIBAvQOCPN+EVBBBAAAEEEEAAAQQQQAABBHwvQOD3/RDSAQQQQAABBBBAAAEEEEAAAQTiBQj88Sa8ggACCCCAAAIIIIAAAggggIDvBazAf/HSFZkf+vtv+L5DdAABBBBAAAEEEEAAAQQQQACBm13A5PtI4G+90KYrnVdvdhP6jwACCCCAAAIIIIAAAggggIDvBUy+Nzn/e22XO9R6sV3Nred1paNTff39vu8cHUAAAQQQQAABBBBAAAEEEEDgZhMwed7kepPvTc7/XvuVTl1ov2yd7j/bcl6nzp7TidNn1XTqjI6fPM0/DJgDzAHmAHOAOcAcYA4wB5gDzAHmAHOAOVDGc8Dkd5PjTZ43ud5czm9y/v8FhtmEhsz2j8MAAAAASUVORK5CYII=;" parent="1" vertex="1">
          <mxGeometry width="1020" height="910" as="geometry" />
        </mxCell>
        <mxCell id="Yx1Y_kQ19_9zyjQyw0cI-2" value="" style="rounded=0;whiteSpace=wrap;html=1;fillColor=none;strokeColor=#b85450;strokeWidth=6;" parent="1" vertex="1">
          <mxGeometry x="620" y="440" width="120" height="200" as="geometry" />
        </mxCell>
        <mxCell id="Yx1Y_kQ19_9zyjQyw0cI-3" value="" style="rounded=0;whiteSpace=wrap;html=1;fillColor=none;strokeColor=#b85450;strokeWidth=6;" parent="1" vertex="1">
          <mxGeometry x="48" y="526" width="80" height="40" as="geometry" />
        </mxCell>
        <mxCell id="Yx1Y_kQ19_9zyjQyw0cI-5" value="" style="rounded=0;whiteSpace=wrap;html=1;fillColor=#000000;" parent="1" vertex="1">
          <mxGeometry x="42" y="866" width="72" height="22" as="geometry" />
        </mxCell>
      </root>
    </mxGraphModel>
  </diagram>
</mxfile>
